<?xml version="1.0" encoding="utf-8"?>
<!-- Generator: Adobe Illustrator 27.5.0, SVG Export Plug-In . SVG Version: 6.00 Build 0)  -->
<svg version="1.1" xmlns="http://www.w3.org/2000/svg" xmlns:xlink="http://www.w3.org/1999/xlink" x="0px" y="0px"
	 viewBox="0 0 500 500" style="enable-background:new 0 0 500 500;" xml:space="preserve">
<g id="BACKGROUND">
	<g>
		<g>
			<rect style="fill:#D6D6D6;" width="500" height="500"/>
		</g>
		<rect y="401.42" style="fill:#EFEFEF;" width="500" height="98.58"/>
	</g>
</g>
<g id="DESIGNED_BY_FREEPIK">
	<g id="XMLID_30_">
		<g id="XMLID_59_">
			<g id="XMLID_78_">
				<path id="XMLID_86_" style="fill:#1D262D;" d="M260.104,461.87c-0.432,0.443-0.803,0.931-1.108,1.453l-0.465-0.241
					c-0.067-0.298-0.349-0.503-0.659-0.466c-0.331,0.039-0.568,0.339-0.529,0.67c0.039,0.331,0.339,0.568,0.67,0.529
					c0.065-0.008,0.127-0.026,0.184-0.052l0.451,0.234c-0.251,0.554-0.433,1.139-0.539,1.744l0.747,0.132
					c0.23-1.306,0.85-2.507,1.792-3.473L260.104,461.87z"/>
				<path id="XMLID_85_" style="fill:#1D262D;" d="M265.592,459.568c-0.171,0-0.341,0.006-0.51,0.017l-0.074-0.626
					c0.188-0.149,0.296-0.389,0.266-0.645c-0.046-0.393-0.402-0.674-0.795-0.628c-0.393,0.046-0.674,0.402-0.628,0.795
					c0.03,0.254,0.189,0.461,0.404,0.564l0.074,0.624c-0.714,0.116-1.403,0.332-2.06,0.646l0.327,0.684
					c0.934-0.447,1.942-0.673,2.995-0.673c0.496,0,0.993,0.053,1.475,0.158l0.161-0.741
					C266.692,459.627,266.142,459.568,265.592,459.568z"/>
				<path id="XMLID_84_" style="fill:#1D262D;" d="M272.194,462.115c0.331-0.04,0.566-0.341,0.525-0.672
					c-0.04-0.331-0.341-0.566-0.672-0.526c-0.309,0.038-0.535,0.304-0.53,0.609l-0.416,0.363c-0.418-0.43-0.889-0.813-1.408-1.139
					l-0.404,0.641c1.134,0.715,2.021,1.726,2.563,2.925l0.691-0.313c-0.251-0.554-0.568-1.072-0.942-1.545l0.402-0.351
					C272.065,462.12,272.129,462.123,272.194,462.115z"/>
				<path id="XMLID_83_" style="fill:#1D262D;" d="M265.044,469.776c-0.386,0.023-0.775,0.035-1.157,0.035
					c-0.88,0-1.733-0.061-2.478-0.179c-0.39-0.062-0.846-0.155-1.27-0.292c1.046,1.861,3.069,3.125,5.388,3.125
					c2.855,0,5.262-1.916,5.95-4.504c-0.682,0.449-1.505,0.825-2.459,1.123C267.839,469.451,266.463,469.691,265.044,469.776z"/>
				<path id="XMLID_79_" style="fill:#1D262D;" d="M265.592,461.084c-3.352,0-6.08,2.666-6.08,5.944
					c0,0.426,0.046,0.849,0.137,1.261c0.674,0.483,2.706,0.89,5.348,0.731c2.879-0.173,5.297-0.957,6.672-2.159
					c-0.005-0.195-0.021-0.39-0.045-0.582C271.244,463.318,268.65,461.084,265.592,461.084z M263.432,467.599
					c-1.02,0-1.85-0.83-1.85-1.85c0-1.02,0.83-1.85,1.85-1.85c1.02,0,1.85,0.83,1.85,1.85
					C265.282,466.769,264.452,467.599,263.432,467.599z M268.17,466.69c-0.75,0-1.36-0.61-1.36-1.36c0-0.75,0.61-1.36,1.36-1.36
					c0.75,0,1.361,0.61,1.361,1.36C269.53,466.08,268.92,466.69,268.17,466.69z"/>
			</g>
			<path id="XMLID_76_" style="fill:#1D262D;" d="M281.595,462.951c-0.295-0.116-0.806-0.309-1.382-0.237
				c-0.551,0.069-0.844,0.34-0.844,1.007v0.866h2.228v1.717h-2.228v5.455h-1.932v-5.455h-1.34v-1.717h1.34v-0.888
				c0-1.68,0.896-2.783,2.568-2.783c0.642,0,1.157,0.122,1.59,0.308L281.595,462.951z"/>
			<path id="XMLID_74_" style="fill:#1D262D;" d="M286.298,466.283c-0.177-0.03-0.358-0.046-0.526-0.046
				c-0.896,0-1.51,0.548-1.51,1.613v3.908h-1.932v-7.172h1.873v0.785c0.451-0.673,1.14-0.977,2.021-0.977
				c0.414,0,0.848,0.128,1.094,0.337L286.298,466.283z"/>
			<path id="XMLID_71_" style="fill:#1D262D;" d="M293.965,468.161c0,0.222-0.015,0.489-0.037,0.651h-5.085
				c0.207,1.036,0.933,1.488,1.843,1.488c0.622,0,1.295-0.252,1.813-0.688l1.132,1.243c-0.814,0.748-1.85,1.088-3.057,1.088
				c-2.198,0-3.723-1.495-3.723-3.752c0-2.258,1.48-3.797,3.627-3.797C292.544,464.394,293.958,465.926,293.965,468.161z
				 M288.851,467.495h3.175c-0.177-0.918-0.733-1.436-1.562-1.436C289.554,466.059,289.021,466.607,288.851,467.495z"/>
			<path id="XMLID_68_" style="fill:#1D262D;" d="M301.618,468.161c0,0.222-0.015,0.489-0.037,0.651h-5.085
				c0.207,1.036,0.932,1.488,1.843,1.488c0.622,0,1.295-0.252,1.814-0.688l1.132,1.243c-0.814,0.748-1.85,1.088-3.057,1.088
				c-2.198,0-3.723-1.495-3.723-3.752c0-2.258,1.48-3.797,3.627-3.797C300.197,464.394,301.611,465.926,301.618,468.161z
				 M296.504,467.495h3.175c-0.178-0.918-0.733-1.436-1.562-1.436C297.207,466.059,296.674,466.607,296.504,467.495z"/>
			<path id="XMLID_65_" style="fill:#1D262D;" d="M309.964,468.169c0,2.154-1.495,3.775-3.471,3.775
				c-0.962,0-1.643-0.377-2.109-0.933v3.708h-1.924v-10.133h1.887v0.792c0.466-0.585,1.155-0.984,2.139-0.984
				C308.469,464.394,309.964,466.015,309.964,468.169z M304.287,468.169c0,1.132,0.747,1.976,1.843,1.976
				c1.14,0,1.85-0.881,1.85-1.976c0-1.095-0.71-1.976-1.85-1.976C305.035,466.193,304.287,467.036,304.287,468.169z"/>
			<path id="XMLID_62_" style="fill:#1D262D;" d="M313.068,462.24c0,0.696-0.54,1.229-1.236,1.229c-0.696,0-1.229-0.533-1.229-1.229
				c0-0.696,0.533-1.243,1.229-1.243C312.527,460.997,313.068,461.544,313.068,462.24z M312.809,471.758h-1.932v-7.172h1.932
				V471.758z"/>
			<path id="XMLID_60_" style="fill:#1D262D;" d="M316.032,467.14l2.702-2.554h2.368l-3.479,3.375l3.501,3.797h-2.376l-2.716-2.901
				v2.901H314.1V461.1h1.932V467.14z"/>
		</g>
		<g id="XMLID_31_">
			<path id="XMLID_56_" style="fill:#1D262D;" d="M184.412,471.693v-1.055c-0.527,0.718-1.391,1.23-2.387,1.23
				c-1.846,0-3.149-1.406-3.149-3.706c0-2.256,1.289-3.721,3.149-3.721c0.952,0,1.816,0.469,2.387,1.245v-3.765h1.099v9.77H184.412z
				 M184.412,469.775v-3.208c-0.395-0.615-1.245-1.143-2.124-1.143c-1.421,0-2.27,1.172-2.27,2.739c0,1.567,0.85,2.724,2.27,2.724
				C183.168,470.888,184.017,470.39,184.412,469.775z"/>
			<path id="XMLID_53_" style="fill:#1D262D;" d="M186.932,468.149c0-2.051,1.465-3.706,3.486-3.706c2.139,0,3.398,1.67,3.398,3.794
				v0.279h-5.727c0.088,1.333,1.025,2.446,2.549,2.446c0.806,0,1.626-0.322,2.182-0.893l0.527,0.718
				c-0.703,0.703-1.655,1.084-2.812,1.084C188.441,471.869,186.932,470.361,186.932,468.149z M190.404,465.351
				c-1.509,0-2.256,1.274-2.314,2.358h4.643C192.718,466.654,192.015,465.351,190.404,465.351z"/>
			<path id="XMLID_51_" style="fill:#1D262D;" d="M194.607,470.756l0.571-0.791c0.469,0.542,1.362,1.011,2.329,1.011
				c1.084,0,1.67-0.513,1.67-1.216c0-1.714-4.38-0.659-4.38-3.281c0-1.098,0.952-2.036,2.636-2.036c1.201,0,2.051,0.454,2.622,1.025
				l-0.513,0.762c-0.424-0.513-1.201-0.894-2.109-0.894c-0.967,0-1.567,0.483-1.567,1.113c0,1.553,4.38,0.527,4.38,3.281
				c0,1.187-0.952,2.139-2.783,2.139C196.306,471.869,195.325,471.518,194.607,470.756z"/>
			<path id="XMLID_48_" style="fill:#1D262D;" d="M201.477,462.875c0-0.41,0.337-0.747,0.732-0.747c0.41,0,0.747,0.337,0.747,0.747
				c0,0.41-0.337,0.732-0.747,0.732C201.814,463.608,201.477,463.286,201.477,462.875z M201.667,471.693v-7.075h1.099v7.075H201.667
				z"/>
			<path id="XMLID_45_" style="fill:#1D262D;" d="M204.582,473.51l0.556-0.82c0.586,0.703,1.289,0.967,2.3,0.967
				c1.172,0,2.27-0.571,2.27-2.124v-1.011c-0.513,0.718-1.377,1.26-2.373,1.26c-1.845,0-3.149-1.377-3.149-3.662
				c0-2.27,1.289-3.676,3.149-3.676c0.952,0,1.802,0.469,2.373,1.245v-1.069h1.099v6.87c0,2.344-1.641,3.076-3.369,3.076
				C206.237,474.564,205.417,474.33,204.582,473.51z M209.709,469.657v-3.091c-0.381-0.615-1.23-1.143-2.109-1.143
				c-1.421,0-2.27,1.128-2.27,2.695c0,1.553,0.849,2.695,2.27,2.695C208.478,470.815,209.328,470.273,209.709,469.657z"/>
			<path id="XMLID_43_" style="fill:#1D262D;" d="M217.413,471.693v-4.629c0-1.245-0.63-1.641-1.582-1.641
				c-0.865,0-1.685,0.527-2.095,1.099v5.17h-1.099v-7.075h1.099v1.025c0.498-0.586,1.464-1.201,2.519-1.201
				c1.48,0,2.256,0.747,2.256,2.285v4.966H217.413z"/>
			<path id="XMLID_40_" style="fill:#1D262D;" d="M219.932,468.149c0-2.051,1.465-3.706,3.486-3.706c2.139,0,3.398,1.67,3.398,3.794
				v0.279h-5.727c0.088,1.333,1.025,2.446,2.549,2.446c0.806,0,1.626-0.322,2.183-0.893l0.527,0.718
				c-0.703,0.703-1.655,1.084-2.812,1.084C221.441,471.869,219.932,470.361,219.932,468.149z M223.404,465.351
				c-1.509,0-2.256,1.274-2.314,2.358h4.643C225.718,466.654,225.015,465.351,223.404,465.351z"/>
			<path id="XMLID_37_" style="fill:#1D262D;" d="M233.35,471.693v-1.055c-0.527,0.718-1.392,1.23-2.388,1.23
				c-1.846,0-3.149-1.406-3.149-3.706c0-2.256,1.289-3.721,3.149-3.721c0.952,0,1.817,0.469,2.388,1.245v-3.765h1.098v9.77H233.35z
				 M233.35,469.775v-3.208c-0.396-0.615-1.245-1.143-2.124-1.143c-1.421,0-2.27,1.172-2.27,2.739c0,1.567,0.849,2.724,2.27,2.724
				C232.105,470.888,232.954,470.39,233.35,469.775z"/>
			<path id="XMLID_34_" style="fill:#1D262D;" d="M239.692,471.693v-9.77h1.098v3.765c0.572-0.776,1.421-1.245,2.388-1.245
				c1.845,0,3.149,1.465,3.149,3.721c0,2.299-1.304,3.706-3.149,3.706c-0.996,0-1.86-0.513-2.388-1.23v1.055H239.692z
				 M242.9,470.888c1.436,0,2.286-1.157,2.286-2.724c0-1.567-0.85-2.739-2.286-2.739c-0.864,0-1.728,0.527-2.109,1.143v3.208
				C241.171,470.39,242.036,470.888,242.9,470.888z"/>
			<path id="XMLID_32_" style="fill:#1D262D;" d="M247.529,473.466c0.161,0.073,0.425,0.117,0.601,0.117
				c0.483,0,0.805-0.161,1.055-0.747l0.469-1.069l-2.959-7.148h1.187l2.358,5.801l2.344-5.801h1.201l-3.545,8.51
				c-0.425,1.025-1.143,1.421-2.08,1.435c-0.234,0-0.601-0.044-0.805-0.103L247.529,473.466z"/>
		</g>
	</g>
</g>
<g id="OBJECTS">
	<g>
		<g>
			<g>
				<g>
					<rect x="20.986" y="208.502" style="fill:#F9FBFC;" width="6.178" height="231.828"/>
					<rect x="90.658" y="208.502" style="fill:#F9FBFC;" width="6.178" height="231.828"/>
				</g>
				<g>
					
						<rect x="55.822" y="193.271" transform="matrix(-1.836970e-16 1 -1 -1.836970e-16 289.1858 171.3633)" style="fill:#F9FBFC;" width="6.178" height="74.008"/>
					
						<rect x="55.822" y="240.341" transform="matrix(-1.836970e-16 1 -1 -1.836970e-16 336.2564 218.4339)" style="fill:#F9FBFC;" width="6.178" height="74.008"/>
					
						<rect x="55.822" y="287.412" transform="matrix(-1.836970e-16 1 -1 -1.836970e-16 383.327 265.5045)" style="fill:#F9FBFC;" width="6.178" height="74.008"/>
					
						<rect x="55.822" y="334.483" transform="matrix(-1.836970e-16 1 -1 -1.836970e-16 430.3976 312.5751)" style="fill:#F9FBFC;" width="6.178" height="74.008"/>
					
						<rect x="55.822" y="381.553" transform="matrix(-1.836970e-16 1 -1 -1.836970e-16 477.4682 359.6457)" style="fill:#F9FBFC;" width="6.178" height="74.008"/>
				</g>
			</g>
			<g>
				<g>
					<g>
						<path style="fill:#898F9B;" d="M67.783,275.217c0,0,0.633-50.454,22.875-57.296v2.544c0,0-18.465,3.009-18.465,52.331
							L67.783,275.217z"/>
					</g>
					<g>
						<path style="fill:#898F9B;" d="M119.712,275.217c0,0-0.632-50.454-22.875-57.296v2.544c0,0,18.465,3.009,18.465,52.331
							L119.712,275.217z"/>
					</g>
				</g>
				<g>
					<path style="fill:#777F8C;" d="M121.424,278.331c0-3.044-2.491-5.535-5.535-5.535H71.606c-3.044,0-5.535,2.491-5.535,5.535
						v13.934h55.354V278.331z"/>
					<path style="fill:#898F9B;" d="M66.07,292.264v10.028c0,3.044,2.491,5.535,5.535,5.535h44.283c3.044,0,5.535-2.491,5.535-5.535
						v-10.028H66.07z"/>
				</g>
				<path style="fill:#1D262D;" d="M96.876,294.51h-6.257c-1.28,0-2.326-1.047-2.326-2.327l0,0c0-1.279,1.047-2.326,2.326-2.326
					h6.257c1.28,0,2.326,1.047,2.326,2.326l0,0C99.202,293.464,98.156,294.51,96.876,294.51z"/>
			</g>
		</g>
		<g>
			<path style="fill:#EFEFEF;" d="M480.027,308.921l-3.74,2.585l-54.453-78.782c-0.714-1.033-0.455-2.449,0.578-3.163l0,0
				c1.033-0.714,2.449-0.455,3.163,0.577L480.027,308.921z"/>
			<path style="fill:#EFEFEF;" d="M484.183,312.276c0,2.295-1.861,4.156-4.156,4.156s-4.156-1.861-4.156-4.156
				s1.861-4.156,4.156-4.156S484.183,309.981,484.183,312.276z"/>
			<g>
				<path style="fill:#EFEFEF;" d="M419.471,273.84c-4.677,3.28-11.127,2.148-14.407-2.529c-3.28-4.677-2.148-11.127,2.529-14.407
					c4.677-3.28,11.127-2.148,14.407,2.529C425.281,264.109,424.148,270.56,419.471,273.84z"/>
				<path style="fill:#F9FBFC;" d="M435.809,261.202l8.94-6.27c1.695-1.189,2.109-3.549,0.921-5.244l-6.445-9.19
					c-1.189-1.695-3.549-2.109-5.244-0.921l-8.94,6.27c-8.048-5.081-18.689-5.155-26.968,0.652l27.938,39.836
					C434.29,280.529,437.845,270.499,435.809,261.202z"/>
			</g>
			<g>
				<rect x="460.235" y="272.609" style="fill:#F9FBFC;" width="4.527" height="151.819"/>
				<path style="fill:#1D262D;" d="M477.19,427.467c-6.22-2.353-8.182-6.925-8.784-9.958c-0.345-1.734-1.85-2.989-3.618-2.989
					h-1.281h-2.017h-1.281c-1.768,0-3.273,1.255-3.617,2.989c-0.603,3.032-2.565,7.604-8.785,9.958
					c-9.812,3.713-10.597,12.862-10.597,12.862h24.28h2.017h24.28C487.788,440.329,487.003,431.18,477.19,427.467z"/>
			</g>
		</g>
		<g>
			
				<rect x="167.106" y="92.775" transform="matrix(-1 -1.224647e-16 1.224647e-16 -1 439.512 314.4494)" style="fill:#F9FBFC;" width="105.3" height="128.9"/>
			<g>
				<g>
					
						<rect x="350.281" y="104.019" transform="matrix(-1 -1.224647e-16 1.224647e-16 -1 787.4906 314.4494)" style="fill:#F9FBFC;" width="86.929" height="106.412"/>
					
						<rect x="357.319" y="111.452" transform="matrix(-1 -1.224647e-16 1.224647e-16 -1 787.4906 314.4493)" style="fill:#1D262D;" width="72.853" height="91.546"/>
				</g>
				<text transform="matrix(1 0 0 1 366.6616 144.5674)"><tspan x="0" y="0" style="fill:#F9FBFC; font-family:'Nickainley-Normal'; font-size:24.8015px;">Trust</tspan><tspan x="8.866" y="19.241" style="fill:#F9FBFC; font-family:'Nickainley-Normal'; font-size:24.8015px;">the</tspan><tspan x="-10.057" y="42.758" style="fill:#F9FBFC; font-family:'Nickainley-Normal'; font-size:24.8015px;">Timing</tspan></text>
			</g>
			<g>
				<g>
					
						<rect x="80.094" y="112.633" transform="matrix(-1.836970e-16 1 -1 -1.836970e-16 264.606 49.8433)" style="fill:#1D262D;" width="54.575" height="89.182"/>
					
						<rect x="85.992" y="118.863" transform="matrix(-1.836970e-16 1 -1 -1.836970e-16 264.606 49.8433)" style="fill:#EFEFEF;" width="42.778" height="76.723"/>
				</g>
				
					<text transform="matrix(1 0 0 1 80.7456 166.4438)" style="fill:#1D262D; font-family:'Nickainley-Normal'; font-size:31.5922px;">Love</text>
			</g>
			<g>
				<g>
					
						<rect x="286.103" y="75.207" transform="matrix(-1 -1.224647e-16 1.224647e-16 -1 623.0569 199.2043)" style="fill:#1D262D;" width="50.852" height="48.79"/>
					
						<rect x="292.251" y="81.467" transform="matrix(-1 -1.224647e-16 1.224647e-16 -1 623.0568 199.2043)" style="fill:#B2B7BF;" width="38.554" height="36.271"/>
				</g>
				<g>
					<path style="fill:#F9FBFC;" d="M306.133,100.787c-1.25-6.26,2.811-12.349,9.072-13.599c1.293-0.258,2.577-0.286,3.814-0.119
						c-2.522-1.175-5.426-1.588-8.363-1.001c-7.338,1.465-12.098,8.602-10.633,15.939c1.465,7.338,8.602,12.098,15.939,10.633
						c2.937-0.586,5.46-2.083,7.337-4.136c-1.078,0.63-2.275,1.097-3.567,1.355C313.472,111.109,307.383,107.047,306.133,100.787z"
						/>
				</g>
			</g>
			<g>
				<g>
					
						<rect x="286.103" y="132.83" transform="matrix(-1 -1.224647e-16 1.224647e-16 -1 623.0569 314.4493)" style="fill:#1D262D;" width="50.852" height="48.79"/>
					
						<rect x="292.251" y="139.089" transform="matrix(-1 -1.224647e-16 1.224647e-16 -1 623.0568 314.4493)" style="fill:#EFEFEF;" width="38.554" height="36.271"/>
				</g>
				<polygon style="fill:#B2B7BF;" points="311.528,146.586 314.754,153.123 321.968,154.171 316.748,159.26 317.981,166.444 
					311.528,163.052 305.076,166.444 306.308,159.26 301.089,154.171 308.302,153.123 				"/>
			</g>
			<g>
				<polygon style="fill:#898F9B;" points="212.23,100.263 174.42,100.263 174.42,114.48 212.23,152.291 				"/>
				<polygon style="fill:#B2B7BF;" points="248.173,188.234 265.092,188.234 265.092,100.263 212.23,100.263 212.23,152.291 				"/>
				<polygon style="fill:#898F9B;" points="248.173,188.234 265.092,205.153 265.092,188.234 				"/>
				<polygon style="fill:#EFEFEF;" points="212.23,188.234 248.173,188.234 212.23,152.291 				"/>
				<polygon style="fill:#777F8C;" points="212.23,188.234 212.23,214.186 265.092,214.186 265.092,205.153 248.173,188.234 				"/>
				<rect x="174.42" y="188.234" style="fill:#B2B7BF;" width="37.81" height="25.952"/>
				<polygon style="fill:#777F8C;" points="212.23,152.291 174.42,114.48 174.42,188.234 212.23,188.234 				"/>
			</g>
		</g>
		<g>
			<g>
				<g>
					<polygon style="fill:#1D262D;" points="145.316,393.333 151.393,440.329 155.951,440.329 160.509,393.333 					"/>
					<polygon style="fill:#1D262D;" points="368.988,393.333 375.065,440.329 379.623,440.329 384.18,393.333 					"/>
				</g>
				<path style="fill:#777F8C;" d="M382.643,405.107h-235.79c-6.627,0-12-5.373-12-12v-11.548h259.79v11.548
					C394.643,399.735,389.271,405.107,382.643,405.107z"/>
				<path style="fill:#B2B7BF;" d="M394.643,383.078h-259.79v-35.245c0-6.126,4.966-11.092,11.092-11.092h237.606
					c6.126,0,11.092,4.966,11.092,11.092V383.078z"/>
				<path style="fill:#777F8C;" d="M389.412,336.742H140.085v-53.923c0-10.493,8.507-19,19-19h211.327c10.493,0,19,8.507,19,19
					V336.742z"/>
				<g>
					<path style="fill:#898F9B;" d="M140.154,409.854h-5.37c-6.6,0-12-5.4-12-12v-55.84c0-6.6,5.4-12,12-12h5.37c6.6,0,12,5.4,12,12
						v55.84C152.154,404.454,146.754,409.854,140.154,409.854z"/>
					<path style="fill:#898F9B;" d="M394.713,409.854h-5.37c-6.6,0-12-5.4-12-12v-55.84c0-6.6,5.4-12,12-12h5.37c6.6,0,12,5.4,12,12
						v55.84C406.713,404.454,401.313,409.854,394.713,409.854z"/>
				</g>
			</g>
			<g>
				<g>
					<polygon style="fill:#1D262D;" points="237.41,318.53 187.112,364.277 195.882,364.277 237.41,326.506 					"/>
					<polygon style="fill:#1D262D;" points="184.735,297.529 168.462,312.33 168.462,320.306 193.505,297.529 					"/>
					<polygon style="fill:#1D262D;" points="237.41,307.045 174.485,364.277 183.254,364.277 237.41,315.021 					"/>
					<polygon style="fill:#1D262D;" points="197.363,297.529 168.462,323.815 168.462,331.791 206.132,297.529 					"/>
					<path style="fill:#1D262D;" d="M172.022,297.529c-1.958,0-3.561,1.602-3.561,3.561v7.732l12.416-11.292H172.022z"/>
					<polygon style="fill:#1D262D;" points="209.99,297.529 168.462,335.3 168.462,343.276 218.76,297.529 					"/>
					<polygon style="fill:#1D262D;" points="222.617,297.529 168.462,346.785 168.462,354.761 231.387,297.529 					"/>
					<path style="fill:#1D262D;" d="M237.41,301.089c0-1.55-1.009-2.862-2.398-3.348l-66.55,60.529v2.447
						c0,1.549,1.009,2.862,2.398,3.348l66.55-60.529V301.089z"/>
					<path style="fill:#1D262D;" d="M224.995,364.277h8.855c1.958,0,3.561-1.602,3.561-3.561v-7.732L224.995,364.277z"/>
					<polygon style="fill:#1D262D;" points="237.41,341.5 212.367,364.277 221.137,364.277 237.41,349.476 					"/>
					<polygon style="fill:#1D262D;" points="237.41,330.015 199.74,364.277 208.509,364.277 237.41,337.991 					"/>
					<polygon style="fill:#F9FBFC;" points="180.877,297.529 168.462,308.821 168.462,312.33 184.735,297.529 					"/>
					<polygon style="fill:#F9FBFC;" points="193.505,297.529 168.462,320.306 168.462,323.815 197.363,297.529 					"/>
					<polygon style="fill:#F9FBFC;" points="206.132,297.529 168.462,331.791 168.462,335.3 209.99,297.529 					"/>
					<polygon style="fill:#F9FBFC;" points="218.76,297.529 168.462,343.276 168.462,346.785 222.617,297.529 					"/>
					<path style="fill:#F9FBFC;" d="M233.85,297.529h-2.462l-62.926,57.232v3.509l66.55-60.529
						C234.645,297.613,234.258,297.529,233.85,297.529z"/>
					<path style="fill:#F9FBFC;" d="M237.41,303.536l-66.55,60.529c0.366,0.128,0.753,0.212,1.162,0.212h2.463l62.925-57.232
						V303.536z"/>
					<polygon style="fill:#F9FBFC;" points="237.41,315.021 183.254,364.277 187.112,364.277 237.41,318.53 					"/>
					<polygon style="fill:#F9FBFC;" points="237.41,326.506 195.882,364.277 199.74,364.277 237.41,330.015 					"/>
					<polygon style="fill:#F9FBFC;" points="237.41,337.991 208.509,364.277 212.367,364.277 237.41,341.5 					"/>
					<polygon style="fill:#F9FBFC;" points="237.41,349.476 221.137,364.277 224.995,364.277 237.41,352.985 					"/>
				</g>
				<g>
					<rect x="323.772" y="297.529" style="fill:#F9FBFC;" width="5.578" height="66.748"/>
					<rect x="331.804" y="297.529" style="fill:#F9FBFC;" width="5.578" height="66.748"/>
					<rect x="315.74" y="297.529" style="fill:#F9FBFC;" width="5.578" height="66.748"/>
					<path style="fill:#F9FBFC;" d="M295.647,297.529c-1.958,0-3.561,1.602-3.561,3.561v59.627c0,1.958,1.602,3.561,3.561,3.561
						h1.574v-66.748H295.647z"/>
					<rect x="307.707" y="297.529" style="fill:#F9FBFC;" width="5.578" height="66.748"/>
					<rect x="299.675" y="297.529" style="fill:#F9FBFC;" width="5.578" height="66.748"/>
					<rect x="339.836" y="297.529" style="fill:#F9FBFC;" width="5.578" height="66.748"/>
					<rect x="347.868" y="297.529" style="fill:#F9FBFC;" width="5.578" height="66.748"/>
					<path style="fill:#F9FBFC;" d="M357.475,297.529H355.9v66.748h1.574c1.958,0,3.56-1.602,3.56-3.561v-59.627
						C361.035,299.131,359.433,297.529,357.475,297.529z"/>
					<rect x="297.221" y="297.529" style="fill:#1D262D;" width="2.454" height="66.748"/>
					<rect x="305.254" y="297.529" style="fill:#1D262D;" width="2.454" height="66.748"/>
					<rect x="313.286" y="297.529" style="fill:#1D262D;" width="2.454" height="66.748"/>
					<rect x="321.318" y="297.529" style="fill:#1D262D;" width="2.454" height="66.748"/>
					<rect x="329.35" y="297.529" style="fill:#1D262D;" width="2.454" height="66.748"/>
					<rect x="337.382" y="297.529" style="fill:#1D262D;" width="2.454" height="66.748"/>
					<rect x="345.414" y="297.529" style="fill:#1D262D;" width="2.454" height="66.748"/>
					<rect x="353.447" y="297.529" style="fill:#1D262D;" width="2.454" height="66.748"/>
				</g>
			</g>
			<g>
				<path style="fill:#EFEFEF;" d="M260.001,358.54l-23.779-23.779c-2.611-2.611-2.611-6.884,0-9.495l23.779-23.779
					c2.611-2.611,6.884-2.611,9.495,0l23.779,23.779c2.611,2.611,2.611,6.884,0,9.495l-23.779,23.779
					C266.885,361.151,262.612,361.151,260.001,358.54z"/>
				<path style="fill:#898F9B;" d="M267.496,332.761c-1.518,1.517-3.978,1.517-5.495,0c-1.517-1.518-1.517-3.978,0-5.495
					c1.517-1.517,3.978-1.517,5.495,0C269.013,328.784,269.013,331.244,267.496,332.761z"/>
			</g>
		</g>
	</g>
</g>
</svg>
