<?xml version="1.0" encoding="utf-8"?>
<!-- Generator: Adobe Illustrator 27.5.0, SVG Export Plug-In . SVG Version: 6.00 Build 0)  -->
<svg version="1.1" id="Layer_1" xmlns="http://www.w3.org/2000/svg" xmlns:xlink="http://www.w3.org/1999/xlink" x="0px" y="0px"
	 viewBox="0 0 1350 900" style="enable-background:new 0 0 1350 900;" xml:space="preserve">
<rect style="fill:#FFFFFF;" width="1350" height="900"/>
<g>
	<g>
		<g>
			<path style="fill:#8DCCB5;" d="M1218.785,773.686c-61.19,38.516-42.788,5.126-105.934,5.755
				c-175.912,1.754-973.095,31.904-983.792,15.122c-2.578-4.043-26.849-40.033-28.976-44.396
				c-14.872-30.615-18.133-68.068-5.033-99.033c15.804-37.381,38.177-55.711,27.169-97.98c-7.189-27.582-6.981-46.726-2.052-64.447
				c1.424-5.106,3.229-10.068,5.385-15.102c1.3-3.053,2.722-6.117,4.26-9.242c1.011-2.074,2.085-4.177,3.187-6.313
				c1.62-3.104,3.312-6.282,5.095-9.572c0.918-1.681,1.847-3.404,2.805-5.157c0.857-1.568,1.734-3.168,2.622-4.786
				c0.04-0.083,0.082-0.176,0.132-0.259c1.705-3.124,3.467-6.375,5.262-9.747c0.041-0.073,0.082-0.144,0.113-0.217
				c3.229-6.076,4.818-11.036,5.56-15.658c1.485-9.221-0.391-17.03,0.557-29.242c1.27-16.122,8.841-17.061,11.769-26.076
				c3.549-10.933,3.436-21.98,2.053-33.027c-0.093-0.826-0.206-1.641-0.32-2.466h0.702c0.165-1.176,0.266-2.341,0.359-3.518
				c0.063-1.02,0.114-2.031,0.136-3.053c0.019-0.99,0.019-1.981,0-2.971c-0.022-0.846-0.052-1.702-0.113-2.548
				c-0.125-2.321-0.352-4.652-0.661-6.983v-0.009c0.484-3.064,0.712-6.138,0.773-9.222c0.041-2.001,0.01-4.023-0.113-6.024
				c-0.311-6.25-1.24-12.512-2.322-18.763c-0.341-2.011-0.712-4.023-1.073-6.035c-0.291-1.567-0.579-3.135-0.857-4.702
				c0.723-2.105,1.579-4.199,2.589-6.283c1.206-2.464,2.6-5.054,4.165-7.766c1.126-1.95,2.354-3.971,3.654-6.035
				c3.714-5.921,8.097-12.244,12.965-18.763c1.466-1.991,3.002-4.001,4.57-6.024c4.787-6.179,9.954-12.492,15.348-18.763
				c1.723-2.011,3.477-4.023,5.25-6.024c5.685-6.416,11.554-12.728,17.452-18.762c1.982-2.053,3.981-4.065,5.982-6.034
				c6.892-6.809,13.73-13.162,20.28-18.753c2.485-2.136,4.92-4.146,7.303-6.034c6.332-5.034,12.262-9.201,17.544-12.213
				c5.993-3.414,12.017-5.477,18.093-6.549c7.964-1.414,15.988-1.135,24.074,0c26.396,3.661,53.474,16.339,81.013,8.829
				c0.619-0.165,1.228-0.339,1.848-0.526c1.65-0.505,3.32-1.052,4.991-1.651c8.243-2.919,16.66-6.849,25.005-11.305
				c1.103-0.588,2.215-1.186,3.311-1.794c0.411-0.227,0.845-0.464,1.248-0.691c1.113-0.619,2.207-1.249,3.311-1.878
				c8.623-4.93,17.038-10.253,25.014-15.411c1.939-1.258,3.857-2.506,5.747-3.734c1.793-1.175,3.567-2.33,5.299-3.476
				c6.118-3.992,11.677-7.87,17.052-11.419c3.257-2.155,6.446-4.177,9.643-6.024c9.263-5.374,18.62-9.283,30.006-10.573
				c0.351-0.031,0.713-0.073,1.063-0.103c0.433-0.051,0.856-0.083,1.3-0.114c0.041,0,0.071-0.01,0.112-0.01
				c0.837-0.062,1.682-0.114,2.537-0.154c0.403-0.032,0.805-0.042,1.218-0.042c0.639-0.021,1.28-0.031,1.93-0.031
				c0.525,0,1.05,0,1.588,0.01c1.351,0.031,2.723,0.082,4.126,0.175c10.84,0.733,20.651,6.014,30.531,10.842
				c4.674,2.29,9.366,4.477,14.205,6.024c1.145,0.371,2.289,0.702,3.445,0.991c14.811,3.713,20.227,2.413,29.716-0.991
				c3.352-1.197,7.22-2.661,12.172-4.259c1.96-0.629,3.951-1.228,5.951-1.764c18.093-4.942,37.589-6.168,55.669-1.454
				c1.786,0.465,3.548,0.948,5.313,1.454c6.199,1.764,12.327,3.775,18.392,6.024c9.942,3.693,19.7,8.005,29.283,12.863
				c2.548-0.939,5.075-1.795,7.602-2.589c2.291-0.713,4.59-1.372,6.869-1.98c9.181-2.424,18.175-3.931,26.904-4.683
				c0.897-0.082,1.784-0.145,2.67-0.206c0.837-0.062,1.68-0.114,2.518-0.155c0.897-0.051,1.793-0.093,2.681-0.134
				c9.344-0.341,18.341,0.134,26.901,1.186c1.485,0.186,2.971,0.382,4.445,0.599c23.394,3.497,43.201,11.161,57.269,17.783
				c4.652,2.186,8.675,4.26,11.997,6.024c6.137,3.27,9.861,5.498,10.717,5.498c16.092,0.774,31.409,5.188,45.954,13.264
				c1.248,0.691,2.474,1.402,3.7,2.146c2.065,1.248,4.056,2.537,6.015,3.877c8.097,5.561,15.266,11.904,21.858,18.764
				c1.897,1.97,3.733,3.981,5.549,6.024c5.282,6.003,10.23,12.305,15.039,18.763c1.496,2.001,2.96,4.012,4.434,6.034
				c4.52,6.22,8.966,12.512,13.535,18.763c1.463,2.011,2.939,4.023,4.445,6.024c4.807,6.416,9.79,12.729,15.154,18.762
				c1.092,1.238,2.194,2.456,3.319,3.663c0.734,0.794,1.476,1.578,2.229,2.362c6.096,6.437,12.441,12.626,18.836,18.763
				c2.083,2.011,4.176,4.012,6.272,6.024c6.426,6.159,12.852,12.348,19.061,18.763c1.795,1.846,3.569,3.714,5.321,5.601
				c0.134,0.145,0.269,0.289,0.392,0.433c5.426,5.941,9.254,12.233,11.965,18.763c0.835,1.99,1.569,3.992,2.188,6.024
				c0.381,1.166,0.721,2.331,1.022,3.507c6.693,25.24,1.248,53.039,10.056,77.568c2.941,8.211,7.489,16.06,14.616,23.322
				c3.363,3.445,6.829,6.89,10.337,10.376l2.063,2.063c0.431,0.423,0.867,0.847,1.297,1.28c0.414,0.412,0.837,0.824,1.248,1.247
				c1.661,1.651,3.322,3.301,4.992,4.972c3.281,3.27,6.572,6.581,9.851,9.964l0.248,0.259c1.547,1.578,3.075,3.166,4.589,4.786
				c1.632,1.701,3.24,3.414,4.85,5.157c1.259,1.372,2.537,2.764,3.785,4.167c1.599,1.773,3.187,3.569,4.754,5.404
				c2.518,2.909,4.994,5.88,7.419,8.912c1.753,2.177,3.477,4.394,5.168,6.643c3.65,4.859,7.156,9.871,10.478,15.102
				c14.76,23.156,25.963,50.305,29.582,84.055C1256.535,643.224,1289.254,729.333,1218.785,773.686z"/>
			<path style="fill:#AAE7F7;" d="M1178.36,438.536H143.522c0.04-0.083,0.082-0.176,0.132-0.259
				c1.705-3.124,3.467-6.375,5.262-9.747c0.041-0.073,0.082-0.144,0.113-0.217c3.229-6.076,4.818-11.036,5.56-15.658
				c1.485-9.221-0.391-17.03,0.557-29.242c1.27-16.122,8.841-17.061,11.769-26.076c3.549-10.933,3.436-21.98,2.053-33.027
				c0.155-0.815,0.289-1.641,0.382-2.466c0.165-1.176,0.266-2.341,0.359-3.518c0.063-1.02,0.114-2.031,0.136-3.053
				c0.019-0.99,0.019-1.981,0-2.971c-0.022-0.846-0.052-1.702-0.113-2.548c-0.125-2.321-0.352-4.652-0.661-6.983v-0.009
				c0.484-3.064,0.712-6.138,0.773-9.222c0.041-2.001,0.01-4.023-0.113-6.024c-0.311-6.25-1.24-12.512-2.322-18.763
				c-0.341-2.011-0.712-4.023-1.073-6.035c-0.291-1.567-0.579-3.135-0.857-4.702c0.723-2.105,1.579-4.199,2.589-6.283
				c1.206-2.464,2.6-5.054,4.165-7.766c1.126-1.95,2.354-3.971,3.654-6.035c3.714-5.921,8.097-12.244,12.965-18.763
				c1.466-1.991,3.002-4.001,4.57-6.024c4.787-6.179,9.954-12.492,15.348-18.763c1.723-2.011,3.477-4.023,5.25-6.024
				c5.685-6.416,11.554-12.728,17.452-18.762c1.982-2.053,3.981-4.065,5.982-6.034c6.892-6.809,13.73-13.162,20.28-18.753
				c2.485-2.136,4.92-4.146,7.303-6.034c6.332-5.034,12.262-9.201,17.544-12.213c5.993-3.414,12.017-5.477,18.093-6.549
				c7.964-1.414,15.988-1.135,24.074,0c26.396,3.661,53.474,16.339,81.013,8.829c0.619-0.165,1.228-0.339,1.848-0.526
				c1.65-0.505,3.32-1.052,4.991-1.651c8.243-2.919,16.66-6.849,25.005-11.305c1.103-0.588,2.215-1.186,3.311-1.794
				c0.411-0.227,0.845-0.464,1.248-0.691c1.113-0.619,2.207-1.249,3.311-1.878c8.623-4.93,17.038-10.253,25.014-15.411
				c1.939-1.258,3.857-2.506,5.747-3.734c1.793-1.175,3.567-2.33,5.299-3.476c6.118-3.992,11.677-7.87,17.052-11.419
				c3.257-2.155,6.446-4.177,9.643-6.024c9.263-5.374,18.62-9.283,30.006-10.573c0.351-0.031,0.713-0.073,1.063-0.103
				c0.433-0.051,0.856-0.083,1.3-0.114c0.041,0,0.071-0.01,0.112-0.01c0.837-0.062,1.682-0.114,2.537-0.154
				c0.403-0.032,0.805-0.042,1.218-0.042c0.639-0.021,1.28-0.031,1.93-0.031c0.525,0,1.05,0,1.588,0.01
				c1.351,0.031,2.723,0.082,4.126,0.175c10.84,0.733,20.651,6.014,30.531,10.842c4.674,2.29,9.366,4.477,14.205,6.024
				c1.145,0.371,2.289,0.702,3.445,0.991c14.811,3.713,20.227,2.413,29.716-0.991c3.352-1.197,7.22-2.661,12.172-4.259
				c1.96-0.629,3.951-1.228,5.951-1.764c18.093-4.942,37.589-6.168,55.669-1.454c1.786,0.465,3.548,0.948,5.313,1.454
				c6.199,1.764,12.327,3.775,18.392,6.024c9.942,3.693,19.7,8.005,29.283,12.863c2.548-0.939,5.075-1.795,7.602-2.589
				c2.291-0.713,4.59-1.372,6.869-1.98c9.181-2.424,18.175-3.931,26.904-4.683c0.897-0.082,1.784-0.145,2.67-0.206
				c0.837-0.062,1.68-0.114,2.518-0.155c0.897-0.051,1.793-0.093,2.681-0.134c9.344-0.341,18.341,0.134,26.901,1.186
				c1.485,0.186,2.971,0.382,4.445,0.599c23.394,3.497,43.201,11.161,57.269,17.783c4.652,2.186,8.675,4.26,11.997,6.024
				c6.137,3.27,9.861,5.498,10.717,5.498c16.092,0.774,31.409,5.188,45.954,13.264c1.248,0.691,2.474,1.402,3.7,2.146
				c2.065,1.248,4.056,2.537,6.015,3.877c8.097,5.561,15.266,11.904,21.858,18.764c1.897,1.97,3.733,3.981,5.549,6.024
				c5.282,6.003,10.23,12.305,15.039,18.763c1.496,2.001,2.96,4.012,4.434,6.034c4.52,6.22,8.966,12.512,13.535,18.763
				c1.463,2.011,2.939,4.023,4.445,6.024c4.807,6.416,9.79,12.729,15.154,18.762c1.092,1.238,2.194,2.456,3.319,3.663
				c0.734,0.794,1.476,1.578,2.229,2.362c6.096,6.437,12.441,12.626,18.836,18.763c2.083,2.011,4.176,4.012,6.272,6.024
				c6.426,6.159,12.852,12.348,19.061,18.763c1.795,1.846,3.569,3.714,5.321,5.601c0.134,0.145,0.269,0.289,0.392,0.433
				c5.426,5.941,9.254,12.233,11.965,18.763c0.835,1.99,1.569,3.992,2.188,6.024c0.381,1.166,0.721,2.331,1.022,3.507
				c6.693,25.24,1.248,53.039,10.056,77.568c2.941,8.211,7.489,16.06,14.616,23.322c3.363,3.445,6.829,6.89,10.337,10.376
				l2.063,2.063h2.546v2.528c1.661,1.651,3.322,3.301,4.992,4.972c3.281,3.27,6.572,6.581,9.851,9.964L1178.36,438.536z"/>
			<g>
				<g>
					<g>
						<g>
							<path style="fill:#FCFBED;" d="M440.92,113.566c-1.096,0.609-2.208,1.207-3.311,1.794
								c-8.346,4.456-16.763,8.386-25.005,11.305v285.99H154.588c-0.742,4.621-2.332,9.582-5.56,15.658
								c-0.03,0.073-0.071,0.144-0.113,0.217c-1.795,3.372-3.558,6.623-5.262,9.747c-0.049,0.083-0.092,0.176-0.132,0.259
								c-0.889,1.619-1.765,3.218-2.622,4.786h301.269V112.875C441.765,113.102,441.331,113.339,440.92,113.566z"/>
							<path style="fill:#FCFBED;" d="M798.165,80.569c-8.726,0.752-17.72,2.259-26.904,4.683v327.404H470.492V95.587
								c-7.97,5.158-16.396,10.48-25.011,15.411c-1.103,0.629-2.199,1.258-3.313,1.878c-0.408,0.226-0.835,0.464-1.252,0.691
								v329.757H800.84V80.362C799.944,80.424,799.058,80.486,798.165,80.569z"/>
						</g>
						<g>
							<path style="fill:#FCFBED;" d="M1160.722,420.814l-2.063-2.063c-3.508-3.487-6.974-6.931-10.337-10.376
								c-7.128-7.261-11.676-15.111-14.616-23.322v27.602H832.935V81.259c-8.56-1.052-17.557-1.527-26.901-1.186
								c-0.889,0.041-1.784,0.082-2.681,0.134v363.115h359.914v-22.508H1160.722z"/>
							<path style="fill:#FFFFFF;" d="M1182.949,443.323h-20.929v-22.508h1.248v2.528c1.661,1.651,3.322,3.301,4.992,4.972
								c3.281,3.27,6.572,6.581,9.851,9.964l0.248,0.259C1179.907,440.114,1181.434,441.702,1182.949,443.323z"/>
						</g>
						<path style="fill:#E5E1CA;" d="M445.482,110.997v332.325h-7.868V115.36c1.093-0.588,2.208-1.186,3.303-1.794
							c0.417-0.227,0.845-0.464,1.252-0.691C443.283,112.256,444.379,111.626,445.482,110.997z"/>
						<path style="fill:#E5E1CA;" d="M806.033,80.074v363.249h-7.868V80.569c0.893-0.082,1.779-0.145,2.674-0.206
							c0.835-0.062,1.683-0.114,2.517-0.155C804.252,80.156,805.146,80.115,806.033,80.074z"/>
					</g>
					<g>
						<path style="fill:#BACCCE;" d="M1123.648,307.485H837.38V81.858c23.398,3.497,43.196,11.161,57.271,17.783
							c4.647,2.186,8.676,4.26,11.988,6.024c6.14,3.27,9.869,5.498,10.725,5.498c16.086,0.774,31.407,5.188,45.954,13.264
							c1.241,0.691,2.477,1.402,3.698,2.146c2.061,1.248,4.06,2.537,6.01,3.877c8.097,5.561,15.27,11.904,21.867,18.764
							c1.89,1.97,3.732,3.981,5.541,6.024c5.283,6.003,10.237,12.305,15.043,18.763c1.492,2.001,2.964,4.012,4.437,6.034
							c4.516,6.22,8.963,12.512,13.53,18.763c1.462,2.011,2.946,4.023,4.446,6.024c4.806,6.416,9.79,12.729,15.152,18.762
							c1.093,1.238,2.197,2.456,3.322,3.663c0.736,0.794,1.473,1.578,2.229,2.362c6.098,6.437,12.445,12.626,18.832,18.763
							c2.09,2.011,4.179,4.012,6.277,6.024c6.427,6.159,12.855,12.348,19.061,18.763c1.793,1.846,3.573,3.714,5.323,5.601
							c0.129,0.145,0.269,0.289,0.39,0.433c5.431,5.941,9.252,12.233,11.966,18.763c0.837,1.99,1.562,3.992,2.189,6.024
							C1123.01,305.144,1123.347,306.309,1123.648,307.485z"/>
						<g>
							<path style="fill:#DFE9EA;" d="M894.652,99.641H837.38V81.858C860.778,85.355,880.576,93.019,894.652,99.641z"/>
							<path style="fill:#DFE9EA;" d="M963.319,124.427H837.38v-18.763h69.26c6.14,3.27,9.869,5.498,10.725,5.498
								C933.452,111.936,948.773,116.351,963.319,124.427z"/>
							<path style="fill:#DFE9EA;" d="M994.894,149.214H837.38V130.45h135.646C981.124,136.011,988.297,142.354,994.894,149.214z"/>
							<path style="fill:#DFE9EA;" d="M1015.477,174.001H837.38v-18.763h163.054
								C1005.718,161.241,1010.671,167.543,1015.477,174.001z"/>
							<path style="fill:#DFE9EA;" d="M1033.444,198.798H837.38v-18.763h182.533C1024.43,186.255,1028.877,192.547,1033.444,198.798
								z"/>
							<path style="fill:#DFE9EA;" d="M1053.043,223.584H837.38v-18.762h200.51C1042.696,211.237,1047.68,217.55,1053.043,223.584z"
								/>
							<path style="fill:#DFE9EA;" d="M1077.425,248.371H837.38v-18.763h221.213
								C1064.691,236.044,1071.038,242.233,1077.425,248.371z"/>
							<path style="fill:#DFE9EA;" d="M1102.764,273.157H837.38v-18.763h246.322
								C1090.129,260.553,1096.558,266.742,1102.764,273.157z"/>
							<path style="fill:#DFE9EA;" d="M1120.442,297.955H837.38v-18.763h271.096
								C1113.907,285.133,1117.728,291.425,1120.442,297.955z"/>
							<path style="fill:#DFE9EA;" d="M1123.648,307.485H837.38v-3.507h285.251C1123.01,305.144,1123.347,306.309,1123.648,307.485z
								"/>
						</g>
					</g>
					<g>
						<path style="fill:#BACCCE;" d="M405.767,128.842v193.001H169.353c0.16-1.176,0.269-2.341,0.359-3.518
							c0.06-1.02,0.108-2.031,0.128-3.053c0.019-0.99,0.019-1.981,0-2.971c-0.019-0.846-0.049-1.702-0.107-2.548
							c-0.13-2.321-0.348-4.652-0.658-6.983v-0.009c0.477-3.064,0.706-6.138,0.765-9.222c0.041-2.001,0.012-4.023-0.107-6.024
							c-0.309-6.25-1.236-12.512-2.319-18.763c-0.348-2.011-0.716-4.023-1.075-6.035c-0.288-1.567-0.576-3.135-0.857-4.702
							c0.719-2.105,1.573-4.199,2.589-6.283c1.204-2.464,2.598-5.054,4.165-7.766c1.128-1.95,2.352-3.971,3.654-6.035
							c3.711-5.921,8.097-12.244,12.962-18.763c1.474-1.991,3.005-4.001,4.578-6.024c4.785-6.179,9.949-12.492,15.34-18.763
							c1.729-2.011,3.484-4.023,5.251-6.024c5.681-6.416,11.552-12.728,17.45-18.762c1.99-2.053,3.99-4.065,5.989-6.034
							c6.884-6.809,13.729-13.162,20.275-18.753c2.487-2.136,4.925-4.146,7.302-6.034c6.336-5.034,12.267-9.201,17.548-12.213
							c5.991-3.414,12.018-5.477,18.097-6.549c7.96-1.414,15.988-1.135,24.075,0C351.151,123.674,378.22,136.352,405.767,128.842z"
							/>
						<g>
							<path style="fill:#DFE9EA;" d="M405.767,128.842v9.934h-140.73c6.336-5.034,12.267-9.201,17.548-12.213
								c5.991-3.414,12.018-5.477,18.097-6.549h24.075C351.151,123.674,378.22,136.352,405.767,128.842z"/>
							<path style="fill:#DFE9EA;" d="M405.767,144.81v18.753H237.46c6.884-6.809,13.729-13.162,20.275-18.753H405.767z"/>
							<path style="fill:#DFE9EA;" d="M405.767,169.596v18.762H214.021c5.681-6.416,11.552-12.728,17.45-18.762H405.767z"/>
							<path style="fill:#DFE9EA;" d="M405.767,194.383v18.763H193.429c4.785-6.179,9.949-12.492,15.34-18.763H405.767z"/>
							<path style="fill:#DFE9EA;" d="M405.767,219.169v18.763H175.889c3.711-5.921,8.097-12.244,12.962-18.763H405.767z"/>
							<path style="fill:#DFE9EA;" d="M405.767,243.967v18.751H166.338c-0.288-1.567-0.576-3.135-0.857-4.702
								c0.719-2.105,1.573-4.199,2.589-6.283c1.204-2.464,2.598-5.054,4.165-7.766H405.767z"/>
							<path style="fill:#DFE9EA;" d="M405.767,268.753v18.763H169.732c-0.309-6.25-1.236-12.512-2.319-18.763H405.767z"/>
							<path style="fill:#DFE9EA;" d="M405.767,293.54v18.762H169.839c-0.019-0.846-0.049-1.702-0.107-2.548
								c-0.13-2.321-0.348-4.652-0.658-6.983v-0.009c0.477-3.064,0.706-6.138,0.765-9.222H405.767z"/>
							<path style="fill:#DFE9EA;" d="M405.767,318.326v3.518H169.353c0.16-1.176,0.269-2.341,0.359-3.518H405.767z"/>
						</g>
					</g>
					<g>
						<path style="fill:#BACCCE;" d="M764.389,87.232v166.76H476.233V91.853c1.801-1.175,3.57-2.33,5.311-3.476
							c6.11-3.992,11.671-7.87,17.041-11.419c3.264-2.155,6.449-4.177,9.65-6.024c9.263-5.374,18.615-9.283,30.006-10.573
							c0.348-0.031,0.706-0.073,1.064-0.103c0.428-0.051,0.856-0.083,1.293-0.114c0.04,0,0.08-0.01,0.119-0.01
							c0.837-0.062,1.68-0.114,2.537-0.154c0.398-0.032,0.805-0.042,1.214-0.042c0.638-0.021,1.285-0.031,1.931-0.031
							c0.527,0,1.053,0,1.591,0.01c1.344,0.031,2.716,0.082,4.117,0.175c10.844,0.733,20.654,6.014,30.532,10.842
							c4.675,2.29,9.371,4.477,14.206,6.024c1.145,0.371,2.29,0.702,3.452,0.991c14.804,3.713,20.226,2.413,29.715-0.991
							c3.355-1.197,7.214-2.661,12.169-4.259c1.96-0.629,3.949-1.228,5.948-1.764c18.097-4.942,37.596-6.168,55.672-1.454
							c1.78,0.465,3.551,0.948,5.312,1.454c6.198,1.764,12.327,3.775,18.396,6.024c9.938,3.693,19.696,8.005,29.276,12.863
							C759.335,88.882,761.86,88.026,764.389,87.232z"/>
						<g>
							<path style="fill:#DFE9EA;" d="M582.64,70.935h-74.405c9.263-5.374,18.615-9.283,30.006-10.573
								c0.348-0.031,0.706-0.073,1.064-0.103c0.428-0.051,0.856-0.083,1.293-0.114c0.04,0,0.08-0.01,0.119-0.01
								c0.837-0.062,1.68-0.114,2.537-0.154c0.398-0.032,0.805-0.042,1.214-0.042c0.638-0.021,1.285-0.031,1.931-0.031
								c0.527,0,1.053,0,1.591,0.01c1.344,0.031,2.716,0.082,4.117,0.175C562.952,60.826,572.761,66.107,582.64,70.935z"/>
							<path style="fill:#DFE9EA;" d="M709.115,70.935h-60.984c18.097-4.942,37.596-6.168,55.672-1.454
								C705.583,69.945,707.354,70.428,709.115,70.935z"/>
							<path style="fill:#DFE9EA;" d="M764.389,87.232v8.489H476.233v-3.868c1.801-1.175,3.57-2.33,5.311-3.476
								c6.11-3.992,11.671-7.87,17.041-11.419h98.261c1.145,0.371,2.29,0.702,3.452,0.991c14.804,3.713,20.226,2.413,29.715-0.991
								h97.497c9.938,3.693,19.696,8.005,29.276,12.863C759.335,88.882,761.86,88.026,764.389,87.232z"/>
							<rect x="476.233" y="101.75" style="fill:#DFE9EA;" width="288.16" height="18.762"/>
							<rect x="476.233" y="126.54" style="fill:#DFE9EA;" width="288.16" height="18.761"/>
							<rect x="476.233" y="151.33" style="fill:#DFE9EA;" width="288.16" height="18.759"/>
							<rect x="476.233" y="176.118" style="fill:#DFE9EA;" width="288.16" height="18.761"/>
							<rect x="476.233" y="200.907" style="fill:#DFE9EA;" width="288.16" height="18.761"/>
							<rect x="476.233" y="225.697" style="fill:#DFE9EA;" width="288.16" height="18.761"/>
							<rect x="476.233" y="250.486" style="fill:#DFE9EA;" width="288.16" height="3.509"/>
						</g>
					</g>
					<g>
						<path style="fill:#E5E1CA;" d="M466.031,154.091c0,4.053-3.168,7.34-7.077,7.34l0,0c-3.909,0-7.078-3.287-7.078-7.34v-41.095
							c0-4.053,3.17-7.339,7.078-7.339l0,0c3.909,0,7.077,3.286,7.077,7.339V154.091z"/>
						<path style="fill:#FCFBED;" d="M529.219,133.544c0,4.235-3.314,7.667-7.399,7.667h-60.801c-4.086,0-7.397-3.432-7.397-7.667
							l0,0c0-4.235,3.311-7.667,7.397-7.667h60.801C525.905,125.876,529.219,129.309,529.219,133.544L529.219,133.544z"/>
					</g>
					<g>
						<path style="fill:#E5E1CA;" d="M827.175,154.091c0,4.053-3.168,7.34-7.078,7.34l0,0c-3.91,0-7.077-3.287-7.077-7.34v-41.095
							c0-4.053,3.167-7.339,7.077-7.339l0,0c3.91,0,7.078,3.286,7.078,7.339V154.091z"/>
						<path style="fill:#FCFBED;" d="M890.36,133.544c0,4.235-3.311,7.667-7.397,7.667h-60.804c-4.083,0-7.396-3.432-7.396-7.667
							l0,0c0-4.235,3.314-7.667,7.396-7.667h60.804C887.049,125.876,890.36,129.309,890.36,133.544L890.36,133.544z"/>
					</g>
				</g>
				<path style="fill:#E5E1CA;" d="M1203.756,466.963l-1073.944-2.599c1.011-2.074,2.085-4.177,3.187-6.313
					c1.62-3.104,3.312-6.282,5.095-9.572c0.918-1.681,1.847-3.404,2.805-5.157c0.857-1.568,1.734-3.168,2.622-4.786
					c0.04-0.083,0.082-0.176,0.132-0.259c1.705-3.124,3.467-6.375,5.262-9.747c0.041-0.073,0.082-0.144,0.113-0.217H1168.26
					c3.281,3.27,6.572,6.581,9.851,9.964l0.248,0.259c1.547,1.578,3.075,3.166,4.589,4.786c1.632,1.701,3.24,3.414,4.85,5.157
					c1.259,1.372,2.537,2.764,3.785,4.167c1.599,1.773,3.187,3.569,4.754,5.404C1198.855,460.96,1201.331,463.931,1203.756,466.963z
					"/>
			</g>
			<g>
				<path style="fill:#9BC148;" d="M304.923,329.285c5.73,18.848-16.69,21.419-27.695,27.06
					c-13.527,2.497-17.259,26.714-20.862,26.648c-0.65,0.524-2.115-23.154-1.426-36.579c0.856-6.594,4.031-13.868,11.939-18.253
					C274.555,324.056,290.91,317.292,304.923,329.285z"/>
				<path style="fill:#9BC148;" d="M213.349,342.754c-4.756,15.653,13.861,17.787,23.003,22.472
					c11.23,2.074,14.33,22.185,17.324,22.13c0.542,0.435,1.755-19.228,1.182-30.378c-0.711-5.476-3.346-11.516-9.913-15.159
					C238.571,338.411,224.986,332.794,213.349,342.754z"/>
				<path style="fill:#9BC148;" d="M314.713,373.448c-4.883,17.185-23.006,7.361-34.037,5.835
					c-11.395-5.214-26.015,11.049-28.693,9.109c-0.746,0.053,9.705-18.528,16.77-28.268c3.863-4.513,9.799-8.319,17.886-7.475
					C294.417,353.589,310.021,357.077,314.713,373.448z"/>
				<path style="fill:#B6DB52;" d="M178.713,374.567c12.83,7.661,20.73-14.094,27.944-24.303
					c5.487-13.022,24.911-14.081,25.819-17.63c0.569-0.581-17.068-4.569-27.471-5.34c-5.249,0.133-11.626,2.469-17.061,9.766
					C182.785,344.161,173.297,359.507,178.713,374.567z"/>
				<path style="fill:#B6DB52;" d="M191.219,395.353c11.32,9.896,22.814-10.063,31.657-18.785
					c7.624-11.809,26.924-9.282,28.42-12.607c0.662-0.468-16.015-7.633-26.122-10.302c-5.187-0.835-11.863,0.292-18.46,6.475
					C200.421,366.175,188.463,379.534,191.219,395.353z"/>
				<path style="fill:#B6DB52;" d="M203.094,305.173c-4.053,14.763,18.219,17.432,29.519,22.209
					c13.515,2.359,19.222,21.641,22.763,21.69c0.683,0.432,0.132-18.276-1.669-28.926c-1.4-5.247-5.131-11.096-13.277-14.791
					C232.531,301.89,215.871,296.071,203.094,305.173z"/>
				<path style="fill:#B6DB52;" d="M321.655,298.724c4.056,14.762-18.218,17.43-29.518,22.208
					c-13.516,2.359-19.222,21.639-22.761,21.69c-0.684,0.432-0.134-18.275,1.67-28.926c1.396-5.247,5.131-11.095,13.276-14.791
					C292.219,295.438,308.878,289.622,321.655,298.724z"/>
				<path style="fill:#B6DB52;" d="M334.506,390.419c-11.998,8.994-22.025-11.796-30.218-21.175
					c-6.757-12.364-27.599-9.186-28.854-12.618c-0.627-0.519,9.605-8.939,28.205-10.407c5.234-0.414,11.81,1.209,17.943,7.884
					C327.424,360.612,338.389,374.858,334.506,390.419z"/>
				<path style="fill:#9BC148;" d="M258.417,374.971c0,0,0.1-0.415,0.287-1.193c0.047-0.194,0.097-0.411,0.159-0.65
					c0.033-0.243,0.073-0.507,0.112-0.793c0.087-0.571,0.2-1.221,0.235-1.964c0.027-0.372,0.064-0.759,0.086-1.168
					c0.003-0.41,0.005-0.839,0.007-1.286c0-0.224,0-0.451,0-0.683c-0.012-0.231-0.029-0.468-0.042-0.709
					c-0.033-0.48-0.044-0.979-0.099-1.493c-0.195-2.052-0.614-4.344-1.244-6.79c-0.639-2.445-1.529-5.038-2.692-7.672
					c-0.291-0.656-0.588-1.323-0.927-1.976c-0.167-0.328-0.332-0.658-0.501-0.99c-0.178-0.325-0.361-0.652-0.542-0.981
					c-0.736-1.312-1.536-2.602-2.474-3.839c-1.821-2.428-4.201-4.583-6.934-6.131c-2.742-1.556-5.846-2.518-9.023-2.895
					c-0.782-0.118-1.625-0.165-2.367-0.226c-0.822-0.015-1.645-0.032-2.465-0.047c-0.831-0.04-1.62,0.017-2.414,0.057
					c-0.797,0.053-1.587,0.044-2.378,0.168c-3.175,0.28-6.251,0.987-9.156,1.889c-2.914,0.893-5.612,2.146-8.111,3.443
					c-0.617,0.341-1.227,0.678-1.827,1.009c-0.593,0.346-1.158,0.72-1.728,1.064c-1.151,0.672-2.19,1.445-3.219,2.135
					c-1.016,0.715-1.952,1.457-2.868,2.126c-0.887,0.712-1.731,1.386-2.522,2.02c-0.77,0.662-1.494,1.281-2.164,1.854
					c-0.664,0.578-1.252,1.134-1.797,1.623c-1.088,0.978-1.919,1.775-2.493,2.309c-0.576,0.539-0.881,0.826-0.881,0.826
					s0.28-0.311,0.812-0.895c0.536-0.575,1.286-1.46,2.33-2.498c0.514-0.522,1.074-1.116,1.707-1.737
					c0.636-0.616,1.326-1.282,2.063-1.994c0.76-0.689,1.57-1.42,2.421-2.192c0.886-0.732,1.809-1.514,2.806-2.288
					c1.013-0.745,2.038-1.578,3.178-2.317c0.568-0.379,1.133-0.772,1.731-1.147c0.602-0.359,1.217-0.723,1.835-1.092
					c2.517-1.412,5.254-2.803,8.258-3.77c0.736-0.287,1.505-0.488,2.275-0.705c0.771-0.21,1.54-0.462,2.341-0.602
					c0.79-0.163,1.592-0.328,2.393-0.492c0.812-0.104,1.628-0.208,2.448-0.312c0.816-0.132,1.657-0.132,2.491-0.192
					c0.837-0.046,1.683-0.108,2.495-0.074c0.821,0.011,1.639,0.022,2.463,0.032c0.9,0.064,1.703,0.104,2.558,0.226
					c3.359,0.421,6.679,1.467,9.624,3.163c1.477,0.832,2.835,1.865,4.058,3c1.231,1.145,2.331,2.361,3.294,3.715
					c0.942,1.3,1.777,2.675,2.491,4.055c0.176,0.345,0.354,0.689,0.532,1.029c0.163,0.349,0.321,0.695,0.483,1.04
					c0.331,0.686,0.617,1.379,0.897,2.063c1.123,2.741,1.92,5.437,2.471,7.966c0.551,2.527,0.841,4.892,0.916,6.993
					c0.027,0.525,0.01,1.036,0.018,1.526c0.001,0.246,0.001,0.486,0.001,0.722c-0.014,0.237-0.027,0.468-0.041,0.695
					c-0.03,0.453-0.058,0.888-0.082,1.302c-0.047,0.414-0.108,0.806-0.156,1.18c-0.055,0.373-0.08,0.727-0.158,1.055
					c-0.074,0.327-0.143,0.634-0.207,0.918c-0.067,0.285-0.126,0.547-0.18,0.787c-0.077,0.234-0.147,0.446-0.207,0.636
					C258.548,374.566,258.417,374.971,258.417,374.971z"/>
				<path style="fill:#9BC148;" d="M260.057,378.977c0,0,0.055-0.35,0.159-1.01c0.092-0.658,0.281-1.624,0.61-2.838
					c0.191-0.598,0.348-1.277,0.63-1.987c0.129-0.357,0.266-0.73,0.406-1.117c0.16-0.379,0.329-0.772,0.503-1.179
					c0.719-1.612,1.633-3.41,2.899-5.229c1.252-1.824,2.79-3.708,4.655-5.502c1.86-1.8,4.024-3.534,6.493-5.033
					c0.667-0.401,1.229-0.717,1.905-1.067c0.679-0.337,1.367-0.673,2.064-0.95c0.694-0.311,1.422-0.543,2.144-0.808
					c0.741-0.215,1.476-0.46,2.24-0.624c3.023-0.75,6.219-1.046,9.389-0.944c3.171,0.143,6.32,0.651,9.269,1.642l1.071,0.344
					c0.358,0.126,0.723,0.298,1.079,0.446c0.705,0.324,1.458,0.589,2.094,0.977c0.651,0.372,1.328,0.708,1.95,1.105
					c0.606,0.411,1.212,0.82,1.812,1.225c2.319,1.716,4.253,3.676,5.9,5.634c1.662,1.957,2.946,3.975,4.098,5.841
					c1.105,1.889,2.031,3.658,2.769,5.258c0.378,0.794,0.72,1.542,1.02,2.24c0.306,0.695,0.587,1.333,0.824,1.916
					c0.491,1.157,0.83,2.083,1.074,2.711c0.239,0.627,0.368,0.963,0.368,0.963s-0.654-1.285-1.794-3.535
					c-0.281-0.564-0.61-1.181-0.97-1.85c-0.351-0.673-0.747-1.392-1.185-2.155c-0.857-1.531-1.909-3.214-3.085-5.023
					c-0.311-0.442-0.629-0.893-0.955-1.355c-0.317-0.461-0.654-0.926-1.02-1.38c-0.359-0.459-0.723-0.926-1.094-1.4
					c-0.395-0.456-0.796-0.919-1.201-1.387c-1.672-1.836-3.6-3.632-5.815-5.217c-0.575-0.37-1.152-0.741-1.734-1.117
					c-0.592-0.36-1.233-0.658-1.852-0.995c-0.612-0.358-1.277-0.566-1.92-0.85c-0.328-0.132-0.635-0.283-0.982-0.403l-1.073-0.336
					c-2.761-0.911-5.755-1.37-8.732-1.488c-2.982-0.116-5.988,0.142-8.828,0.825c-1.419,0.333-2.807,0.758-4.124,1.281
					c-0.672,0.25-1.299,0.542-1.917,0.83c-0.609,0.296-1.304,0.665-1.852,0.983c-2.378,1.394-4.527,2.969-6.387,4.641
					c-1.854,1.675-3.444,3.42-4.759,5.13c-1.315,1.714-2.344,3.399-3.175,4.93c-0.2,0.387-0.395,0.76-0.583,1.122
					c-0.169,0.37-0.329,0.725-0.481,1.07c-0.328,0.68-0.538,1.335-0.775,1.915c-0.399,1.175-0.717,2.105-0.871,2.757
					C260.149,378.633,260.057,378.977,260.057,378.977z"/>
				<path style="fill:#9BC148;" d="M259.242,384.807c0,0,0.042-0.352,0.123-1.012c0.014-0.165,0.055-0.35,0.053-0.553
					c0-0.203-0.005-0.425-0.007-0.664c-0.007-0.238,0.001-0.492-0.015-0.764c-0.033-0.272-0.069-0.56-0.104-0.865
					c-0.037-0.612-0.247-1.265-0.394-1.984c-0.233-0.697-0.444-1.463-0.802-2.235c-0.656-1.559-1.586-3.228-2.762-4.933
					c-1.182-1.701-2.625-3.422-4.283-5.095c-0.827-0.838-1.721-1.65-2.668-2.427c-0.047-0.04-0.138-0.123-0.151-0.126l-0.188-0.139
					l-0.383-0.281c-0.254-0.187-0.508-0.377-0.763-0.569c-0.13-0.093-0.258-0.194-0.387-0.282l-0.39-0.237
					c-0.263-0.156-0.525-0.315-0.784-0.474c-2.141-1.251-4.601-2.098-7.158-2.423c-2.565-0.342-5.231-0.094-7.801,0.558
					c-2.583,0.63-5.084,1.655-7.431,2.899c-2.348,1.255-4.573,2.681-6.623,4.221c-2.053,1.537-3.954,3.154-5.685,4.773
					c-1.724,1.625-3.309,3.221-4.706,4.764c-1.387,1.551-2.641,2.995-3.695,4.328c-1.064,1.322-1.935,2.526-2.646,3.524
					c-0.689,1.012-1.248,1.796-1.595,2.357c-0.359,0.553-0.549,0.847-0.549,0.847s0.163-0.312,0.468-0.898
					c0.3-0.589,0.761-1.442,1.395-2.502c1.28-2.107,3.187-5.086,5.87-8.35c1.332-1.641,2.864-3.344,4.566-5.059
					c1.701-1.716,3.576-3.451,5.658-5.067c2.078-1.619,4.323-3.185,6.767-4.493c2.436-1.315,5.054-2.419,7.8-3.108
					c2.746-0.672,5.626-0.921,8.413-0.53c2.797,0.368,5.43,1.381,7.732,2.788c0.289,0.184,0.575,0.367,0.857,0.55l0.425,0.276
					c0.134,0.094,0.255,0.195,0.381,0.292c0.251,0.198,0.502,0.393,0.75,0.589l0.372,0.294l0.185,0.147
					c0.111,0.088,0.133,0.117,0.206,0.18c0.959,0.853,1.853,1.729,2.677,2.63c1.661,1.785,3.057,3.641,4.187,5.46
					c1.137,1.814,1.978,3.613,2.542,5.272c0.309,0.818,0.476,1.629,0.665,2.36c0.099,0.755,0.265,1.433,0.262,2.068
					c0.015,0.314,0.031,0.611,0.044,0.89c-0.005,0.281-0.038,0.546-0.055,0.789c-0.022,0.242-0.038,0.467-0.056,0.672
					c-0.016,0.205-0.073,0.383-0.103,0.546C259.319,384.462,259.242,384.807,259.242,384.807z"/>
				<path style="fill:#9BC148;" d="M251.417,391.901c0,0,0.097-0.041,0.284-0.125c0.184-0.09,0.455-0.229,0.773-0.461
					c0.65-0.449,1.459-1.319,2.183-2.622c0.721-1.302,1.35-3.027,1.828-5.067c0.484-2.04,0.816-4.394,1.064-6.971
					c0.239-2.581,0.337-5.39,0.348-8.361c0-1.485-0.031-3.012-0.107-4.566c-0.034-0.786-0.084-1.546-0.154-2.349
					c-0.062-0.804-0.129-1.602-0.211-2.4c-0.314-3.213-0.824-6.518-1.547-9.818c-0.706-3.305-1.677-6.599-2.894-9.784
					c-1.215-3.186-2.695-6.263-4.44-9.101c-1.747-2.836-3.721-5.457-5.885-7.745c-2.166-2.288-4.488-4.265-6.848-5.902
					c-2.363-1.631-4.755-2.929-7.046-3.935c-2.294-0.995-4.478-1.716-6.449-2.223c-1.971-0.502-3.728-0.789-5.18-0.951
					c-1.456-0.158-2.609-0.226-3.393-0.243c-0.787-0.021-1.204-0.015-1.204-0.015s0.414-0.042,1.203-0.086
					c0.786-0.042,1.948-0.095,3.421-0.014c2.935,0.152,7.191,0.691,11.975,2.549c2.395,0.916,4.906,2.152,7.388,3.766
					c2.488,1.604,4.955,3.578,7.232,5.915c2.279,2.331,4.4,4.997,6.213,7.933c1.82,2.932,3.385,6.096,4.633,9.385
					c1.236,3.292,2.209,6.685,2.912,10.074c0.71,3.389,1.149,6.768,1.417,10.051c0.276,3.268,0.318,6.475,0.232,9.477
					c-0.078,3.01-0.315,5.851-0.654,8.458c-0.675,5.204-1.937,9.502-3.577,12.099c-0.808,1.304-1.725,2.114-2.411,2.523
					c-0.34,0.211-0.624,0.332-0.812,0.406C251.518,391.867,251.417,391.901,251.417,391.901z"/>
				<path style="fill:#9BC148;" d="M259.196,385.049c0,0-0.011-0.409-0.03-1.176c-0.001-0.768-0.081-1.891-0.026-3.326
					c0.014-0.718,0.019-1.514,0.053-2.38c0.044-0.865,0.092-1.799,0.145-2.799c0.065-0.998,0.166-2.059,0.261-3.18
					c0.104-1.118,0.278-2.286,0.421-3.512c0.192-1.217,0.384-2.488,0.616-3.798c0.265-1.302,0.496-2.66,0.841-4.032
					c0.605-2.763,1.436-5.629,2.389-8.561c0.994-2.916,2.131-5.895,3.474-8.837c1.366-2.93,2.887-5.838,4.562-8.655
					c1.717-2.788,3.581-5.478,5.545-8.019c1.987-2.521,4.112-4.856,6.261-7.011c2.188-2.114,4.378-4.074,6.598-5.736
					c0.273-0.214,0.547-0.425,0.815-0.636c0.28-0.198,0.557-0.394,0.83-0.589c0.549-0.389,1.088-0.772,1.62-1.149
					c1.092-0.705,2.145-1.392,3.175-2.013c1.052-0.586,2.026-1.201,3.008-1.689c0.982-0.484,1.893-0.978,2.78-1.377
					c0.886-0.394,1.716-0.765,2.487-1.107c0.779-0.308,1.495-0.589,2.144-0.844c0.326-0.128,0.632-0.247,0.92-0.359
					c0.295-0.097,0.568-0.188,0.826-0.274c0.513-0.165,0.948-0.308,1.303-0.422c0.706-0.23,1.082-0.353,1.082-0.353
					s-0.363,0.154-1.051,0.445c-0.682,0.303-1.699,0.684-2.95,1.291c-0.628,0.293-1.323,0.618-2.081,0.974
					c-0.738,0.388-1.54,0.808-2.395,1.257c-1.691,0.934-3.56,2.054-5.55,3.349c-0.99,0.659-1.997,1.383-3.039,2.125
					c-0.507,0.39-1.027,0.785-1.551,1.188c-0.265,0.2-0.528,0.402-0.795,0.606c-0.258,0.215-0.52,0.431-0.781,0.65
					c-0.524,0.438-1.056,0.881-1.592,1.328c-0.516,0.471-1.041,0.949-1.572,1.43c-0.265,0.241-0.529,0.485-0.798,0.728
					c-0.258,0.253-0.517,0.509-0.779,0.765c-0.523,0.514-1.049,1.033-1.579,1.557c-2.074,2.144-4.077,4.499-6.021,6.965
					c-1.908,2.5-3.711,5.145-5.379,7.883c-1.654,2.746-3.165,5.586-4.521,8.448c-1.319,2.881-2.526,5.765-3.549,8.617
					c-0.241,0.718-0.483,1.43-0.72,2.134c-0.242,0.704-0.471,1.406-0.676,2.106c-0.21,0.699-0.421,1.391-0.628,2.074
					c-0.187,0.69-0.369,1.372-0.549,2.044c-0.385,1.34-0.645,2.672-0.963,3.947c-0.281,1.281-0.528,2.527-0.768,3.722
					c-0.199,1.203-0.395,2.357-0.579,3.454c-0.156,1.1-0.322,2.145-0.45,3.131c-0.107,0.988-0.213,1.913-0.309,2.768
					c-0.084,0.855-0.134,1.644-0.193,2.356c-0.126,1.423-0.166,2.552-0.217,3.317C259.216,384.64,259.196,385.049,259.196,385.049z"
					/>
				<g>
					<path style="fill:#FFFFFF;" d="M256.915,366.612c7.146-9.946-9.461-9.302-4.101-0.088c-1.481-0.39-7.012-1.15-8.069,2.675
						c-1.35,4.889,5.863,3.259,7.959,1.416c-0.875,2.576-0.76,8.728,3.124,7.596c3.362-0.979,2.338-5.937,1.237-8.219
						C268.97,376.396,264.668,355.823,256.915,366.612z"/>
					<path style="fill:#FFC931;" d="M257.195,366.544c-1.671-1.899-4.936,0.508-3.714,2.874
						C255.582,371.19,259.466,369.125,257.195,366.544z"/>
				</g>
				<g>
					<path style="fill:#FFFFFF;" d="M252.853,339.984c9.89-4.759-3.692-11.708-3.249-1.914c-1.024-0.978-5.139-4.073-7.586-1.482
						c-3.127,3.311,3.337,5.248,5.789,4.712c-1.779,1.671-4.26,6.655-0.673,7.494c3.102,0.725,4.353-3.709,4.429-6.033
						C258.425,353.246,263.579,334.822,252.853,339.984z"/>
					<path style="fill:#FFC931;" d="M253.108,340.057c-0.546-2.275-4.169-1.814-4.178,0.633
						C249.871,343.056,253.85,343.147,253.108,340.057z"/>
				</g>
				<g>
					<path style="fill:#FFFFFF;" d="M269.468,342.337c3.626-10.661-10.657-5.441-3.591,1.074c-1.391,0.076-6.401,0.966-6.323,4.591
						c0.099,4.632,5.954,1.191,7.294-1c-0.088,2.487,1.617,7.808,4.704,5.734c2.669-1.795,0.483-5.822-1.068-7.501
						C282.513,347.471,273.4,330.773,269.468,342.337z"/>
					<path style="fill:#FFC931;" d="M269.695,342.198c-1.948-1.184-4.163,1.827-2.481,3.544
						C269.505,346.696,272.348,343.808,269.695,342.198z"/>
				</g>
				<g>
					<path style="fill:#FFFFFF;" d="M274.562,375.66c3.626-10.662-10.661-5.442-3.592,1.074c-1.389,0.075-6.404,0.965-6.321,4.591
						c0.1,4.632,5.95,1.19,7.292-1.001c-0.089,2.487,1.617,7.809,4.703,5.734c2.67-1.795,0.485-5.822-1.068-7.5
						C287.604,380.792,278.493,364.096,274.562,375.66z"/>
					<path style="fill:#FFC931;" d="M274.788,375.521c-1.949-1.184-4.165,1.827-2.481,3.542
						C274.598,380.017,277.438,377.13,274.788,375.521z"/>
				</g>
				<g>
					<polygon style="fill:#773936;" points="246.678,430.138 238.984,378.691 284.951,378.691 276.578,430.138 					"/>
					<rect x="234.193" y="378.691" style="fill:#9E4949;" width="55.547" height="10.404"/>
				</g>
			</g>
		</g>
		<path style="fill:#846F6A;" d="M1309.021,804.105c0,7-35.198,13.529-96.1,19.055c-0.307,0.027-0.616,0.059-0.923,0.084
			c-9.712,0.876-20.067,1.725-31.033,2.548c-19.505,1.463-40.938,2.843-64.082,4.121c-114.189,6.299-270.056,10.179-441.885,10.179
			c-350.157,0-634.02-16.114-634.02-35.987c0-5.596,22.504-10.897,62.65-15.622c17.136-2.014,37.476-3.928,60.659-5.71h0.01
			c20.088-1.548,42.309-3,66.423-4.342c3.455-0.194,6.943-0.383,10.477-0.572c107.936-5.752,251.362-9.381,409.627-9.716
			c0.928,0,1.852-0.006,2.777-0.006c7.106-0.016,14.238-0.021,21.397-0.021c146.777,0,281.913,2.832,389.371,7.582
			c3.14,0.142,6.25,0.278,9.344,0.425c26.746,1.227,51.7,2.575,74.592,4.038c8.989,0.567,17.658,1.159,25.991,1.762
			c16.73,1.212,32.119,2.481,46.043,3.812c6.498,0.619,12.674,1.254,18.525,1.893h0.005
			C1283.706,792.568,1309.021,798.169,1309.021,804.105z"/>
		<g>
			<path style="fill:#514F4F;" d="M551.222,449.902c0,3.703-3.002,6.705-6.705,6.705H320.686c-3.703,0-6.705-3.002-6.705-6.705l0,0
				c0-3.702,3.002-6.705,6.705-6.705h223.831C548.22,443.198,551.222,446.2,551.222,449.902L551.222,449.902z"/>
			<g>
				<g>
					<path style="fill:#FFFFFF;" d="M1101.974,449.559h19.204c3.375-2.774,5.529-6.98,5.529-11.691v-46.072
						c0-8.356-6.774-15.129-15.13-15.129c-8.355,0-15.128,6.773-15.128,15.129v46.072
						C1096.448,442.579,1098.601,446.785,1101.974,449.559z"/>
					<g>
						<path style="fill:#FFFFFF;" d="M1116.609,367.214v21.659c0,1.616-2.263,2.924-5.04,2.924c-1.389,0-2.64-0.325-3.545-0.861
							c-0.92-0.527-1.478-1.256-1.478-2.063v-21.659c0-1.615,2.246-2.924,5.024-2.924c1.388,0,2.639,0.326,3.563,0.852
							C1116.051,365.677,1116.609,366.406,1116.609,367.214z"/>
						<path style="fill:#FFEE99;" d="M1116.609,367.214v1.168h-10.064v-1.168c0-1.615,2.246-2.924,5.024-2.924
							c1.388,0,2.639,0.326,3.563,0.852C1116.051,365.677,1116.609,366.406,1116.609,367.214z"/>
					</g>
					<path style="fill:#FFEE99;" d="M1124.295,409.675c-0.702-8.61-5.936-15.3-12.29-15.3c-6.355,0-11.586,6.69-12.29,15.3H1124.295
						z"/>
					<path style="fill:#FFEE99;" d="M1099.845,414.832c1.07,8.021,6.103,14.098,12.16,14.098c6.057,0,11.089-6.076,12.16-14.098
						H1099.845z"/>
				</g>
				<path style="fill:#514F4F;" d="M1037.693,408.628c0-5.557,3.693-10.078,8.233-10.078h8.505c4.537,0,8.232,4.521,8.232,10.078
					v41.655c0,0.113-0.011,0.224-0.014,0.336h5.494c0.003-0.112,0.005-0.224,0.005-0.336v-41.655
					c0-9.263-6.152-16.798-13.718-16.798h-8.505c-7.567,0-13.72,7.535-13.72,16.798v7.726h5.487V408.628z"/>
				<g>
					<rect x="1131.591" y="428.414" style="fill:#FFEE99;" width="48.137" height="22.005"/>
					<rect x="1132.28" y="426.352" style="fill:#F96D5F;" width="47.449" height="6.189"/>
				</g>
				<path style="fill:#514F4F;" d="M1143.777,449.162c0,4.225-4.502,7.65-10.054,7.65H892.365c-5.553,0-10.056-3.425-10.056-7.65
					l0,0c0-4.225,4.503-7.65,10.056-7.65h241.357C1139.275,441.512,1143.777,444.938,1143.777,449.162L1143.777,449.162z"/>
				<g>
					<path style="fill:#E5D1D1;" d="M1210.867,439.761c0,3.229-2.615,5.845-5.844,5.845h-28.194c-3.229,0-5.845-2.617-5.845-5.845
						l0,0c0-3.228,2.617-5.845,5.845-5.845h28.194C1208.251,433.917,1210.867,436.534,1210.867,439.761L1210.867,439.761z"/>
					<path style="fill:#514F4F;" d="M1167.87,441.48c-0.019,0.227-0.036,0.456-0.036,0.687c0,4.557,3.693,8.252,8.25,8.252h29.681
						c4.559,0,8.254-3.694,8.254-8.252c0-0.232-0.016-0.46-0.036-0.687H1167.87z"/>
				</g>
			</g>
			<g>
				<rect x="81.875" y="462.094" style="fill:#514F4F;" width="1187.272" height="328.354"/>
				<rect x="72.612" y="449.387" style="fill:#6D6B6B;" width="1204.775" height="20.793"/>
				<rect x="292.319" y="458.142" style="fill:#6D6B6B;" width="3.094" height="332.306"/>
				<rect x="561.536" y="463.614" style="fill:#6D6B6B;" width="3.094" height="326.834"/>
				<rect x="874.076" y="458.142" style="fill:#6D6B6B;" width="3.094" height="332.306"/>
				<rect x="1148.454" y="460.331" style="fill:#6D6B6B;" width="3.093" height="330.117"/>
				<g>
					<g>
						<rect x="97.716" y="496.008" style="fill:#6D6B6B;" width="179.472" height="82.074"/>
						<rect x="97.716" y="587.93" style="fill:#6D6B6B;" width="179.472" height="82.074"/>
						<rect x="97.716" y="679.853" style="fill:#6D6B6B;" width="179.472" height="82.074"/>
					</g>
					<g>
						<path style="fill:#514F4F;" d="M214.272,562.555c0,2.116-1.617,3.831-3.611,3.831h-46.417c-1.993,0-3.61-1.715-3.61-3.831l0,0
							c0-2.114,1.617-3.83,3.61-3.83h46.417C212.655,558.725,214.272,560.441,214.272,562.555L214.272,562.555z"/>
						<path style="fill:#514F4F;" d="M214.272,655.577c0,2.116-1.617,3.831-3.611,3.831h-46.417c-1.993,0-3.61-1.714-3.61-3.831l0,0
							c0-2.116,1.617-3.831,3.61-3.831h46.417C212.655,651.746,214.272,653.461,214.272,655.577L214.272,655.577z"/>
						<path style="fill:#514F4F;" d="M214.272,745.315c0,2.116-1.617,3.831-3.611,3.831h-46.417c-1.993,0-3.61-1.715-3.61-3.831l0,0
							c0-2.115,1.617-3.83,3.61-3.83h46.417C212.655,741.485,214.272,743.2,214.272,745.315L214.272,745.315z"/>
					</g>
				</g>
				<g>
					<g>
						<rect x="1165.254" y="495.339" style="fill:#6D6B6B;" width="92.829" height="82.073"/>
						<rect x="1165.254" y="587.26" style="fill:#6D6B6B;" width="92.829" height="82.076"/>
						<rect x="1165.254" y="679.183" style="fill:#6D6B6B;" width="92.829" height="82.073"/>
					</g>
					<g>
						<path style="fill:#514F4F;" d="M1225.539,561.885c0,2.116-0.837,3.83-1.868,3.83h-24.01c-1.031,0-1.865-1.714-1.865-3.83l0,0
							c0-2.115,0.834-3.83,1.865-3.83h24.01C1224.703,558.055,1225.539,559.77,1225.539,561.885L1225.539,561.885z"/>
						<path style="fill:#514F4F;" d="M1225.539,654.906c0,2.116-0.837,3.831-1.868,3.831h-24.01c-1.031,0-1.865-1.715-1.865-3.831
							l0,0c0-2.115,0.834-3.83,1.865-3.83h24.01C1224.703,651.076,1225.539,652.791,1225.539,654.906L1225.539,654.906z"/>
						<path style="fill:#514F4F;" d="M1225.539,744.645c0,2.116-0.837,3.83-1.868,3.83h-24.01c-1.031,0-1.865-1.714-1.865-3.83l0,0
							c0-2.115,0.834-3.83,1.865-3.83h24.01C1224.703,740.815,1225.539,742.53,1225.539,744.645L1225.539,744.645z"/>
					</g>
				</g>
				<g>
					<g>
						<rect x="577.38" y="482.207" style="fill:#6D6B6B;" width="134.602" height="292.182"/>
						<rect x="719.718" y="482.207" style="fill:#6D6B6B;" width="140.793" height="292.182"/>
					</g>
					<g>
						<path style="fill:#514F4F;" d="M696.254,667.694c0,2.266-1.732,4.104-3.868,4.104l0,0c-2.137,0-3.87-1.837-3.87-4.104v-78.791
							c0-2.266,1.734-4.104,3.87-4.104l0,0c2.135,0,3.868,1.837,3.868,4.104V667.694z"/>
						<path style="fill:#514F4F;" d="M749.372,667.694c0,2.266-1.732,4.104-3.868,4.104l0,0c-2.137,0-3.869-1.837-3.869-4.104
							v-78.791c0-2.266,1.732-4.104,3.869-4.104l0,0c2.135,0,3.868,1.837,3.868,4.104V667.694z"/>
					</g>
				</g>
				<g>
					<rect x="892.615" y="483.841" style="fill:#6D6B6B;" width="242.4" height="288.913"/>
					<path style="fill:#514F4F;" d="M900.866,666.6c0,3.023,2.31,5.472,5.158,5.472l0,0c2.849,0,5.158-2.449,5.158-5.472v-76.606
						c0-3.021-2.31-5.471-5.158-5.471l0,0c-2.849,0-5.158,2.45-5.158,5.471V666.6z"/>
				</g>
				<g>
					<rect x="308.049" y="496.835" style="fill:#6D6B6B;" width="239.306" height="265.092"/>
					<rect x="315.27" y="548.409" style="fill:#3D3C3C;" width="224.864" height="205.267"/>
					<path style="fill:#514F4F;" d="M468.96,564.398c0,2.563-2.078,4.642-4.641,4.642h-73.236c-2.563,0-4.642-2.078-4.642-4.642l0,0
						c0-2.564,2.079-4.642,4.642-4.642h73.236C466.883,559.756,468.96,561.834,468.96,564.398L468.96,564.398z"/>
					<g>
						<path style="fill:#514F4F;" d="M374.063,524.583c0,7.691-6.235,13.924-13.923,13.924c-7.693,0-13.925-6.234-13.925-13.924
							c0-7.691,6.232-13.926,13.925-13.926C367.828,510.657,374.063,516.891,374.063,524.583z"/>
						<path style="fill:#514F4F;" d="M410.165,524.583c0,4.841-3.924,8.767-8.767,8.767c-4.843,0-8.768-3.925-8.768-8.767
							c0-4.843,3.925-8.769,8.768-8.769C406.241,515.814,410.165,519.74,410.165,524.583z"/>
						<path style="fill:#514F4F;" d="M443.173,524.583c0,4.841-3.925,8.767-8.768,8.767c-4.841,0-8.767-3.925-8.767-8.767
							c0-4.843,3.925-8.769,8.767-8.769C439.248,515.814,443.173,519.74,443.173,524.583z"/>
						<path style="fill:#514F4F;" d="M476.181,524.583c0,4.841-3.927,8.767-8.767,8.767c-4.843,0-8.769-3.925-8.769-8.767
							c0-4.843,3.927-8.769,8.769-8.769C472.255,515.814,476.181,519.74,476.181,524.583z"/>
						<path style="fill:#514F4F;" d="M509.189,524.583c0,4.841-3.925,8.767-8.769,8.767c-4.841,0-8.767-3.925-8.767-8.767
							c0-4.843,3.925-8.769,8.767-8.769C505.264,515.814,509.189,519.74,509.189,524.583z"/>
					</g>
				</g>
			</g>
		</g>
	</g>
	<g>
		<path style="fill:#63514D;" d="M1042.797,813.679c0,4.561-164.671,8.257-367.799,8.257c-203.128,0-367.795-3.696-367.795-8.257
			c0-4.56,164.667-8.256,367.795-8.256C878.127,805.424,1042.797,809.12,1042.797,813.679z"/>
		<g>
			<g>
				<path style="fill:#4F231D;" d="M923.164,248.465c-1.38-11.106-0.538-22.958-8.245-32.052
					c-7.799-9.201-21.404-9.771-27.171,1.656l-6.925,12.062c10.256,1.668,12.376,20.501,13.795,29.075
					c2.27,13.769,4.319,21.745,14.006,31.859c16.247,16.966,42.305,20.011,64.792,12.965
					C950.324,295.158,926.375,274.346,923.164,248.465z"/>
				<path style="fill:#FCA468;" d="M915.961,289.575c-0.152-0.058-0.305-0.11-0.473-0.152c-0.549-0.141-1.178-0.165-1.869-0.104
					c-10.62,1.031-30.524,53.391-37.022,56.798c-0.159-1.627-6.04-31.377-6.438-32.906c-0.152-0.611-0.324-1.207-0.51-1.806
					c-1.196-3.78-3.013-7.271-5.113-10.524c-0.465-0.711-0.934-1.409-1.428-2.095c-1.931-2.753-4.038-5.346-6.088-7.802
					c-0.753-0.905-1.491-1.786-2.223-2.653c-3.914-4.69-7.287-8.927-8.41-13.031l24.554-33.458c1.34,1.127,2.733,2.745,4.115,4.584
					c2.861,3.78,5.684,8.506,7.871,11.839c3.163,4.801,6.964,9.978,14.46,16.776c2.421,2.197,5.234,4.562,8.543,7.143
					c0.723,0.569,1.474,1.148,2.256,1.734C910.534,285.703,913.122,287.582,915.961,289.575z"/>
				<path style="fill:#2D1B19;" d="M890.042,208.422c-2.939-1.958-9.784,0.671-12.666,0.123l2.495,10.593
					c2.635,7.999,1.895,18.564,0.981,28.274c9.632-4.577,14.537-12.241,13.822-22.838
					C894.416,220.778,893.608,210.795,890.042,208.422z"/>
				<path style="fill:#FCA468;" d="M836.724,303.474l-0.11,0.014l-0.221,0.025l-0.012,0.004c-2.352,0.145-4.529-0.951-5.984-2.562
					c-1.395-1.579-0.929-3.77-2.009-5.368c-1.09-1.638-2.425-0.852-3.81-0.878c-0.544,0.002-1.086-0.13-1.653-0.564
					c-1.455-1.16-0.73-3.894,0.154-5.508c0.084-0.15,0.169-0.297,0.245-0.41c-0.789,0.119-1.546,0.257-2.282,0.353
					c-2.256,0.322-4.177,0.254-4.974-2.119c-0.047-0.126-0.085-0.269-0.125-0.415c-0.045-0.164-0.071-0.337-0.102-0.487
					c-0.549-3.013,1.044-5.086-3.104-6.014c-2.802-0.63-6.842,0.917-8.019-2.321c-0.749-2.036,0.982-6.32,1.492-8.379
					c1.071-4.346,1.681-8.234,0.768-12.658c-0.427-2.06-1.292-3.846-2.27-5.567c-0.576-0.996-1.181-1.965-1.765-2.963
					c-0.702-1.188-1.38-2.417-1.92-3.746c-1.635-3.982-3.138-8.285-3.851-12.515c-1.777-10.555,7.321-22.182,7.321-22.182
					c3.544-4.808,9.592-9.118,15.594-10.992c26.41-8.288,47.204,10.365,54.86,31.902l0.008,0.023
					c0.992,2.782,1.76,5.615,2.307,8.445c0.214,1.16-0.793,4.213-2.208,7.831c-2.674,6.84-6.815,15.691-6.863,17.52
					c-0.173,6.334-1.614,11.766-3.796,16.382c-1.977,4.195-4.567,7.721-7.376,10.657
					C849.067,299.312,839.338,302.91,836.724,303.474z"/>
				<path style="fill:#E24939;" d="M827.219,284.879c0.214,4.027-3.732,9.702-4.292,9.267c-1.458-1.157-0.732-3.894,0.151-5.511
					c0.084-0.149,0.167-0.294,0.245-0.407c-0.782,0.121-1.546,0.257-2.282,0.354c-2.253,0.322-4.179,0.254-4.97-2.122
					C824.674,287.845,827.219,284.879,827.219,284.879z"/>
				<path style="fill:#4F231D;" d="M804.502,254.063l-0.099-0.121c1.149,1.079,3.928-3.307,5.884-4.516
					c3.333-2.064,8.01-1.178,10.539,0.139c0.35,0.551-2.03-3.713-9.942-2.867C807.886,247.024,801.166,251.423,804.502,254.063z"/>
				<g>
					<g>
						<path style="fill:#FFFFFF;" d="M817.016,256.035c-0.259,2.083-1.123,3.381-2.31,4.245c-1.323,0.963-3.06,1.375-4.848,1.701
							l-1.902-5.784c0.509-1.975,2.484-2.508,4.61-2.159C814.144,254.285,815.815,255.033,817.016,256.035z"/>
						<path style="fill:#26140F;" d="M813.36,255.743c0.641,1.556,1.085,3.106,1.347,4.538c-1.323,0.963-3.06,1.375-4.848,1.701
							l-1.902-5.784c0.509-1.975,2.484-2.508,4.61-2.159C812.843,254.577,813.11,255.146,813.36,255.743z"/>
						<path style="fill:#FFFFFF;" d="M812.924,257.063c0.224,0.532,0.136,1.075-0.189,1.212c-0.318,0.14-0.758-0.18-0.978-0.712
							c-0.225-0.533-0.14-1.074,0.186-1.212C812.264,256.213,812.703,256.53,812.924,257.063z"/>
					</g>
					<path style="fill:#E5804E;" d="M812.124,252.782c-2.126-0.348-4.099,0.187-4.611,2.161l1.137,4.169
						c1.37,0.185,8.081-1.295,8.346-3.377C815.601,253.134,813.7,253.031,812.124,252.782z"/>
				</g>
				<path style="fill:#683127;" d="M796.939,223.208c14.999-5.195,5.897,12.708,18.065,12.638
					c6.852-0.038,16.396-1.325,21.411,4.575c3.55,4.175,7.063,10.544,11.798,13.652c7.686-6.033,1.836-18.416,12.992-12.691
					c4.174,2.132,2.832,9.808,5.393,13.509c3.68,5.328,16.549,13.999,22.984,11.329c-11.554-20.025,13.954-58.524-13.855-77.568
					c-1.404-0.97-2.954-1.884-4.653-2.743c-11.456-5.811-34.835-6.719-48.68,2.652c-12.217,8.263-18.763,15.359-22.216,20.938
					c-0.007,0-0.007,0-0.007,0C794.794,218.196,796.939,223.208,796.939,223.208z"/>
				<path style="fill:#E5804E;" d="M864.497,300.914l0.038-0.034c-2.307-3.549-4.951-6.823-7.516-9.897
					c-7.952,8.328-17.681,11.927-20.296,12.491l-0.11,0.014c6.685-3.808,13.002-9.381,18.182-15.158
					c0.739-0.819,1.454-1.646,2.149-2.47c6.495-7.78,4.61-34.749,4.61-34.749c2.255,3.539,4.57,20.595,2.84,29.215
					c-0.518,2.654-1.021,4.866-1.352,6.211c-0.871,3.539,6.778,21.519,6.605,24.867c-0.03,0.398-0.059,0.795-0.091,1.182
					C868.751,308.829,867.246,305.047,864.497,300.914z"/>
				<path style="fill:#4F231D;" d="M796.939,223.208c14.999-5.195,5.897,12.708,18.065,12.638
					c6.852-0.038,16.396-1.325,21.411,4.575c3.55,4.175,7.063,10.544,11.798,13.652c7.686-6.033,1.836-18.416,12.992-12.691
					c4.174,2.132,2.832,9.808,5.393,13.509c3.68,5.328,16.549,13.999,22.984,11.329c-11.554-20.025,13.954-58.524-13.855-77.568
					c1.381,6.196,1.79,12.626,0.325,18.502c-1.35,5.408-2.478,5.012-7.264,3.949c-3.943-0.873-8.313-0.818-12.302,0.012
					c-4.258,0.89-8.974,2.554-12.35,5.387c-2.351,1.964-5.19,7.525-8.425,7.942c-3.259,0.409-4.116-3.039-6.458-4.865
					c-2.939-2.304-5.519-2.111-9.02-1.355c-2.803,0.61-6.044,2.559-8.625,1.106c-2.432-1.359-3.257-5.373-5.132-7.349
					c-2.238-2.365-4.287-2.89-6.297-2.483c-0.007,0-0.007,0-0.007,0C794.794,218.196,796.939,223.208,796.939,223.208z"/>
				<g>
					<path style="fill:#FCA468;" d="M858.467,233.849c-3.955-0.219-9.983,0.817-8.1,9.57c0,0,2.325,13.157,6.842,14.304
						c6.329,1.607,8.029-5.176,8.33-10.076C865.839,242.848,865.178,234.226,858.467,233.849z"/>
					<g>
						<path style="fill:#E5804E;" d="M862.091,239.532c0.137,0.111,0.277,0.219,0.425,0.328
							C862.38,239.738,862.239,239.63,862.091,239.532z"/>
						<path style="fill:#E5804E;" d="M862.516,239.86c-0.79-2.257-4.282-4.003-7.288-2.763c-2.471,1.02-3.253,4.448-2.736,6.799
							c2.415-2.639,5.601,4.99,2.297,6.852l0.181-0.06c2.188,0.121,4.758-1.727,4.724-4.552c-0.031-2.953-2.331-4.226-4.985-4.673
							C855.665,239.085,858.873,238.216,862.516,239.86z"/>
					</g>
				</g>
			</g>
			<g>
				<path style="fill:#C94F4F;" d="M906.401,294.383c0,0-5.954-11.161-8.643-12.609c-10.832-5.835-23.239,3.774-27.485,15.567
					c-4.057,11.275-9.945,31.848-16.775,45.184c-7.797,15.219-17.088,32.577-27.976,45.779c-3.181,3.856-9.934,1.312-13.508,4.74
					c-1.206,3.646-2.101,7.359-2.166,11.262c-0.152,8.574,0.449,16.542,2.61,24.739c1.059,4.009,2.362,7.904,3.888,11.686
					c25.492-6.472,41.053-26.212,56.891-48.404c14.239-19.946,27.467-48.243,32.244-72.242
					C907.198,311.459,907.588,302.438,906.401,294.383z"/>
				<g>
					<path style="fill:#E5804E;" d="M832.864,406.826c-7.565-10.616-20.186-25.144-26.949-40.511
						c-2.643-5.998-9.24-17.383-10.853-23.25l-16.802,2.004c0.108,9.755,2.292,18.795,3.179,27.976
						c1.562,16.19,10.845,45.15,18.662,59.601c8.754,16.181,27.108,17.41,33.974,1.85
						C839.276,422.718,840.92,418.137,832.864,406.826z"/>
					<path style="fill:#E5804E;" d="M770.11,311.171c-6.474,1.26,3.759,11.319-0.114,13.552c-4.067,2.344-12.254,0.287-16.517-0.546
						c-6.194-1.21-19.769-9.151-22.901-5.812c-2.683,3.264,12.472,11.39,12.472,11.39c-5.203-1.261-12.95-5.572-14.17-2.488
						c-2.314,4.841,6.954,7.482,12.452,8.981c-6.153-0.226-10.306-3.152-11.604-0.503c0.025,6.233,10.995,6.809,17.201,7.959
						c-3.026,2.325-10.107,1.858-11.692,4.758c1.341,4.818,17.479,3.87,26.417,2.854c7.281-0.829,11.362-0.961,15.421-1.659
						c4.411-0.76,9.612-2.945,14.113-4.586C788.219,327.691,774.656,311.583,770.11,311.171z"/>
				</g>
				<g>
					<g>
						<g>
							<path style="fill:#FCA265;" d="M631.617,721.917c9.494-4.142,21.467-14.106,25.078-24.649l11.342,7.238
								c-1.27,6.425-2.397,11.574-1.698,18.048c0.58,5.358,4.231,14.128,0.398,18.256c-3.082,3.32-13.467,2.157-17.695,2.799
								c-9.053,1.374-32.87,5.982-39.66-3.597C601.243,728.545,625.26,724.691,631.617,721.917z"/>
							<path style="fill:#FFFFFF;" d="M669.534,739.277c-7.8,1.528-35.211,1.188-47.026-5.216
								c-9.491-5.148,6.365-7.034,11.628-14.02c0,0-51.715,15.291-31.103,27.296C616.455,755.155,676.26,746.433,669.534,739.277z"
								/>
						</g>
						<path style="fill:#FCA265;" d="M653.614,703.558l7.877,28.582c3.53-5.856,14.597-24.844,27.818-48.887
							c17.391-31.621,38.506-72.003,51.094-102.781c-2.882-2.422-5.69-4.961-8.457-7.51c-7.91-7.283,13.958-31.384,6.039-38.398
							c-0.048-0.051-0.107-0.093-0.162-0.145c-2.865-2.329-20.667-4.016-23.558-6.328c-13.951,1.806-19.023,31.604-20.814,37.84
							C681.842,606.222,679.215,646.765,653.614,703.558z"/>
						<path style="fill:#E5804E;" d="M731.946,572.963c-7.91-7.283,13.958-31.384,6.039-38.398
							c-8.015,2.606-15.989,5.358-20.717,15.621c-6.273,13.635-19.497,2.921-19.879,18.412c-0.425,17.394,8.224,28.589,9.764,57.389
							c0.816,15.19-9.466,37.829-17.845,57.267c17.391-31.621,38.506-72.003,51.094-102.781
							C737.521,578.051,734.713,575.511,731.946,572.963z"/>
					</g>
					<g>
						<g>
							<path style="fill:#FCA265;" d="M796.116,798.424c-2.109-5.884-8.39-29.04-8.406-34.458l-16.546-7.734
								c0.542,14.628-4.881,27.566-22.239,32.63c-5.876,1.713-22.142,10.814-12.304,16.37c7.531,4.257,25.776,4.499,33.458,2.76
								C783.881,804.868,801.743,814.12,796.116,798.424z"/>
							<path style="fill:#FFFFFF;" d="M797.745,805.74c-8.158,0.915-33.363-3.095-45.026-10.691
								c-9.37-6.104,3.256-6.75,9.222-13.502c0,0-54.196,16.106-33.91,30.213C741.24,820.943,804.106,813.678,797.745,805.74z"/>
						</g>
						<path style="fill:#FCA265;" d="M702.269,547.501c30.697-25.184,87.027-38.27,146.984-44.958l96.817,6.849
							c0.033,35.169-15.125,80.73-59.955,82.931c-39.383,1.932-95.717-9.69-133.396,0.75
							c19.098,33.274,36.633,173.902,38.652,192.835l-22.044-16.457c-13.143-57.82-34.149-89.562-48.337-126.589
							C710.141,614.564,685.964,560.882,702.269,547.501z"/>
					</g>
					<path style="fill:#F47171;" d="M954.076,553.654c-1.285,9.819-2.95,20.856-7.045,26.782
						c-9.727,14.077-44.939,14.446-59.435,16.01c-18.211,1.971-36.103,6.995-54.504,5.253c-21.936-2.074-12.014-3.205-33.991-1.031
						c-17.089,1.692-15.715,2.785-27.667-2.53c-28.04-12.474-44.674-37.882-54.187-57.211c-2.086-4.223-3.829-8.152-5.279-11.598
						c-0.569-1.386-1.093-2.644-1.562-3.764c43.134-22.787,130.342-30.99,146.697-48.245c2.273-8.356,3.991-16.404,5.328-24.378
						c2.975-17.828,4.055-35.313,5.289-55.289c0.063-0.993,0.126-1.985,0.189-2.99c1.273-20.345-2.54-59.131,4.452-82.019
						c4.592-15.019,18.135-42.753,22.254-41.964c13.35,2.543,45.778,22.253,57.861,71.847c4.254,17.478,8.174,48.677,8.558,82.427
						c0,0.012,0,0.012,0,0.012C961.706,484.795,956.339,551.112,954.076,553.654z"/>
					<g>
						<path style="fill:#C94F4F;" d="M954.076,553.654c-1.285,9.819-2.95,20.856-7.045,26.782
							c-9.727,14.077-44.939,14.446-59.435,16.01c-18.211,1.971-36.103,6.995-54.504,5.253c-21.936-2.074-12.014-3.205-33.991-1.031
							c-17.089,1.692-15.715,2.785-27.667-2.53c-28.04-12.474-44.674-37.882-54.187-57.211c6.435,2.824,12.932,5.518,19.647,7.603
							c13.021,4.045,27.427,4.248,40.885,5.1c13.122,0.839,26.666,1.756,39.75,0.661c53.663-4.49,99.275-34.409,124.785-81.411
							c8.392-15.436,14.623-31.028,18.721-47.915C961.706,484.795,956.339,551.112,954.076,553.654z"/>
					</g>
					<g>
						<g>
							<path style="fill:#FFFFFF;" d="M735.562,352.325c5.729-5.21-1.78-10.357-6.095-13.098
								c-3.951-2.509-10.588-4.735-12.304-9.431c-2.242-6.142,3.806-10.892,9.104-11.516c5.955-0.698,9.834,4.123,12.625,8.563
								c1.244,1.981,4.394,0.157,3.143-1.837c-3.828-6.083-8.285-10.255-15.768-10.365c-6.083-0.088-11.006,4.506-12.759,9.982
								c-1.592,4.992,1.052,9.358,4.904,12.128c2.577,1.855,18.611,9.33,14.579,13.001
								C731.252,351.335,733.828,353.901,735.562,352.325L735.562,352.325z"/>
							<path style="fill:#FFFFFF;" d="M737.114,315.371c-0.88,2.257-1.383,4.708-1.383,7.278v18.925
								c0,6.778,3.375,12.758,8.528,16.381h22.978c5.153-3.623,8.529-9.603,8.529-16.381v-18.925c0-2.57-0.505-5.021-1.384-7.278
								H737.114z"/>
						</g>
						<g>
							<path style="fill:#FCA468;" d="M844.23,403.464c-9.572-8.848-24.894-20.496-34.651-34.161
								c-6.217-8.7-11.09-18.252-14.516-26.237c-5.062,1.639-10.103,3.353-15.148,5.047c0.8,11.558,6.545,25.732,10.144,37.295
								c4.833,15.531,16.764,37.466,27.367,50.018c11.87,14.054,30.087,11.512,33.636-5.122
								C853.742,417.713,854.423,412.894,844.23,403.464z"/>
							<path style="fill:#FCA468;" d="M775.081,317.517c-0.848,1.272,0.413,7.833-3.591,9.815c-4.212,2.083-7.951-0.389-12.151-1.49
								c-6.107-1.6-22.475-9.366-25.816-6.233c-2.881,3.089,15.054,11.141,15.054,11.141c-5.112-1.589-17.568-8.785-18.982-5.784
								c-2.614,4.686,11.465,10.31,16.856,12.153c-6.126-0.613-15.809-6.735-17.27-4.172c-0.37,6.221,16.266,10.428,22.386,11.967
								c-3.168,2.13-12.873-3.183-14.639-0.39c1.037,4.892,19.866,9.367,28.851,8.919c7.324-0.368,11.401-0.242,15.497-0.681
								c4.451-0.481,11.677-2.947,16.274-4.302C791.615,335.319,778.74,318.982,775.081,317.517z"/>
						</g>
					</g>
					<path style="fill:#C94F4F;" d="M881.898,431.54c-2.93,4.579-12.234,18.821-19.467,21.402
						c2.975-17.828,4.055-35.313,5.289-55.289c2.797-2.113,5.508-4.338,8.036-6.779c8.763-8.47,8.357-16.799,14.406-27.366
						c7.836-13.657,12.641-16.963,19.078-30.518C914.326,359.056,902.245,399.749,881.898,431.54z"/>
					<path style="fill:#F47171;" d="M907.33,282.122c0,0-7.901-9.879-10.809-10.809c-11.72-3.746-19.276,8.802-24.16,20.346
						c-6.992,16.532-7.812,30.286-12.082,44.649c-4.867,16.391-11.431,32.566-19.71,47.543c-2.419,4.374-5.031,8.551-7.918,12.58
						c-0.514,3.805-0.709,7.617-0.06,11.466c1.425,8.456,3.478,16.18,7.11,23.839c1.776,3.746,3.769,7.336,5.963,10.775
						c23.874-11.04,41.267-39.025,52.763-63.744c10.338-22.222,16.879-42.292,17.169-66.761
						C915.702,303.212,909.976,289.822,907.33,282.122z"/>
				</g>
				<g>
					<path style="fill:#6F994A;" d="M733.477,434.011c0.945-5.121-5.072-1.237-6.781,0c0.008-4.221-3.416-1.643-5.102-0.087
						c0.177-3.104,0.499-6.232-3.562-7.74c-4.335-1.611-6.132,1.481-7.228,4.61c-1.695-2.037-4.094-2.397-4.298,0.697
						c-1.924-1.301-7.77-2.74-4.662,1.565c-2.854-0.812-5.722-1.827-8.78-0.731c-0.436,2.962,3.3,6.279,6.025,6.728l36.818,1.43
						c0.769-0.891,3.7-3.318,3.582-5.361C739.277,431.5,735.611,432.742,733.477,434.011z"/>
					<g>
						<path style="fill:#FFFFFF;" d="M799.889,430.832c-5.984-0.798-14.271-0.768-20.016-0.717
							c-38.96,0.359-47.968,7.798-48.968,8.579l6.072,0.716c1.083-0.273,2.049-0.233,3.219-0.359
							c15.831-1.703,32.385,0.368,48.344,1.073c4.97,0.221,13.456,1.059,17.786-2.055
							C811.696,434.206,805.253,431.546,799.889,430.832z"/>
						<path style="fill:#F98B1C;" d="M757.05,433.243c3.526,4.216,13.283,3.766,18.098,3.309c5.01-0.475,18.603-4.846,12.946-7.508
							C782.017,426.184,759.416,424.889,757.05,433.243z"/>
					</g>
					<path style="fill:#DDA5A2;" d="M689.474,437.265c0.188,3.188,2.807,5.72,6.04,5.72h110.812c3.234,0,5.851-2.532,6.04-5.72
						H689.474z"/>
				</g>
				<g>
					<g>
						<g>
							<polygon style="fill:#C6B7B5;" points="787.432,814.56 822.024,591.615 789.582,595.182 778.854,814.56 							"/>
							<polygon style="fill:#C6B7B5;" points="974.678,814.56 963.952,595.182 931.512,591.615 966.103,814.56 							"/>
						</g>
						<rect x="789.065" y="714.681" style="fill:#C6B7B5;" width="170.246" height="12.485"/>
					</g>
					<g>
						<path style="fill:#FFFFFF;" d="M945.333,591.332c0,7.61-3.19,13.778-7.132,13.778H778.435c-3.936,0-7.132-6.168-7.132-13.778
							l0,0c0-7.609,3.196-13.775,7.132-13.775h159.767C942.143,577.557,945.333,583.723,945.333,591.332L945.333,591.332z"/>
						<path style="fill:#FFFFFF;" d="M1012.131,376.148c-1.297-21.816-13.223-99.424-29.917-41.52
							c-12.324,42.741-68.409,241.265-107.728,259.854l60.728,10.629c25.052,2.417,52.349,0.334,66.798-27.423
							C1014.501,553.689,1014.245,411.633,1012.131,376.148z"/>
					</g>
				</g>
			</g>
			<g>
				<g>
					<g>
						<path style="fill:#DDA5A2;" d="M671.943,366.61l-2.667-0.026v56.355l2.667-0.025c15.73-0.153,28.526-12.782,28.526-28.151
							C700.469,379.392,687.673,366.764,671.943,366.61z M674.561,372.073c11.589,1.402,20.619,11.083,20.619,22.689
							c0,11.606-9.03,21.288-20.619,22.69V372.073z"/>
						<path style="fill:#8C6261;" d="M669.275,366.626v56.272c15.376-0.551,27.758-13.013,27.758-28.135
							C697.033,379.639,684.651,367.177,669.275,366.626z M674.561,417.453v-0.678c-1.115,0.306-2.261,0.534-3.438,0.678v-45.38
							c1.177,0.141,2.323,0.37,3.438,0.677v-0.677c11.589,1.402,20.619,11.083,20.619,22.689
							C695.18,406.368,686.15,416.05,674.561,417.453z"/>
					</g>
					<path style="fill:#F4D4AB;" d="M676.727,357.287v77.892c0,4.512-4.94,8.171-11.041,8.171h-25.03
						c-6.103,0-11.045-3.659-11.045-8.171v-77.892c0-4.51,4.941-8.173,11.045-8.173h25.03
						C671.786,349.115,676.727,352.777,676.727,357.287z"/>
					<rect x="648.845" y="357.768" style="fill:#8C6261;" width="9.382" height="46.656"/>
					<path style="fill:#DDA5A2;" d="M676.727,357.287v12.439h-47.115v-12.439c0-4.51,4.941-8.173,11.045-8.173h25.03
						C671.786,349.115,676.727,352.777,676.727,357.287z"/>
					<g>
						<path style="fill:#DDA5A2;" d="M657.448,342.491c0,2.236-1.815,4.049-4.05,4.049c-2.235,0-4.049-1.813-4.049-4.049
							c0-2.236,1.813-4.049,4.049-4.049C655.633,338.442,657.448,340.255,657.448,342.491z"/>
						<rect x="652.156" y="342.859" style="fill:#DDA5A2;" width="2.485" height="18.222"/>
					</g>
					<rect x="629.517" y="361.909" style="fill:#8C6261;" width="47.21" height="5.333"/>
					<path style="fill:#420D0D;" d="M676.727,393.105v42.074c0,4.512-4.94,8.171-11.041,8.171h-25.03
						c-6.103,0-11.045-3.659-11.045-8.171v-42.074H676.727z"/>
					<path style="opacity:0.6;fill:#F4D4AB;" d="M642.492,428.305c0,1.753-1.421,3.175-3.174,3.175l0,0
						c-1.754,0-3.176-1.422-3.176-3.175v-49.417c0-1.753,1.422-3.175,3.176-3.175l0,0c1.753,0,3.174,1.422,3.174,3.175V428.305z"/>
					<path style="opacity:0.4;fill:#DDA5A2;" d="M642.771,351.417c-3.01-0.41-7.198,0.932-8.502,3.927
						c-0.669,1.551-0.857,9.032,0.55,10.099c4.217,3.183,3.732-5.53,3.81-7.123c0.206-4.154,2.063-5.377,5.245-7.177
						L642.771,351.417z"/>
				</g>
				<g>
					<g>
						<path style="fill:#8FA662;" d="M555.604,408.162c0,0,0.016-0.647,0.06-1.862c0.032-1.215-0.011-2.994-0.145-5.256
							c-0.156-2.262-0.433-4.999-0.752-8.146c-0.324-3.15-0.514-6.714-0.787-10.591c-0.258-3.883-0.54-8.086-0.838-12.533
							c-0.292-4.449-0.599-9.139-0.917-13.991c-0.147-2.433-0.324-4.884-0.446-7.405c-0.067-2.5-0.143-5.031-0.215-7.584
							c-0.219-5.096-0.07-10.301-0.06-15.498c0-2.6,0.14-5.19,0.217-7.775c0.089-2.583,0.185-5.155,0.274-7.709
							c0.233-5.099,0.463-10.119,0.688-14.976c0.219-4.858,0.448-9.552,0.732-14.004c0.138-2.227,0.265-4.391,0.439-6.483
							c0.177-2.09,0.291-4.117,0.51-6.054c0.199-1.936,0.37-3.794,0.57-5.557c0.244-1.76,0.472-3.428,0.682-4.995
							c0.192-1.57,0.476-3.028,0.705-4.376c0.24-1.347,0.455-2.587,0.65-3.703c0.465-2.225,0.883-3.96,1.142-5.145
							c0.267-1.187,0.41-1.819,0.41-1.819s-0.476,2.548-1.31,7.006c-0.166,1.121-0.351,2.362-0.547,3.715
							c-0.193,1.351-0.44,2.809-0.586,4.381c-0.17,1.57-0.35,3.24-0.544,4.999c-0.148,1.764-0.305,3.618-0.47,5.555
							c-0.187,1.933-0.266,3.958-0.406,6.045c-0.143,2.089-0.23,4.256-0.333,6.478c-0.21,4.449-0.344,9.146-0.56,14.004
							c-0.196,4.856-0.396,9.876-0.605,14.975c-0.077,2.55-0.154,5.118-0.233,7.698c-0.059,2.58-0.185,5.171-0.176,7.756
							c-0.036,5.175-0.217,10.342-0.025,15.451c0.06,2.552,0.117,5.083,0.173,7.585c0.107,2.476,0.276,4.957,0.405,7.379
							c0.557,9.703,0.975,18.77,1.376,26.539c0.096,1.942,0.187,3.803,0.276,5.573c0.04,0.885,0.08,1.747,0.114,2.583
							c0.056,0.837,0.11,1.649,0.16,2.436c0.232,3.15,0.435,5.902,0.525,8.171c0.086,2.271,0.047,4.062-0.025,5.273
							C555.65,407.516,555.604,408.162,555.604,408.162z"/>
						<g>
							<path style="fill:#B7277D;" d="M564.31,236.76c1.269-5.232-2.673-11.433-8.144-7.903c-4.722,3.046-3.495,9.389,0.986,11.71
								c-4.042-1.758-10.791-0.499-8.236,5.335c1.478,3.385,5.221,3.165,8.479,2.249c-2.725,3.093-2.902,11.658,0.89,13.522
								c6.899,3.393,7.573-8.811,6.104-12.58c2.119,3.966,10.353,5.965,12.569,0.953c2.202-4.974-4.075-7.645-8.13-8.162
								c4.302-0.147,7.563-5.736,5.242-9.651C570.269,225.832,565.687,232.792,564.31,236.76z"/>
							<path style="fill:#6D0B4A;" d="M562.53,240.56c1.687,0.662,2.514,2.566,1.85,4.25c-0.665,1.682-2.566,2.511-4.25,1.848
								c-1.684-0.663-2.512-2.565-1.849-4.249C558.945,240.725,560.848,239.896,562.53,240.56z"/>
						</g>
						<path style="fill:#8FA662;" d="M554.139,425.503c0,0,0.047-0.155,0.136-0.451c0.079-0.3,0.235-0.736,0.374-1.321
							c0.281-1.167,0.591-2.904,0.732-5.137c0.14-2.235,0.082-4.956-0.141-8.069c-0.213-3.115-0.627-6.616-0.791-10.481
							c-0.075-3.85-0.159-8.02-0.247-12.431c-0.101-2.198-0.207-4.455-0.314-6.763c-0.054-1.155-0.107-2.32-0.163-3.498
							c-0.088-1.175-0.178-2.362-0.265-3.558c-0.197-2.393-0.329-4.83-0.588-7.286c-0.277-2.455-0.564-4.937-0.85-7.44
							c-0.073-0.625-0.145-1.249-0.218-1.876l-0.269-1.885c-0.184-1.258-0.366-2.52-0.547-3.785
							c-0.376-2.526-0.706-5.074-1.119-7.602c-0.83-5.052-1.531-10.131-2.511-15.078c-0.462-2.479-0.923-4.937-1.376-7.368
							c-0.531-2.412-1.056-4.796-1.572-7.141c-0.261-1.171-0.516-2.335-0.768-3.486c-0.261-1.15-0.584-2.272-0.857-3.395
							c-0.576-2.24-1.137-4.429-1.684-6.561c-0.505-2.144-1.196-4.171-1.784-6.157c-0.603-1.98-1.188-3.896-1.75-5.731
							c-0.141-0.46-0.277-0.914-0.417-1.365c-0.159-0.442-0.317-0.878-0.473-1.311c-0.313-0.865-0.614-1.709-0.911-2.534
							c-0.586-1.651-1.144-3.216-1.666-4.688c-0.982-2.969-2.126-5.446-2.965-7.524c-1.713-4.151-2.691-6.522-2.691-6.522
							s1.062,2.336,2.913,6.426c0.9,2.058,2.111,4.508,3.179,7.453c0.566,1.461,1.164,3.013,1.797,4.651
							c0.314,0.82,0.634,1.662,0.966,2.524c0.165,0.429,0.329,0.867,0.496,1.306c0.15,0.449,0.295,0.902,0.438,1.361
							c0.594,1.833,1.215,3.743,1.858,5.718c0.621,1.983,1.349,4.008,1.893,6.148c0.584,2.13,1.185,4.316,1.797,6.556
							c0.299,1.118,0.639,2.243,0.898,3.397c0.261,1.154,0.524,2.319,0.791,3.494c0.529,2.349,1.071,4.738,1.618,7.157
							c0.471,2.434,0.942,4.895,1.421,7.379c0.234,1.243,0.474,2.49,0.711,3.741c0.251,1.249,0.428,2.515,0.646,3.776
							c0.413,2.525,0.827,5.06,1.244,7.596c0.401,2.539,0.717,5.082,1.077,7.613c0.174,1.266,0.35,2.528,0.523,3.787l0.263,1.887
							c0.068,0.632,0.14,1.265,0.208,1.896c0.274,2.516,0.55,5.013,0.817,7.479c0.244,2.468,0.365,4.915,0.546,7.318
							c0.084,1.204,0.166,2.394,0.247,3.575c0.062,1.181,0.082,2.356,0.122,3.514c0.069,2.319,0.136,4.588,0.199,6.794
							c0.018,4.408,0.026,8.574,0.044,12.419c0.107,3.828,0.422,7.35,0.547,10.478c0.14,3.128,0.123,5.867-0.081,8.113
							c-0.193,2.245-0.584,3.979-0.907,5.14c-0.158,0.579-0.332,1.009-0.424,1.305C554.188,425.351,554.139,425.503,554.139,425.503
							z"/>
						<path style="fill:#8FA662;" d="M588.295,255.904c0,0-1.156,2.333-3.191,6.415c-2.048,4.073-4.972,9.891-8.48,16.876
							c-0.865,1.753-1.755,3.58-2.685,5.468c-0.893,1.907-1.815,3.878-2.762,5.902c-0.974,2.015-1.847,4.14-2.792,6.287
							c-0.465,1.076-0.94,2.165-1.415,3.262c-0.44,1.112-0.892,2.234-1.347,3.364c-0.454,1.132-0.908,2.272-1.37,3.42
							c-0.453,1.151-0.837,2.335-1.264,3.515c-0.831,2.375-1.712,4.728-2.427,7.197c-1.558,4.891-2.825,9.904-4.009,14.975
							c-1.188,5.058-2.196,10.164-3.124,15.2c-0.905,5.043-1.693,10.017-2.467,14.848c-0.784,4.83-1.632,9.473-2.377,13.885
							c-0.752,4.412-1.396,8.59-1.902,12.461c-0.498,3.87-0.892,7.427-1.119,10.588c-0.254,3.161-0.322,5.928-0.352,8.203
							c0.015,2.276,0.03,4.068,0.112,5.287c0.064,1.219,0.099,1.87,0.099,1.87s-0.06-0.649-0.165-1.867
							c-0.125-1.217-0.222-3.006-0.291-5.287c-0.033-2.283-0.038-5.058,0.133-8.235c0.139-3.178,0.433-6.758,0.885-10.647
							c0.874-7.779,2.348-16.796,3.899-26.428c0.746-4.824,1.513-9.825,2.393-14.884c0.905-5.055,1.882-10.185,3.063-15.279
							c1.207-5.069,2.531-10.163,4.105-15.04c0.728-2.455,1.643-4.866,2.488-7.232c0.436-1.183,0.831-2.372,1.293-3.527
							c0.468-1.151,0.931-2.297,1.391-3.431c0.465-1.132,0.922-2.258,1.374-3.372c0.469-1.107,0.974-2.185,1.456-3.259
							c0.986-2.138,1.898-4.259,2.906-6.26c0.982-2.016,1.942-3.975,2.866-5.87c0.959-1.877,1.886-3.691,2.779-5.432
							c1.782-3.48,3.493-6.63,4.99-9.433c1.507-2.795,2.821-5.23,3.903-7.238C587.059,258.196,588.295,255.904,588.295,255.904z"/>
						<g>
							<path style="fill:#8FA662;" d="M571.615,210.157c0,0-0.738,2.7-2.03,7.423c-0.654,2.36-1.453,5.223-2.367,8.507
								c-0.908,3.287-1.923,6.997-3.034,11.042c-0.543,2.026-1.11,4.137-1.691,6.32c-0.547,2.195-1.108,4.464-1.687,6.794
								c-0.606,2.325-1.081,4.745-1.642,7.203c-0.263,1.234-0.564,2.471-0.815,3.732c-0.241,1.262-0.488,2.537-0.737,3.822
								c-0.247,1.285-0.494,2.582-0.749,3.886c-0.221,1.309-0.407,2.635-0.617,3.966c-0.202,1.33-0.406,2.67-0.612,4.013
								l-0.151,1.004l-0.119,1.02c-0.081,0.68-0.159,1.364-0.234,2.048c-0.35,2.738-0.554,5.491-0.798,8.256
								c-0.123,1.381-0.18,2.777-0.273,4.168c-0.082,1.391-0.178,2.782-0.219,4.179c-0.287,5.578-0.365,11.166-0.399,16.664
								c-0.001,5.505,0.098,10.915,0.182,16.166c0.078,5.254,0.063,10.323,0.106,15.129c0.038,4.806,0.136,9.348,0.317,13.535
								c0.193,4.186,0.432,8.021,0.764,11.411c0.306,3.394,0.723,6.334,1.093,8.75c0.413,2.411,0.741,4.307,1.04,5.583
								c0.28,1.283,0.424,1.966,0.424,1.966s-0.169-0.678-0.488-1.951c-0.339-1.267-0.745-3.15-1.215-5.556
								c-0.431-2.411-0.924-5.348-1.318-8.743c-0.423-3.389-0.757-7.229-0.998-11.425c-0.506-8.389-0.643-18.198-0.809-28.678
								c-0.112-5.24-0.239-10.672-0.266-16.185c0.006-5.515,0.054-11.122,0.315-16.724c0.049-1.4,0.155-2.8,0.244-4.2
								c0.099-1.397,0.165-2.793,0.296-4.187c0.258-2.787,0.48-5.57,0.842-8.296c0.082-0.683,0.169-1.367,0.25-2.048l0.121-1.019
								l0.16-1.025c0.214-1.352,0.425-2.697,0.635-4.034c0.215-1.336,0.41-2.667,0.642-3.983c0.261-1.31,0.518-2.609,0.772-3.899
								c0.257-1.288,0.506-2.569,0.76-3.835c0.252-1.264,0.573-2.504,0.854-3.736c0.605-2.456,1.118-4.879,1.758-7.198
								c0.617-2.329,1.214-4.592,1.794-6.781c0.62-2.18,1.215-4.283,1.789-6.303c1.147-4.041,2.284-7.719,3.266-10.983
								c1-3.261,1.871-6.105,2.587-8.445C570.794,212.832,571.615,210.157,571.615,210.157z"/>
							<g>
								<path style="fill:#FFA727;" d="M578.918,212.078c4.331-0.833,7.61-5.886,3.119-8.76c-3.877-2.483-8.191,0.59-8.395,4.721
									c-0.067-3.613-3.303-8.215-6.781-4.323c-2.016,2.257-0.582,4.969,1.21,7.087c-3.23-0.977-9.677,1.808-9.776,5.268
									c-0.184,6.297,9.145,2.645,11.453,0.265c-2.236,2.932-0.918,9.747,3.573,9.697c4.456-0.053,4.309-5.643,3.315-8.842
									c1.57,3.159,6.852,3.687,8.977,0.623C589.092,212.801,582.344,211.757,578.918,212.078z"/>
								<path style="fill:#6D0B4A;" d="M575.481,212.044c0.077,1.482-1.059,2.75-2.54,2.827c-1.481,0.079-2.746-1.057-2.824-2.539
									c-0.082-1.481,1.052-2.746,2.537-2.826C574.137,209.427,575.399,210.566,575.481,212.044z"/>
							</g>
						</g>
						<g>
							<path style="fill:#FFA727;" d="M578.792,267.424c-6.1,2.74-9.183,11.343-1.55,14.02c6.59,2.312,11.884-3.724,10.747-9.896
								c1.354,5.312,7.734,10.977,11.516,4.022c2.189-4.036-0.874-7.539-4.257-10.042c5.116,0.318,13.653-6.039,12.596-11.182
								c-1.927-9.359-14.424-0.718-17.001,3.602c2.278-5.105-2.038-14.712-8.654-13.07c-6.56,1.63-4.394,9.829-1.808,14.205
								c-3.426-4.111-11.4-3.052-13.471,2.213C563.519,269.903,573.846,269.096,578.792,267.424z"/>
							<path style="fill:#BA0000;" d="M583.881,266.274c-0.635-2.159,0.601-4.422,2.761-5.057c2.159-0.632,4.419,0.604,5.055,2.763
								c0.635,2.16-0.602,4.423-2.764,5.057C586.777,269.67,584.512,268.433,583.881,266.274z"/>
						</g>
						<g>
							<path style="fill:#F41919;" d="M526.701,279.104c-2.668,6.137,0.846,14.572,8.298,11.409
								c6.427-2.727,6.275-10.754,1.277-14.55c4.582,3.012,13.11,2.905,11.222-4.783c-1.092-4.459-5.719-4.984-9.91-4.555
								c3.997-3.208,6.033-13.662,1.787-16.75c-7.73-5.622-11.146,9.18-10.149,14.111c-1.753-5.307-11.411-9.505-15.195-3.838
								c-3.75,5.623,3.371,10.227,8.228,11.721c-5.297-0.734-10.482,5.418-8.469,10.706
								C517.077,291.224,524.172,283.673,526.701,279.104z"/>
							<path style="fill:#BA0000;" d="M529.69,274.831c-1.924-1.169-2.537-3.676-1.366-5.598c1.171-1.924,3.679-2.533,5.601-1.363
								c1.92,1.171,2.529,3.678,1.356,5.599C534.116,275.39,531.611,275.999,529.69,274.831z"/>
						</g>
						<g>
							<path style="fill:#B7277D;" d="M559.872,271.405c4.212-1.316,6.901-6.705,2.115-9.056c-4.134-2.031-8.07,1.509-7.811,5.636
								c-0.472-3.583-4.204-7.79-7.225-3.535c-1.75,2.472-0.018,5.005,2.003,6.908c-3.325-0.611-9.414,2.884-9.122,6.333
								c0.529,6.278,9.387,1.601,11.412-1.023c-1.893,3.163,0.18,9.789,4.634,9.233c4.424-0.555,3.651-6.092,2.3-9.157
								c1.92,2.958,7.222,2.891,8.994-0.396C570.065,270.98,563.242,270.699,559.872,271.405z"/>
							<path style="fill:#6D0B4A;" d="M556.45,271.759c0.248,1.465-0.739,2.849-2.204,3.093c-1.462,0.245-2.846-0.741-3.089-2.203
								c-0.247-1.464,0.739-2.849,2.204-3.093C554.821,269.31,556.208,270.297,556.45,271.759z"/>
						</g>
						<g>
							<path style="fill:#B7277D;" d="M550.284,302.161c4.723-0.649,8.555-5.915,3.869-9.279c-4.041-2.901-8.87,0.165-9.33,4.614
								c0.137-3.904-3.086-9.058-7.07-5.058c-2.308,2.319-0.914,5.328,0.9,7.721c-3.436-1.245-10.555,1.39-10.861,5.12
								c-0.558,6.788,9.723,3.385,12.35,0.948c-2.581,3.034-1.557,10.471,3.293,10.673c4.815,0.2,4.98-5.841,4.091-9.351
								c1.513,3.497,7.183,4.373,9.657,1.189C561.227,303.53,554,302.009,550.284,302.161z"/>
							<path style="fill:#6D0B4A;" d="M546.576,301.926c0,1.605-1.299,2.904-2.905,2.904c-1.603,0-2.902-1.299-2.902-2.904
								c0-1.603,1.299-2.902,2.902-2.902C545.278,299.024,546.576,300.323,546.576,301.926z"/>
						</g>
						<g>
							<path style="fill:#8FA662;" d="M553.942,374.528c0,0,0.045-0.153,0.134-0.451c0.079-0.3,0.236-0.735,0.376-1.32
								c0.285-1.164,0.588-2.904,0.73-5.139c0.143-2.233,0.08-4.954-0.141-8.067c-0.21-3.113-0.625-6.617-0.787-10.482
								c-0.077-3.849-0.162-8.018-0.25-12.43c-0.097-2.198-0.204-4.457-0.314-6.764c-0.052-1.152-0.106-2.319-0.16-3.497
								c-0.089-1.176-0.177-2.362-0.267-3.56c-0.198-2.392-0.325-4.831-0.582-7.286c-0.285-2.452-0.569-4.935-0.854-7.44
								c-0.074-0.623-0.148-1.249-0.217-1.876l-0.273-1.884c-0.178-1.258-0.362-2.52-0.543-3.785
								c-0.376-2.526-0.711-5.074-1.123-7.6c-0.828-5.055-1.524-10.133-2.51-15.08c-0.462-2.478-0.923-4.937-1.374-7.368
								c-0.534-2.412-1.06-4.795-1.575-7.141c-0.258-1.17-0.517-2.335-0.765-3.487c-0.262-1.151-0.583-2.273-0.86-3.394
								c-0.573-2.24-1.134-4.428-1.684-6.562c-0.502-2.142-1.195-4.171-1.78-6.157c-0.607-1.98-1.193-3.895-1.753-5.732
								c-0.143-0.459-0.278-0.914-0.418-1.365c-0.158-0.442-0.313-0.878-0.473-1.312c-0.313-0.864-0.615-1.709-0.909-2.535
								c-0.588-1.648-1.142-3.215-1.666-4.688c-0.983-2.969-2.126-5.444-2.965-7.524c-1.713-4.151-2.693-6.522-2.693-6.522
								s1.059,2.337,2.916,6.427c0.901,2.055,2.113,4.507,3.179,7.451c0.562,1.461,1.163,3.012,1.797,4.651
								c0.314,0.82,0.635,1.66,0.967,2.524c0.162,0.431,0.329,0.866,0.494,1.306c0.148,0.45,0.292,0.903,0.442,1.361
								c0.595,1.832,1.214,3.743,1.853,5.72c0.624,1.98,1.354,4.005,1.894,6.146c0.583,2.132,1.186,4.318,1.801,6.555
								c0.296,1.12,0.636,2.244,0.894,3.398c0.259,1.154,0.527,2.319,0.79,3.492c0.533,2.351,1.074,4.74,1.622,7.159
								c0.465,2.434,0.939,4.898,1.417,7.38c0.239,1.243,0.477,2.489,0.719,3.74c0.248,1.249,0.422,2.514,0.64,3.776
								c0.413,2.525,0.828,5.062,1.247,7.597c0.398,2.538,0.712,5.083,1.073,7.613c0.178,1.264,0.351,2.528,0.527,3.788l0.262,1.884
								c0.071,0.635,0.137,1.266,0.208,1.897c0.273,2.515,0.549,5.012,0.816,7.479c0.245,2.469,0.365,4.919,0.544,7.319
								c0.082,1.202,0.166,2.394,0.249,3.575c0.059,1.182,0.081,2.355,0.121,3.512c0.067,2.32,0.137,4.589,0.202,6.797
								c0.015,4.406,0.026,8.573,0.041,12.418c0.11,3.828,0.425,7.348,0.547,10.478c0.143,3.131,0.126,5.87-0.08,8.115
								c-0.196,2.245-0.584,3.977-0.907,5.137c-0.16,0.58-0.332,1.009-0.427,1.306C553.995,374.376,553.942,374.528,553.942,374.528
								z"/>
							<g>
								<path style="fill:#FFA727;" d="M532.912,213.025c6.07-2.819,9.041-11.46,1.369-14.04
									c-6.618-2.225-11.831,3.879-10.614,10.035c-1.422-5.293-7.877-10.876-11.566-3.871c-2.141,4.063,0.968,7.527,4.386,9.986
									c-5.116-0.254-13.578,6.214-12.451,11.343c2.048,9.332,14.431,0.531,16.956-3.82c-2.215,5.135,2.225,14.685,8.816,12.957
									c6.541-1.717,4.268-9.887,1.627-14.226c3.477,4.065,11.436,2.904,13.443-2.388
									C548.154,210.349,537.84,211.29,532.912,213.025z"/>
								<path style="fill:#BA0000;" d="M527.846,214.241c0.658,2.15-0.547,4.429-2.698,5.09c-2.15,0.661-4.429-0.544-5.092-2.696
									c-0.66-2.151,0.547-4.431,2.698-5.092C524.903,210.881,527.181,212.09,527.846,214.241z"/>
							</g>
						</g>
					</g>
					<g>
						<path style="fill:#FFFFFF;" d="M578.395,419.517c-1.513,2.996-2.766,5.128-5.954,6.443
							c-2.613,1.071-6.937,11.344-7.207,17.391h-20.356c-0.277-6.047-4.599-16.32-7.217-17.391
							c-3.189-1.315-4.441-3.447-5.952-6.443c-1.879-3.724-2.485-8.857-2.225-14.828c1.09-25.736,18.076-66.88,17.109-76.031
							c-0.351-3.328-2.707-7.47-5.541-11.281h28.247c-2.651,3.811-4.806,7.953-5.157,11.281
							C562.954,339.933,588.375,399.748,578.395,419.517z"/>
						<path style="fill:#E8DDE0;" d="M578.395,419.517c-1.513,2.996-2.766,5.128-5.954,6.443
							c-2.613,1.071-6.937,11.344-7.207,17.391h-20.356c-0.277-6.047-4.599-16.32-7.217-17.391
							c-3.189-1.315-4.441-3.447-5.952-6.443c-1.879-3.724-2.485-8.857-2.225-14.828c19.242,12.209,34.796-16.889,32.779-35.889
							c-1.945-18.314-5.352-35.66,2.891-51.424h4.146c-2.651,3.811-4.806,7.953-5.157,11.281
							C562.954,339.933,588.375,399.748,578.395,419.517z"/>
					</g>
				</g>
			</g>
			<g>
				<g>
					<polygon style="fill:#DDCFCC;" points="365.43,471.067 352.298,814.534 361.053,814.534 398.986,471.067 					"/>
					<polygon style="fill:#DDCFCC;" points="823.579,471.067 836.71,814.534 827.956,814.534 790.02,471.067 					"/>
				</g>
				<rect x="349.419" y="451.654" style="fill:#DDCFCC;" width="490.245" height="26.879"/>
				<path style="fill:#FFFFFF;" d="M852.323,452.987c0,5.498-3.482,9.955-7.779,9.955H344.543c-4.298,0-7.782-4.457-7.782-9.955l0,0
					c0-5.5,3.483-9.956,7.782-9.956h500.001C848.841,443.03,852.323,447.487,852.323,452.987L852.323,452.987z"/>
			</g>
		</g>
	</g>
</g>
</svg>
