<?xml version="1.0" encoding="utf-8"?>
<!-- Generator: Adobe Illustrator 27.5.0, SVG Export Plug-In . SVG Version: 6.00 Build 0)  -->
<svg version="1.1" id="Layer_1" xmlns="http://www.w3.org/2000/svg" xmlns:xlink="http://www.w3.org/1999/xlink" x="0px" y="0px"
	 viewBox="0 0 900 900" style="enable-background:new 0 0 900 900;" xml:space="preserve">
<g>
	
		<ellipse transform="matrix(0.422 -0.9066 0.9066 0.422 41.3137 1033.6842)" style="fill:#A09599;" cx="831.289" cy="484.443" rx="68.966" ry="21.26"/>
	<path style="fill:#473A41;" d="M866.857,426.487l-55.785,122.881c-2.57,5.66-8.055,8.705-12.252,6.799l-0.154-0.07
		c-4.197-1.905-5.516-8.038-2.946-13.699l55.785-122.881c2.57-5.66,8.055-8.704,12.252-6.799l0.154,0.07
		C868.108,414.694,869.427,420.827,866.857,426.487z"/>
	
		<ellipse transform="matrix(0.2382 -0.9712 0.9712 0.2382 150.2748 1043.2583)" style="fill:#1E191B;" cx="740.141" cy="425.84" rx="86.335" ry="90.107"/>
	
		<line style="fill:none;stroke:#54464A;stroke-width:52.485;stroke-miterlimit:10;" x1="794.516" y1="425.426" x2="689.858" y2="368.43"/>
	
		<line style="fill:none;stroke:#54464A;stroke-width:52.485;stroke-miterlimit:10;" x1="772.69" y1="474.162" x2="662.817" y2="428.013"/>
	
		<ellipse transform="matrix(0.9496 -0.3134 0.3134 0.9496 -223.6006 217.87)" style="fill:#A09599;" cx="565.787" cy="804.344" rx="68.966" ry="21.26"/>
	<path style="fill:#473A41;" d="M632.377,790.57l-127.745,43.508c-5.884,2.004-11.859,0.092-13.345-4.271l-0.054-0.16
		c-1.486-4.363,2.08-9.525,7.964-11.529l127.745-43.508c5.884-2.004,11.859-0.092,13.345,4.271l0.054,0.16
		C641.827,783.404,638.261,788.566,632.377,790.57z"/>
	<path style="fill:#1E191B;" d="M597.19,676.71c24.582,43.544,8.96,94.189-32.701,117.708
		c-41.661,23.519-95.361,7.286-119.944-36.257c-24.582-43.544-8.96-94.189,32.701-117.709
		C518.907,616.933,572.608,633.166,597.19,676.71z"/>
	
		<line style="fill:none;stroke:#4C3E42;stroke-width:52.485;stroke-miterlimit:10;" x1="560.008" y1="743.59" x2="564.356" y2="628.166"/>
	
		<line style="fill:none;stroke:#4C3E42;stroke-width:52.485;stroke-miterlimit:10;" x1="514.569" y1="759.551" x2="456.004" y2="660.506"/>
	
		<ellipse transform="matrix(0.703 -0.7112 0.7112 0.703 -444.2949 274.4703)" style="fill:#A09599;" cx="106.491" cy="669.214" rx="21.26" ry="68.966"/>
	<path style="fill:#473A41;" d="M149.054,722.245l-96.865-93.962c-4.462-4.328-5.478-10.519-2.268-13.827l0.117-0.121
		c3.209-3.308,9.428-2.481,13.89,1.847l96.865,93.962c4.462,4.328,5.478,10.519,2.268,13.827l-0.117,0.121
		C159.734,727.4,153.516,726.573,149.054,722.245z"/>
	
		<ellipse transform="matrix(0.5518 -0.834 0.834 0.5518 -424.8034 426.6637)" style="fill:#1E191B;" cx="184.552" cy="608.555" rx="81.287" ry="77.771"/>
	
		<line style="fill:none;stroke:#54464A;stroke-width:52.485;stroke-miterlimit:10;" x1="174.453" y1="654.502" x2="263.409" y2="575.2"/>
	
		<line style="fill:none;stroke:#54464A;stroke-width:52.485;stroke-miterlimit:10;" x1="135.935" y1="617.516" x2="216.438" y2="529.646"/>
	<path style="fill:#804D2C;" d="M746.206,341.345c0.55,2.68,1.056,5.352,1.52,8.027c0.012,0.038,0.015,0.079,0.024,0.108
		c1.16,6.568,2.089,13.136,2.81,19.676c5.902,53.401-2.492,105.65-22.372,152.525c-7.61,17.939-16.908,35.095-27.732,51.215
		c-43.266,64.481-110.929,112.622-193.02,129.34c-165.593,33.719-327.166-73.189-360.885-238.782
		c-33.719-165.593,73.18-327.163,238.772-360.882C550.917,68.854,712.487,175.753,746.206,341.345z"/>
	<path style="fill:#DB7D3D;" d="M743.206,338.345c0.55,2.68,1.056,5.352,1.52,8.027c0.012,0.038,0.015,0.079,0.024,0.108
		c1.16,6.568,2.089,13.136,2.81,19.676c5.902,53.401-2.492,105.65-22.372,152.525c-7.61,17.939-16.908,35.095-27.732,51.215
		c-43.266,64.481-110.929,112.622-193.02,129.34c-165.593,33.719-327.166-73.189-360.885-238.782
		c-33.719-165.593,73.18-327.163,238.772-360.882C547.917,65.854,709.487,172.753,743.206,338.345z"/>
	<path style="opacity:0.59;fill:#A36D48;" d="M308.169,189.626l-32.858,228.403c-10.647-1.532-20.52,5.858-22.052,16.505
		c-1.532,10.647,5.858,20.52,16.505,22.052l362.441,52.14l38.405-266.96l-4.731-6.005L308.169,189.626z"/>
	<path style="opacity:0.59;fill:#A36D48;" d="M273.181,528.569l0.131-0.37c0.637-1.802,2.103-3.169,3.928-3.737
		c4.971-1.548,14.207-6.462,8.567-21.004c-6.483-16.715-99.355-1.408-124.848,3.132c-0.784,0.139-1.497,0.431-2.129,0.828
		c3.83,10.526,8.207,20.741,13.084,30.624l41.259-0.885c1.523-0.032,2.975-0.645,4.062-1.713l5.6-5.503
		c1.923-1.89,4.872-2.258,7.201-0.9l12.364,7.209c1.269,0.74,2.765,0.987,4.204,0.694l22.133-4.507
		C270.794,532.016,272.481,530.549,273.181,528.569z"/>
	<path style="opacity:0.59;fill:#A36D48;" d="M504.7,616.885c2.161,0.804,3.943,2.491,4.703,4.668
		c3.868,11.096,25.896,13.251,35.139,8.721c1.277-0.626,2.684-0.954,4.102-0.851c4.928,0.358,8.713,1.338,13.572,2.824
		c1.555,0.475,16.789,9.453,24.561,10.918c3.783,0.714-3.243,29.045-3.243,29.045c-0.147,1.216-0.015,2.397,0.337,3.487
		c5.481-2.753,10.867-5.645,16.135-8.702l-0.06-37.165c-0.006-3.694-2.487-6.927-6.054-7.888l-31.469-8.48
		c-1.081-0.291-2.087-0.798-2.963-1.495c-6.505-5.182-23.025-24.377-36.082-23.679c-11.057,0.591-25.623,3.424-25.883,6.515
		c-0.107,1.275-0.468,2.515-1.12,3.616l-0.354,0.599C489.065,609.266,498.719,614.661,504.7,616.885z"/>
	<path style="opacity:0.59;fill:#A36D48;" d="M739.78,315.695c2.87,9.791,5.712,21.931,7.946,33.677
		c0.012,0.038,0.015,0.079,0.024,0.108c1.322,7.01,2.431,13.877,3.188,20.007l-0.378-0.331l-13.83-12.037l-33.816,31.113
		l-5.435,14.16c-1.578,4.135-4.533,7.607-8.361,9.824l-0.169,0.096c-6.581,3.82-10.504,10.97-10.211,18.57l0.007,0.187
		c0.162,4.063-0.666,8.116-2.4,11.797l-0.882,1.876l0.205,61.903l50.679-2.126l1.841,17.162
		c-7.61,17.939-16.908,35.095-27.732,51.215c-24.468-8.299-54.802-21.897-64.706-35.511c-6.002-8.257-10.548-90.786-10.548-90.786
		s-4.271-7.864-3.699-34.15c0.754-34.405,20.315-23.618,25.419-24.993c11.712-9.255,28.985-25.658,28.985-25.658
		s50.292-54.725,50.656-56.677L739.78,315.695z"/>
	
		<rect x="456.245" y="410.414" transform="matrix(0.5459 -0.8379 0.8379 0.5459 -150.7324 655.9844)" style="opacity:0.59;fill:#A36D48;" width="147.086" height="113.261"/>
	
		<rect x="455.221" y="405.384" transform="matrix(0.5459 -0.8379 0.8379 0.5459 -146.983 652.8419)" style="fill:#FFFFFF;" width="147.086" height="113.261"/>
	
		<line style="fill:none;stroke:#B4D7DB;stroke-width:2;stroke-miterlimit:10;" x1="537.994" y1="531.082" x2="461.855" y2="481.477"/>
	
		<line style="fill:none;stroke:#B4D7DB;stroke-width:2;stroke-miterlimit:10;" x1="542.042" y1="524.869" x2="465.903" y2="475.264"/>
	
		<line style="fill:none;stroke:#B4D7DB;stroke-width:2;stroke-miterlimit:10;" x1="546.409" y1="518.166" x2="470.27" y2="468.561"/>
	
		<line style="fill:none;stroke:#B4D7DB;stroke-width:2;stroke-miterlimit:10;" x1="550.457" y1="511.953" x2="474.318" y2="462.348"/>
	
		<line style="fill:none;stroke:#B4D7DB;stroke-width:2;stroke-miterlimit:10;" x1="554.37" y1="505.946" x2="478.232" y2="456.341"/>
	
		<line style="fill:none;stroke:#B4D7DB;stroke-width:2;stroke-miterlimit:10;" x1="558.418" y1="499.733" x2="482.28" y2="450.128"/>
	
		<line style="fill:none;stroke:#B4D7DB;stroke-width:2;stroke-miterlimit:10;" x1="562.785" y1="493.03" x2="486.647" y2="443.425"/>
	
		<line style="fill:none;stroke:#B4D7DB;stroke-width:2;stroke-miterlimit:10;" x1="566.833" y1="486.817" x2="490.695" y2="437.212"/>
	<polygon style="opacity:0.17;fill:#007EA5;" points="447.964,482.166 571.558,499.946 616.316,431.247 521.419,369.42 	"/>
	<path style="opacity:0.59;fill:#A36D48;" d="M472.433,589.598c-6.581-0.33-19.262,33.764-19.262,33.764l-46.066,82.445l4.652,1.117
		c10.88,1.111,21.886,1.646,32.984,1.569l7.36-15.871l-0.964-5.023c0,0,24.282-45.947,28.094-58.587
		C483.045,616.371,479.014,589.928,472.433,589.598z"/>
	
		<rect x="330.602" y="160.085" transform="matrix(0.1424 -0.9898 0.9898 0.1424 59.5047 755.0193)" style="fill:#0092DB;" width="269.709" height="366.172"/>
	<polygon style="fill:#0092DB;" points="627.474,502.721 304.799,456.302 665.879,235.761 	"/>
	
		<line style="opacity:0.3;fill:none;stroke:#FFFFFF;stroke-width:0.5851;stroke-miterlimit:10;" x1="634.763" y1="246.173" x2="600.014" y2="487.722"/>
	
		<line style="opacity:0.3;fill:none;stroke:#FFFFFF;stroke-width:0.5851;stroke-miterlimit:10;" x1="617.394" y1="243.64" x2="582.646" y2="485.189"/>
	
		<line style="opacity:0.3;fill:none;stroke:#FFFFFF;stroke-width:0.5851;stroke-miterlimit:10;" x1="600.011" y1="241.208" x2="565.263" y2="482.757"/>
	
		<line style="opacity:0.3;fill:none;stroke:#FFFFFF;stroke-width:0.5851;stroke-miterlimit:10;" x1="582.645" y1="238.659" x2="547.896" y2="480.207"/>
	
		<line style="opacity:0.3;fill:none;stroke:#FFFFFF;stroke-width:0.5851;stroke-miterlimit:10;" x1="530.513" y1="477.775" x2="565.262" y2="236.227"/>
	
		<line style="opacity:0.3;fill:none;stroke:#FFFFFF;stroke-width:0.5851;stroke-miterlimit:10;" x1="547.893" y1="233.694" x2="513.145" y2="475.242"/>
	
		<line style="opacity:0.3;fill:none;stroke:#FFFFFF;stroke-width:0.5851;stroke-miterlimit:10;" x1="530.51" y1="231.262" x2="495.762" y2="472.81"/>
	
		<line style="opacity:0.3;fill:none;stroke:#FFFFFF;stroke-width:0.5851;stroke-miterlimit:10;" x1="513.17" y1="228.535" x2="478.421" y2="470.083"/>
	
		<line style="opacity:0.3;fill:none;stroke:#FFFFFF;stroke-width:0.5851;stroke-miterlimit:10;" x1="495.786" y1="226.103" x2="461.038" y2="467.651"/>
	
		<line style="opacity:0.3;fill:none;stroke:#FFFFFF;stroke-width:0.5851;stroke-miterlimit:10;" x1="478.418" y1="223.57" x2="443.669" y2="465.118"/>
	
		<line style="opacity:0.3;fill:none;stroke:#FFFFFF;stroke-width:0.5851;stroke-miterlimit:10;" x1="461.035" y1="221.138" x2="426.286" y2="462.686"/>
	
		<line style="opacity:0.3;fill:none;stroke:#FFFFFF;stroke-width:0.5851;stroke-miterlimit:10;" x1="443.669" y1="218.588" x2="408.92" y2="460.137"/>
	
		<line style="opacity:0.3;fill:none;stroke:#FFFFFF;stroke-width:0.5851;stroke-miterlimit:10;" x1="426.285" y1="216.156" x2="391.537" y2="457.705"/>
	
		<line style="opacity:0.3;fill:none;stroke:#FFFFFF;stroke-width:0.5851;stroke-miterlimit:10;" x1="408.917" y1="213.623" x2="374.168" y2="455.172"/>
	
		<line style="opacity:0.3;fill:none;stroke:#FFFFFF;stroke-width:0.5851;stroke-miterlimit:10;" x1="391.534" y1="211.191" x2="356.785" y2="452.74"/>
	
		<line style="opacity:0.3;fill:none;stroke:#FFFFFF;stroke-width:0.5851;stroke-miterlimit:10;" x1="374.186" y1="208.515" x2="339.437" y2="450.064"/>
	
		<line style="opacity:0.3;fill:none;stroke:#FFFFFF;stroke-width:0.5851;stroke-miterlimit:10;" x1="356.803" y1="206.083" x2="322.054" y2="447.632"/>
	
		<line style="opacity:0.3;fill:none;stroke:#FFFFFF;stroke-width:0.5851;stroke-miterlimit:10;" x1="339.434" y1="203.55" x2="304.685" y2="445.099"/>
	
		<line style="opacity:0.3;fill:none;stroke:#FFFFFF;stroke-width:0.5851;stroke-miterlimit:10;" x1="322.051" y1="201.118" x2="287.302" y2="442.667"/>
	
		<line style="opacity:0.3;fill:none;stroke:#FFFFFF;stroke-width:0.5851;stroke-miterlimit:10;" x1="619.622" y1="472.896" x2="286.039" y2="424.907"/>
	
		<line style="opacity:0.3;fill:none;stroke:#FFFFFF;stroke-width:0.5851;stroke-miterlimit:10;" x1="622.349" y1="455.555" x2="288.766" y2="407.566"/>
	
		<line style="opacity:0.3;fill:none;stroke:#FFFFFF;stroke-width:0.5851;stroke-miterlimit:10;" x1="624.781" y1="438.172" x2="291.198" y2="390.183"/>
	
		<line style="opacity:0.3;fill:none;stroke:#FFFFFF;stroke-width:0.5851;stroke-miterlimit:10;" x1="627.314" y1="420.803" x2="293.731" y2="372.815"/>
	
		<line style="opacity:0.3;fill:none;stroke:#FFFFFF;stroke-width:0.5851;stroke-miterlimit:10;" x1="629.746" y1="403.42" x2="296.163" y2="355.431"/>
	
		<line style="opacity:0.3;fill:none;stroke:#FFFFFF;stroke-width:0.5851;stroke-miterlimit:10;" x1="632.295" y1="386.054" x2="298.713" y2="338.065"/>
	
		<line style="opacity:0.3;fill:none;stroke:#FFFFFF;stroke-width:0.5851;stroke-miterlimit:10;" x1="634.727" y1="368.671" x2="301.145" y2="320.682"/>
	
		<line style="opacity:0.3;fill:none;stroke:#FFFFFF;stroke-width:0.5851;stroke-miterlimit:10;" x1="637.26" y1="351.302" x2="303.678" y2="303.314"/>
	
		<line style="opacity:0.3;fill:none;stroke:#FFFFFF;stroke-width:0.5851;stroke-miterlimit:10;" x1="639.692" y1="333.919" x2="306.11" y2="285.93"/>
	
		<line style="opacity:0.3;fill:none;stroke:#FFFFFF;stroke-width:0.5851;stroke-miterlimit:10;" x1="642.369" y1="316.571" x2="308.786" y2="268.582"/>
	
		<line style="opacity:0.3;fill:none;stroke:#FFFFFF;stroke-width:0.5851;stroke-miterlimit:10;" x1="644.8" y1="299.188" x2="311.218" y2="251.199"/>
	
		<line style="opacity:0.3;fill:none;stroke:#FFFFFF;stroke-width:0.5851;stroke-miterlimit:10;" x1="647.334" y1="281.819" x2="313.751" y2="233.831"/>
	
		<line style="opacity:0.3;fill:none;stroke:#FFFFFF;stroke-width:0.5851;stroke-miterlimit:10;" x1="649.766" y1="264.436" x2="316.183" y2="216.448"/>
	
		<rect x="164.261" y="304.208" transform="matrix(0.1424 -0.9898 0.9898 0.1424 -59.4646 569.8515)" style="opacity:0.5;fill:#005EA5;" width="269.709" height="30.066"/>
	<g>
		<g>
			<path style="fill:#FFFFFF;" d="M319.032,412.6l27.064-188.129l188.129,27.064l-27.064,188.129L319.032,412.6z M349.465,228.973
				l-25.932,180.258l180.258,25.932l25.932-180.258L349.465,228.973z"/>
		</g>
		<g>
			<g>
				<path style="fill:#FFFFFF;" d="M388.362,360.708l18.175-126.339l126.339,18.175l-18.175,126.339L388.362,360.708z
					 M407.886,236.173l-17.721,123.187l123.187,17.721l17.721-123.187L407.886,236.173z"/>
			</g>
		</g>
		<g>
			<path style="fill:#FFFFFF;" d="M335.718,304.981l11.388-79.16l61.006,8.776l-11.388,79.16L335.718,304.981z M348.455,227.623
				l-10.935,76.009l57.855,8.323l10.935-76.009L348.455,227.623z"/>
		</g>
		<g>
			<path style="fill:#FFFFFF;" d="M320.382,411.59l15.563-108.185l61.006,8.776l-15.563,108.185L320.382,411.59z M337.294,305.207
				l-15.11,105.033l57.855,8.323l15.11-105.033L337.294,305.207z"/>
		</g>
		<g>
			
				<rect x="440.244" y="346.341" transform="matrix(0.1424 -0.9898 0.9898 0.1424 111.005 822.741)" style="fill:#FFFFFF;" width="180.087" height="1.942"/>
		</g>
		<g>
			<polygon style="fill:#FFFFFF;" points="538.625,257.541 543.724,253.905 547.592,258.831 			"/>
		</g>
		<g>
			<polygon style="fill:#FFFFFF;" points="521.949,437.083 516.85,440.718 512.982,435.793 			"/>
		</g>
		<g>
			
				<rect x="440.487" y="140.254" transform="matrix(0.1424 -0.9898 0.9898 0.1424 151.8923 633.3762)" style="fill:#FFFFFF;" width="1.928" height="177.562"/>
		</g>
		<g>
			<polygon style="fill:#FFFFFF;" points="529.972,237.193 533.547,242.284 528.682,246.16 			"/>
		</g>
		<g>
			<polygon style="fill:#FFFFFF;" points="352.929,220.877 349.354,215.786 354.22,211.909 			"/>
		</g>
		<g>
			
				<rect x="482.676" y="313.357" transform="matrix(0.1424 -0.9898 0.9898 0.1424 136.4279 788.1495)" style="fill:#FFFFFF;" width="80.723" height="3.976"/>
		</g>
		<g>
			
				<rect x="467.605" y="203.884" transform="matrix(0.1424 -0.9898 0.9898 0.1424 160.9663 674.272)" style="fill:#FFFFFF;" width="3.976" height="80.723"/>
		</g>
		<g>
			
				<rect x="316.951" y="262.121" transform="matrix(0.1424 -0.9898 0.9898 0.1424 32.2284 565.4149)" style="fill:#FFFFFF;" width="50.901" height="3.976"/>
		</g>
		<g>
			
				<rect x="303.5" y="355.623" transform="matrix(0.1424 -0.9898 0.9898 0.1424 -71.8559 632.2889)" style="fill:#FFFFFF;" width="50.902" height="3.976"/>
		</g>
		<g>
			<path style="fill:#FFFFFF;" d="M363.016,251.548c0.896-6.225,6.688-10.561,12.913-9.665c6.225,0.896,10.561,6.688,9.665,12.913
				c-0.896,6.225-6.688,10.561-12.913,9.665C366.457,263.566,362.121,257.773,363.016,251.548z M384.019,254.569
				c0.771-5.356-2.96-10.34-8.316-11.111c-5.356-0.771-10.34,2.96-11.111,8.316c-0.771,5.356,2.96,10.34,8.316,11.111
				S383.248,259.925,384.019,254.569z"/>
		</g>
		<g>
			
				<rect x="364.844" y="293.82" transform="matrix(0.1424 -0.9898 0.9898 0.1424 8.727 627.2346)" style="fill:#FFFFFF;" width="2.982" height="29.522"/>
		</g>
		<g>
			
				<rect x="369.997" y="389.861" transform="matrix(0.1424 -0.9898 0.9898 0.1424 -57.3924 716.4639)" style="fill:#FFFFFF;" width="29.522" height="2.982"/>
		</g>
		<g>
			
				<rect x="450.153" y="354.247" transform="matrix(0.1424 -0.9898 0.9898 0.1424 22.0911 763.5123)" style="fill:#FFFFFF;" width="2.982" height="29.522"/>
		</g>
		<g>
			
				<rect x="440.185" y="387.572" transform="matrix(0.1424 -0.9898 0.9898 0.1424 -43.5041 805.6577)" style="fill:#FFFFFF;" width="5.964" height="80.723"/>
		</g>
		<g>
			
				<rect x="439.691" y="397.917" transform="matrix(0.1424 -0.9898 0.9898 0.1424 -55.0276 813.0458)" style="fill:#FFFFFF;" width="3.976" height="80.723"/>
		</g>
		<g>
			
				<rect x="438.757" y="404.411" transform="matrix(0.1424 -0.9898 0.9898 0.1424 -62.2465 817.705)" style="fill:#FFFFFF;" width="3.976" height="80.723"/>
		</g>
		<g>
			<g>
				<path style="fill:#FFFFFF;" d="M436.751,366.002l0.981,0.141c-0.99,14.862,9.667,28.184,24.34,30.552l3.807-26.465l0.984,0.142
					l-3.949,27.453l-0.492-0.071C446.986,395.534,435.716,381.544,436.751,366.002z"/>
			</g>
		</g>
		<g>
			<g>
				<path style="fill:#FFFFFF;" d="M381.776,406.293l0.141-0.981c14.862,0.99,28.184-9.667,30.552-24.34l-26.465-3.807l0.142-0.984
					l27.453,3.949l-0.071,0.492C411.307,396.059,397.318,407.329,381.776,406.293z"/>
			</g>
		</g>
		<g>
			<g>
				<path style="fill:#FFFFFF;" d="M351.393,305.6l0.981,0.141c-0.99,14.862,9.667,28.184,24.34,30.552l3.807-26.465l0.984,0.142
					l-3.949,27.453l-0.492-0.071C361.628,335.132,350.358,321.142,351.393,305.6z"/>
			</g>
		</g>
	</g>
	
		<line style="fill:none;stroke:#FFFFFF;stroke-width:3.3154;stroke-miterlimit:10;" x1="551.044" y1="316.828" x2="631.476" y2="328.399"/>
	
		<line style="fill:none;stroke:#FFFFFF;stroke-width:3.3154;stroke-miterlimit:10;" x1="522.363" y1="318.284" x2="630.689" y2="333.868"/>
	
		<line style="fill:none;stroke:#FFFFFF;stroke-width:3.3154;stroke-miterlimit:10;" x1="545.944" y1="352.274" x2="626.377" y2="363.845"/>
	
		<line style="fill:none;stroke:#FFFFFF;stroke-width:3.3154;stroke-miterlimit:10;" x1="545.157" y1="357.743" x2="625.59" y2="369.314"/>
	
		<line style="fill:none;stroke:#FFFFFF;stroke-width:3.3154;stroke-miterlimit:10;" x1="544.371" y1="363.213" x2="624.803" y2="374.784"/>
	
		<line style="fill:none;stroke:#FFFFFF;stroke-width:3.3154;stroke-miterlimit:10;" x1="543.584" y1="368.682" x2="624.016" y2="380.253"/>
	
		<line style="fill:none;stroke:#FFFFFF;stroke-width:3.3154;stroke-miterlimit:10;" x1="542.797" y1="374.151" x2="623.229" y2="385.722"/>
	
		<line style="fill:none;stroke:#FFFFFF;stroke-width:3.3154;stroke-miterlimit:10;" x1="542.01" y1="379.621" x2="622.443" y2="391.192"/>
	
		<line style="fill:none;stroke:#FFFFFF;stroke-width:3.3154;stroke-miterlimit:10;" x1="541.223" y1="385.09" x2="621.656" y2="396.661"/>
	
		<line style="fill:none;stroke:#FFFFFF;stroke-width:3.3154;stroke-miterlimit:10;" x1="511.996" y1="386.468" x2="620.869" y2="402.131"/>
	<polygon style="opacity:0.59;fill:#A36D48;" points="351.953,438.309 219.276,501.798 242.497,556.317 285.07,611.729 
		400.843,540.475 	"/>
	<path style="opacity:0.59;fill:#A36D48;" d="M338.18,528.31l0.115-4.618c0.099-3.978-5.231-5.289-7.04-1.744
		c-0.031,0.062-0.064,0.123-0.096,0.186c-3,5.662-16.85,17.828-17.989,30.89c-0.173,1.987-1.869,3.496-3.861,3.394
		c-4.06-0.207-11.681-1.076-14.632,3.403c-8.147,12.365-29.641,56.964-36.158,68.561c-2.22,3.95-5.614,6.567-9.124,8.31
		c5.894,4.928,11.968,9.629,18.208,14.098C291.435,617.539,338.217,549.555,338.18,528.31z"/>
	<polyline style="fill:#FFFFFF;" points="246.231,554.839 218.111,496.075 350.788,432.586 399.677,534.752 283.493,590.349 	"/>
	<polygon style="fill:#E4EDEF;" points="283.412,590.275 290.498,573.42 246.143,554.772 	"/>
	
		<line style="fill:none;stroke:#B4D7DB;stroke-width:2;stroke-miterlimit:10;" x1="336.937" y1="451.624" x2="376.162" y2="533.594"/>
	
		<line style="fill:none;stroke:#B4D7DB;stroke-width:2;stroke-miterlimit:10;" x1="330.248" y1="454.824" x2="369.473" y2="536.795"/>
	
		<line style="fill:none;stroke:#B4D7DB;stroke-width:2;stroke-miterlimit:10;" x1="323.032" y1="458.278" x2="362.257" y2="540.248"/>
	
		<line style="fill:none;stroke:#B4D7DB;stroke-width:2;stroke-miterlimit:10;" x1="316.343" y1="461.478" x2="355.568" y2="543.449"/>
	<path style="opacity:0.34;fill:#007EA5;" d="M318.875,573.789c7.49-12.829,13.593-24.657,16.836-33.756l2.438,11.974
		c0,0,2.327,4.453,6.068,0.234c3.74-4.219,17.35-14.755,12.055-19.96c-5.295-5.205-18.055-25.479-18.055-25.479
		s-4.027,8.643-9.21,16.866c-6.748,10.704-15.127,22.307-15.771,29.695c-0.173,1.987-1.87,3.495-3.862,3.394
		c-4.06-0.207-10.117-3.012-12.299,1.888c-6.577,14.773-13.518,32.042-13.518,32.042L318.875,573.789z"/>
	<path style="opacity:0.17;fill:#007EA5;" d="M274.113,530.179l0.131-0.37c0.637-1.802,2.103-3.169,3.928-3.737
		c4.971-1.548,14.207-6.462,8.567-21.004c-3.691-9.517-35.384-8.652-66.702-5.306l16.271,34.001l7.024,4.096
		c1.269,0.74,2.765,0.987,4.204,0.694l22.133-4.507C271.727,533.627,273.413,532.159,274.113,530.179z"/>
	<line style="fill:none;stroke:#C46C31;stroke-width:5;stroke-miterlimit:10;" x1="351.761" y1="560.317" x2="356.1" y2="573.926"/>
	<path style="fill:#F9966B;" d="M343.498,518.152c0,0-5.655,6.078,3.338,14.062l-0.358,8.99c0,0-5.596,1.622-8.842,7.917
		c-2.93,5.682,8.081,4.895,8.081,4.895l12.119-18.431L343.498,518.152z"/>
	<g>
		
			<rect x="340.888" y="511.788" transform="matrix(0.9526 -0.3041 0.3041 0.9526 -142.8618 129.2022)" style="fill:#C61C00;" width="4.98" height="22.952"/>
	</g>
	
		<line style="fill:none;stroke:#E23000;stroke-width:1.8674;stroke-miterlimit:10;" x1="339.888" y1="512.332" x2="346.398" y2="532.728"/>
	<path style="opacity:0.34;fill:#9B1200;" d="M339.295,518.783l3.357,10.516c0.85-1.04,1.008-3.333,0.285-5.771
		C342.166,520.924,340.643,519.009,339.295,518.783z"/>
	<path style="opacity:0.34;fill:#9B1200;" d="M343.529,515.672c-0.136,0.036-0.267,0.084-0.386,0.158
		c-1.308,0.812-1.011,3.655,0.663,6.35c0.811,1.305,1.796,2.333,2.744,2.957L343.529,515.672z"/>
	<path style="fill:#FEB187;" d="M356.869,553.943l4.733-19.844c0.13-0.544,0.004-1.118-0.343-1.558l-8.3-10.922l-7.218-6.402
		c-0.659-0.712-2.272-0.381-2.529,0.554c-0.619,2.254-0.243,5.759,4.788,9.9l5.883,10.141c-1.817,1.735-4.208,5.724-5.477,7.958
		c-0.568,0.999-1.59,1.65-2.735,1.749l-6.697,0.578l-0.018-0.032c-1.145-2.088-1.702-3.59-1.057-5.883
		c0.847-3.011,2.22-8.101,3.269-9.779c1.916-3.065,2.337-9.333-1.919-11.192c-2.757-1.204-3.274,3.603-4.027,5.496
		c-1.41,3.546-7.224,12.92-9.791,18.807c-2.568,5.887-5.449,16.952-5.449,16.952l-1.308,2.974l13.184,8.743l3.272-5.741
		l20.339-10.761C356.173,555.342,356.688,554.703,356.869,553.943z"/>
	<path style="opacity:0.3;fill:#D36F54;" d="M349.033,543.063c-0.098,0.169-0.192,0.334-0.279,0.488
		c-0.568,0.999-1.59,1.65-2.735,1.749l-0.558,0.048l2.318,14.367l6.486-3.432L349.033,543.063z"/>
	
		<line style="fill:none;stroke:#C61C00;stroke-width:4.9797;stroke-miterlimit:10;" x1="346.867" y1="534.197" x2="355.446" y2="561.071"/>
	
		<line style="fill:none;stroke:#E23000;stroke-width:1.8674;stroke-miterlimit:10;" x1="346.398" y1="532.728" x2="355.446" y2="561.071"/>
	<polygon style="fill:#FFC299;" points="342.259,511.569 337.478,513.102 338.237,507.171 	"/>
	<path style="fill:#FFFFFF;" d="M316.664,559.363l-3.994,6.707l20.765,12.64l4.262-7.698
		C337.698,571.011,331.059,560.466,316.664,559.363z"/>
	<polygon style="fill:#991200;" points="337.992,509.088 339.496,508.548 338.237,507.171 	"/>
	<g>
		<g>
			<path style="fill:#FEB187;" d="M227.904,501.809c5.384-2.061,11.056-3.511,16.691-4.675c10.424-2.154,18.611-3.493,29.71-0.733
				c4.156,1.034,8.186-4.486,4.109-5.792c-11.057-3.543-22.748-2.363-34.458-0.105c-6.004,1.158-12.056,2.703-17.777,4.893
				c-1.69,0.647-2.848,2.189-2.344,4.069C224.267,501.077,226.214,502.456,227.904,501.809L227.904,501.809z"/>
		</g>
	</g>
	<path style="opacity:0.5;fill:#D36F54;" d="M272.004,496.935c2.069,0.515,5.7-0.341,6.725-1.76
		c-12.669-4.049-22.979-2.674-33.58-1.322c-6.699,0.855-13.494,2.035-19.969,4c-1.057,0.321-1.954,0.957-2.478,1.817
		c0.016,0.206,0.049,0.416,0.107,0.631c0.432,1.611,2.378,2.991,4.069,2.344c5.384-2.061,11.056-3.511,16.691-4.675
		C253.993,495.816,260.905,494.175,272.004,496.935z"/>
	<g>
		<g>
			<path style="fill:#FEB187;" d="M228.027,504.318c6.161-1.608,12.564-2.512,18.892-3.106c11.706-1.099,24.265-0.802,35.336,3.807
				c4.367,1.818,8.118-4.061,3.851-6.1c-13.629-6.511-26.63-6.157-39.083-5.064c-6.728,0.591-13.564,1.504-20.111,3.213
				c-1.934,0.505-3.392,2.058-3.067,4.182C224.123,503.072,226.092,504.823,228.027,504.318L228.027,504.318z"/>
		</g>
	</g>
	<path style="opacity:0.5;fill:#D36F54;" d="M282.234,505.033c1.445,0.602,2.82,0.358,3.862-0.308
		c-11.43-5.086-24.414-5.982-36.766-5.496c-6.748,0.265-13.615,0.936-20.227,2.37c-1.442,0.313-2.646,1.208-3.084,2.514
		c0.617,0.289,1.304,0.397,1.988,0.218c6.161-1.608,12.564-2.512,18.892-3.106C258.604,500.127,271.163,500.423,282.234,505.033z"/>
	<g>
		<g>
			<path style="fill:#FEB187;" d="M225.929,514.769c6.241-1.263,14.097,1.163,20.448,0.923c11.749-0.445,22.613,0.988,32.415,4.583
				c4.441,1.629,9.876-3.466,5.618-5.524c-11.554-5.585-24.859-6.72-37.52-6.398c-6.752,0.171-13.626,0.746-20.258,2.088
				c-1.959,0.396-4.914-1.106-4.708,1.033C222.1,513.308,223.97,515.166,225.929,514.769L225.929,514.769z"/>
		</g>
	</g>
	<g>
		<g>
			<path style="fill:#FEB187;" d="M230.194,508.614c6.268-1.122,12.722-1.523,19.077-1.621c11.756-0.181,22.264,1.189,32.445,4.905
				c4.443,1.622,9.81-2.837,5.6-4.991c-11.426-5.843-24.702-7.277-37.366-7.241c-6.754,0.02-13.64,0.439-20.3,1.632
				c-1.968,0.352-3.542,1.787-3.385,3.93C226.399,507.067,228.226,508.966,230.194,508.614L230.194,508.614z"/>
		</g>
	</g>
	<path style="fill:#FEB187;" d="M268.712,523.565c-1.69-1.187-5.006-3.493-10.129-2.211c-3.705,0.928-5.638-1.387-6.504-2.708
		c-0.329-0.502-0.013-1.177,0.584-1.247c4.622-0.54,9.127-1.546,12.48-3.328c-3.782-5.388,2.133-13.832-5.925-25.339l-30.425,5.716
		l-9.996,0.465l-0.063,21.561l13.618,1.096l1.052,1.456c1.006,1.392,2.371,2.486,3.95,3.164l13.645,5.862
		c1.349,0.58,2.825,0.804,4.285,0.65l12.706-1.337C269.765,526.936,270.206,524.615,268.712,523.565z"/>
	<path style="fill:#FFFFFF;" d="M213.785,490.955l14.095,1.418c0,0,6.711,12.245-0.519,26.588l-11.08-0.672L213.785,490.955z"/>
	<g>
		<g>
			<path style="fill:#FFA071;" d="M684.707,367.789c-5.34,2.603-10.423,5.852-15.265,9.275c-8.957,6.332-15.727,11.552-21.459,21.85
				c-2.147,3.856-9.137,3.006-7.252-0.983c5.114-10.817,14.229-18.787,24.17-26.014c5.096-3.705,10.519-7.173,16.193-9.939
				c1.676-0.817,3.652-0.603,4.712,1.099C686.715,364.535,686.383,366.972,684.707,367.789L684.707,367.789z"/>
		</g>
	</g>
	<path style="opacity:0.5;fill:#D36F54;" d="M650.004,397.557c-1.069,1.92-4.268,4.05-6.058,3.824
		c5.867-12.387,14.157-19.18,22.636-26.209c5.358-4.442,11.028-8.726,17.064-12.217c0.985-0.57,2.095-0.798,3.112-0.587
		c0.144,0.157,0.278,0.33,0.4,0.525c0.909,1.459,0.578,3.895-1.099,4.712c-5.34,2.603-10.423,5.852-15.265,9.275
		C661.836,383.211,655.736,387.259,650.004,397.557z"/>
	<g>
		<g>
			<path style="fill:#FFA071;" d="M686.509,369.647c-5.546,3.506-10.733,7.69-15.633,12.036c-9.065,8.039-17.68,17.702-22,29.28
				c-1.704,4.567-8.77,3.253-7.302-1.394c4.69-14.841,14.105-24.38,23.691-32.985c5.18-4.649,10.677-9.153,16.571-12.878
				c1.741-1.101,3.936-1.105,5.307,0.634C688.318,365.831,688.25,368.546,686.509,369.647L686.509,369.647z"/>
		</g>
	</g>
	<path style="opacity:0.5;fill:#D36F54;" d="M648.9,410.956c-0.564,1.511-1.715,2.374-2.949,2.69
		c4.214-12.184,12.678-22.588,21.736-31.545c4.949-4.893,10.285-9.591,16.019-13.559c1.25-0.865,2.772-1.142,4.063-0.552
		c-0.216,0.668-0.619,1.261-1.235,1.65c-5.546,3.506-10.733,7.69-15.633,12.036C661.836,389.715,653.221,399.378,648.9,410.956z"/>
	<g>
		<g>
			<path style="fill:#FFA071;" d="M695.853,375.422c-5.343,3.809-9.045,11.431-13.695,16.042
				c-8.603,8.531-15.17,17.718-19.36,27.627c-1.899,4.489-9.559,4.995-8.112,0.342c3.927-12.628,12.435-23.442,21.587-32.747
				c4.88-4.962,10.151-9.733,15.828-13.781c1.677-1.196,2.625-4.478,4.091-2.817C697.447,371.512,697.53,374.226,695.853,375.422
				L695.853,375.422z"/>
		</g>
	</g>
	<g>
		<g>
			<path style="fill:#FFA071;" d="M688.218,374.301c-5.256,3.928-10.099,8.505-14.645,13.22
				c-8.409,8.723-14.773,17.597-19.139,27.876c-1.906,4.486-9.039,5.388-7.697,0.703c3.642-12.713,11.905-23.716,20.845-33.224
				c4.768-5.07,9.93-9.959,15.514-14.133c1.65-1.233,3.838-1.409,5.34,0.218C689.724,370.356,689.868,373.068,688.218,374.301
				L688.218,374.301z"/>
		</g>
	</g>
	<path style="fill:#FFA071;" d="M672.367,413.818c0.296-2.108,0.893-6.227,5.464-9.181c3.306-2.136,2.924-5.22,2.539-6.802
		c-0.146-0.601-0.877-0.838-1.349-0.438c-3.659,3.1-7.587,5.783-11.288,7.052c-1.395-6.638-11.913-8.128-14.906-22.292
		l25.714-18.881l7.385-7.198l16.275,15.126l-8.758,11.023l0.355,1.816c0.34,1.737,0.202,3.534-0.398,5.2l-5.189,14.397
		c-0.513,1.424-1.383,2.692-2.527,3.683l-9.947,8.624C674.163,416.983,672.105,415.682,672.367,413.818z"/>
	<path style="fill:#FFFFFF;" d="M686.472,349.522l-8.852,11.608c0,0,4.495,13.669,20.38,18.32l7.291-8.814L686.472,349.522z"/>
	<g>
		<g>
			<path style="fill:#FEB187;" d="M648.029,445.99c-2.488-5.723-4.33-11.786-5.86-17.823c-2.832-11.169-4.675-19.957-2.225-32.092
				c0.917-4.544-5.245-8.636-6.461-4.164c-3.298,12.128-1.458,24.712,1.547,37.267c1.541,6.437,3.504,12.907,6.148,18.988
				c0.781,1.796,2.505,2.974,4.513,2.338C647.412,449.958,648.81,447.787,648.029,445.99L648.029,445.99z"/>
		</g>
	</g>
	<path style="opacity:0.5;fill:#D36F54;" d="M640.633,398.537c0.457-2.262-0.644-6.147-2.228-7.188
		c-3.768,13.895-1.784,24.977,0.189,36.376c1.247,7.203,2.851,14.494,5.289,21.401c0.398,1.127,1.129,2.067,2.084,2.592
		c0.222-0.027,0.447-0.073,0.677-0.146c1.721-0.544,3.119-2.716,2.338-4.513c-2.488-5.723-4.33-11.786-5.86-17.824
		C640.291,418.067,638.183,410.672,640.633,398.537z"/>
	<g>
		<g>
			<path style="fill:#FEB187;" d="M650.736,445.736c-2.036-6.585-3.322-13.465-4.27-20.279c-1.752-12.606-2.038-26.201,2.414-38.394
				c1.756-4.81-4.783-8.582-6.782-3.87c-6.383,15.052-5.375,29.094-3.592,42.507c0.963,7.247,2.28,14.595,4.444,21.592
				c0.639,2.067,2.389,3.569,4.671,3.115C649.577,450.018,651.375,447.804,650.736,445.736L650.736,445.736z"/>
		</g>
	</g>
	<path style="opacity:0.5;fill:#D36F54;" d="M648.896,387.085c0.581-1.591,0.251-3.066-0.519-4.161
		c-4.949,12.605-5.291,26.689-4.171,40.022c0.612,7.285,1.668,14.677,3.538,21.759c0.408,1.544,1.434,2.803,2.868,3.214
		c0.283-0.681,0.366-1.429,0.14-2.161c-2.036-6.585-3.322-13.465-4.27-20.279C644.729,412.873,644.444,399.278,648.896,387.085z"/>
	<g>
		<g>
			<path style="fill:#FEB187;" d="M662.139,447.501c-1.667-6.688,0.578-15.3,0.012-22.156c-1.048-12.684-0.022-24.501,3.394-35.273
				c1.548-4.881-4.224-10.512-6.245-5.809c-5.482,12.763-6.068,27.206-5.11,40.881c0.511,7.293,1.464,14.699,3.235,21.806
				c0.523,2.099-0.959,5.367,1.344,5.041C660.743,451.711,662.662,449.601,662.139,447.501L662.139,447.501z"/>
		</g>
	</g>
	<g>
		<g>
			<path style="fill:#FEB187;" d="M655.277,443.186c-1.516-6.724-2.26-13.684-2.672-20.551c-0.762-12.704,0.212-24.133,3.74-35.321
				c1.54-4.883-3.541-10.471-5.667-5.815c-5.768,12.637-6.678,27.063-6.028,40.756c0.347,7.302,1.133,14.729,2.744,21.873
				c0.476,2.111,2.103,3.744,4.413,3.471C653.787,447.364,655.753,445.297,655.277,443.186L655.277,443.186z"/>
		</g>
	</g>
	<path style="fill:#FEB187;" d="M669.588,400.813c-1.202,1.885-3.536,5.582-1.902,11.06c1.182,3.962-1.228,6.164-2.614,7.164
		c-0.527,0.38-1.272,0.07-1.376-0.571c-0.807-4.973-2.112-9.795-4.201-13.335c-5.644,4.349-15.06-1.64-27.115,7.628l7.648,32.625
		l0.984,10.787l23.318-0.972l0.529-14.779l1.523-1.208c1.457-1.155,2.574-2.684,3.231-4.424l5.682-15.038
		c0.562-1.487,0.733-3.093,0.496-4.665l-2.058-13.675C673.182,399.511,670.651,399.147,669.588,400.813z"/>
	<path style="fill:#FFFFFF;" d="M633.706,462.972l1.466-15.698c0,0,14.331-8.718,31.337-2.285l-0.631,12.292L633.706,462.972z"/>
	<path style="fill:#F9966B;" d="M450.053,592.035c0,0,5.429-4.131,12.965-7.068c1.259-0.491,2.642,0.435,2.635,1.786
		c-0.012,2.33-1.122,5.917-6.566,9.366l0.268,2.077c0,0,4.181-2.796,6.729-2.958c0.997-0.063,1.779,1.416,1.928,2.485
		c0.529,3.799-5.997,7.406-5.997,7.406l1.401,2.422c0,0,2.764-1.601,4.881-1.097c2.116,0.504,6.745,15.53-2.18,15.043
		C457.192,621.013,450.053,592.035,450.053,592.035z"/>
	<g>
		<g>
			<path style="fill:#FEB187;" d="M447.843,585.616c0.096-0.834,0.482-1.609,1.09-2.188l14.98-14.268
				c0.738-0.703,1.939-0.591,2.509,0.253c0.907,1.341,2.239,4.061-0.371,7.536c-4.373,5.821-10.288,10.547-10.288,10.547"/>
			
				<rect x="461.712" y="563.036" transform="matrix(0.806 -0.592 0.592 0.806 -257.2844 388.9521)" style="fill:#FFC200;" width="5.881" height="47.786"/>
		</g>
	</g>
	<g>
		
			<rect x="463.366" y="563.036" transform="matrix(0.806 -0.592 0.592 0.806 -257.2841 388.9511)" style="fill:#FFE424;" width="2.573" height="47.786"/>
	</g>
	<polygon style="fill:#FFD3B6;" points="476.426,607.927 481.166,604.445 482.713,611.518 	"/>
	<polygon style="fill:#777B7F;" points="480.523,610.267 482.174,609.054 482.713,611.518 	"/>
	<path style="fill:#FEB187;" d="M455.763,587.497l0.908,18.19c1.229,4.847,4.997,6.319,9.87,7.438l0.08,0.018
		c0,0-0.248-20.464,4.756-24.218c2.668-2.002,5.767-2.571,6.585,0.255c0,0,1.423,7.317-0.891,12.269
		c-2.334,4.996-0.089,15.738-3.003,25.875c-2.914,10.137-14.712,24.982-14.712,24.982l-46.08,89.08l-11.132-49.303l42.886-49.754
		l3.005-4.691c-0.134-7.635-0.828-20.055-3.722-28.048c-0.704-1.944-0.628-4.082,0.187-5.983l1.743-4.066l1.601-13.925"/>
	<path style="fill:#FAFBFF;" d="M437.052,698.236l-29.79-15.578l7.814-10.411c0,0,2.381-1.926,12.692,2.166
		c11.63,4.615,14.391,14.059,14.391,14.059L437.052,698.236z"/>
	<g>
		<g>
			<path style="fill:#FEB187;" d="M554.434,606.083c-4.787-3.066-9.974-5.601-15.182-7.852c-9.636-4.164-17.273-7.095-28.543-6.649
				c-4.22,0.167-7.008-5.968-2.81-6.415c11.386-1.21,21.1,2.865,31.957,7.387c5.566,2.318,9.307,6.521,14.394,9.779
				c1.503,0.963,5.445,0.585,4.582,2.299C558.092,606.103,555.937,607.046,554.434,606.083L554.434,606.083z"/>
		</g>
	</g>
	<path style="opacity:0.5;fill:#D36F54;" d="M512.823,592.558c-2.101,0.083-5.435-1.47-6.142-3.045
		c13.043-1.377,22.724,2.013,32.691,5.438c6.298,2.165,12.624,4.664,18.483,7.856c0.956,0.521,1.696,1.315,2.03,2.25
		c-0.056,0.195-0.131,0.392-0.229,0.588c-0.739,1.469-2.895,2.412-4.398,1.45c-4.787-3.066-9.974-5.601-15.183-7.852
		C530.439,595.079,524.093,592.112,512.823,592.558z"/>
	<g>
		<g>
			<path style="fill:#FEB187;" d="M553.814,608.481c-5.628-2.785-11.63-4.938-17.622-6.777c-11.084-3.402-23.271-5.627-34.883-3.389
				c-4.58,0.883-7.027-5.545-2.499-6.66c14.463-3.562,26.947-0.621,38.753,2.925c6.379,1.916,12.797,4.164,18.777,7.124
				c1.766,0.874,2.864,2.665,2.125,4.652C557.833,608.058,555.581,609.355,553.814,608.481L553.814,608.481z"/>
		</g>
	</g>
	<path style="opacity:0.5;fill:#D36F54;" d="M501.326,598.332c-1.515,0.292-2.794-0.218-3.667-1.07
		c12.054-2.626,24.772-0.894,36.602,2.045c6.464,1.606,12.96,3.626,19.058,6.333c1.33,0.59,2.314,1.696,2.476,3.045
		c-0.653,0.156-1.339,0.122-1.964-0.187c-5.628-2.785-11.63-4.938-17.622-6.777C525.125,598.319,512.938,596.094,501.326,598.332z"
		/>
	<g>
		<g>
			<path style="fill:#FEB187;" d="M553.75,618.993c-5.774-2.468-13.846-1.695-19.93-3.198c-11.256-2.779-22.034-3.568-32.218-2.056
				c-4.614,0.685-8.843-5.322-4.32-6.458c12.274-3.083,25.349-1.518,37.51,1.324c6.485,1.516,13.009,3.445,19.145,6.067
				c1.813,0.775,4.966-0.086,4.34,1.939C557.739,618.347,555.562,619.767,553.75,618.993L553.75,618.993z"/>
		</g>
	</g>
	<g>
		<g>
			<path style="fill:#FEB187;" d="M550.862,612.196c-5.828-2.337-11.98-4.015-18.097-5.38c-11.316-2.525-21.737-3.304-32.311-1.751
				c-4.615,0.678-8.905-4.702-4.409-5.939c12.202-3.358,25.308-2.088,37.531,0.48c6.518,1.369,13.083,3.152,19.276,5.635
				c1.83,0.734,3.064,2.433,2.483,4.472C554.836,611.461,552.692,612.93,550.862,612.196L550.862,612.196z"/>
		</g>
	</g>
	<path style="fill:#FEB187;" d="M510.678,618.931c1.87-0.808,5.533-2.372,10.223-0.109c3.392,1.637,5.722-0.212,6.822-1.314
		c0.418-0.419,0.248-1.134-0.315-1.321c-4.356-1.446-8.505-3.318-11.385-5.71c4.729-4.447,0.706-13.783,10.788-23.284l29.329,13.529
		l78.736,9.506l0.315,34.823l-88.205-24.639l-1.307,1.195c-1.25,1.143-2.787,1.926-4.447,2.265l-14.349,2.932
		c-1.419,0.29-2.888,0.211-4.268-0.229l-12.002-3.831C508.986,621.976,509.025,619.646,510.678,618.931z"/>
	<path style="fill:#FFFFFF;" d="M580.052,598.897l-12.193-1.958c0,0-11.675,12.773-7.449,28.792l10.688,2.142L580.052,598.897z"/>
	<g>
		<path style="fill:#F43756;" d="M203.188,713.543c23.289-12.819,46.577-25.639,69.866-38.458
			c5.258-2.894,10.515-5.788,15.773-8.682c5.16-2.84,10.976-5.566,13.917-10.968c5.689-10.448,11.377-20.897,17.066-31.345
			c8.283-15.214,11.885-23.351,20.168-38.565c1.73-14.679-29.918-27.56-37.6-20.876l-33.828,63.654
			c-2.295,4.215-5.835,7.617-10.14,9.74c-14.657,7.227-50.454,25.024-73.816,37.884c-11.567,6.367-19.847,14.334-13.836,26.577
			C176.372,713.94,191.634,719.903,203.188,713.543L203.188,713.543z"/>
	</g>
	<g>
		<path style="fill:#F43756;" d="M114.335,587.767l34.963-56.834c1.573-2.557,4.376-4.09,7.378-4.029
			c13.037,0.268,27.365-0.455,53.488,0.039c12.139-3.616,19.361-27.568,7.329-40.249c0,0-30.827,0.467-58.389-0.053
			c-4.88-0.092-9.76-0.184-14.639-0.276c-9.782-0.185-19.271,2.251-24.666,11.02c-7.418,12.058-14.836,24.117-22.254,36.175
			c-6.663,10.832-21.011,36.601-27.674,47.432c-6.911,11.234-6.87,25.301,4.401,33.977c9.622,7.406,34.735-8.08,41.661-19.339
			L114.335,587.767z"/>
	</g>
	<path style="fill:#C90D4C;" d="M207.525,709.07c-13.067,13.389-35.954,12.244-51.118-2.556l-79.571-77.662
		c-15.165-14.801-16.865-37.652-3.797-51.041l21.126-19.827c13.067-13.389,35.108-13.196,50.272,1.604l79.571,77.662
		c15.164,14.801,16.864,37.652,3.797,51.041L207.525,709.07z"/>
	<path style="fill:#F43756;" d="M213.233,703.671c-11.392,11.672-32.92,9.136-48.085-5.665l-79.571-77.662
		c-15.164-14.8-18.223-36.261-6.831-47.933l17.68-18.115c11.392-11.672,32.92-9.136,48.085,5.665l79.571,77.662
		c15.164,14.8,18.223,36.261,6.831,47.933L213.233,703.671z"/>
	
		<ellipse transform="matrix(0.5518 -0.834 0.834 0.5518 -464.1572 407.1225)" style="fill:#FFB36E;" cx="146.679" cy="635.38" rx="53.899" ry="52.834"/>
	<path style="fill:#FFB36E;" d="M191.227,602.71c-2.542,3.842-7.811,4.833-11.768,2.215c-3.958-2.619-5.106-7.856-2.564-11.697
		c2.542-3.841,7.811-4.833,11.768-2.214S193.768,598.868,191.227,602.71z"/>
	
		<ellipse transform="matrix(0.5518 -0.834 0.834 0.5518 -458.8298 366.539)" style="fill:#FFB36E;" cx="111.595" cy="610.143" rx="15.877" ry="17.496"/>
	<path style="fill:#FFB36E;" d="M162.301,656.181c6.095-6.304,16.668-5.969,23.614,0.748c6.947,6.717,7.637,17.272,1.542,23.576
		c-6.095,6.304-16.668,5.969-23.614-0.748C156.896,673.04,156.206,662.485,162.301,656.181z"/>
	<path style="fill:#682111;" d="M194.788,662.222c-12.6,28.746-46.103,38.835-73.543,23.599
		c-28.907-16.051-35.649-48.418-26.558-73.254c10.789-29.474,50.857-46.145,82.977-31.728l-11.461,10.133
		c10.217-0.542,16.259,7.322,16.259,7.322l-4.895,0.997C195.427,611.353,205.065,638.778,194.788,662.222z"/>
	<g>
		<path style="fill:#7FA800;" d="M784.335,528.34c-1.917,13.081-14.005,21.385-26.789,19.972
			c-33.705-3.727-73.772,1.628-107.477-2.099c-13.949-1.546-20.262-14.301-19.963-26.792c0.608-25.71-0.616-41.599-0.001-67.321
			c0,0,17.597-13.116,40.561,5.246c-0.353,15.122,0.588,24.887,0.538,39.608c-0.008,2.343-0.038,4.819-0.098,7.462l2.423-0.07
			l86.146-2.551l4.69-0.236C777.159,502.971,786.148,515.954,784.335,528.34z"/>
	</g>
	<g>
		<path style="fill:#7FA800;" d="M838.448,406.398c-7.898,9.729-26.238,4.976-35.928-3.49
			c-23.348-20.391-53.07-55.375-58.003-61.233c-0.47-0.553-0.71-0.844-0.71-0.844s-1.575,1.709-4.135,4.446
			c-7.272,7.808-22.522,24.038-32.198,33.358c0,0-19.89-2.139-29.388-25.476c18.523-17.851,30.686-34.545,49.218-52.398
			c8.991-8.671,22.658-12.651,33.232-3.417c25.54,22.295,48.942,53.521,74.485,75.826
			C844.718,381.622,846.776,396.143,838.448,406.398z"/>
	</g>
	<path style="fill:#618900;" d="M849.148,433.242l-37.526,85.43c-11.319,25.77-41.386,37.484-67.156,26.164l-0.812-0.357
		c-18.61-8.174-27.069-29.887-18.895-48.497l48.915-111.358c8.174-18.61,29.887-27.069,48.497-18.895l0.812,0.357
		C848.753,377.406,860.468,407.472,849.148,433.242z"/>
	<path style="fill:#7FA800;" d="M843.862,431.662l-37.526,85.43c-11.32,25.77-41.386,37.484-67.156,26.164l-0.812-0.357
		c-18.61-8.174-27.069-29.888-18.895-48.497l48.915-111.358c8.174-18.61,29.887-27.069,48.497-18.895l0.812,0.357
		C843.468,375.826,855.182,405.892,843.862,431.662z"/>
	
		<ellipse transform="matrix(0.3456 -0.9384 0.9384 0.3456 82.8572 1017.9011)" style="fill:#FFB36E;" cx="771.25" cy="449.543" rx="53.933" ry="53.933"/>
	
		<ellipse transform="matrix(0.4327 -0.9016 0.9016 0.4327 -18.6836 952.6672)" style="fill:#FFB36E;" cx="747.59" cy="491.178" rx="18.106" ry="18.106"/>
	<circle style="fill:#FFB36E;" cx="790.407" cy="405.93" r="18.106"/>
	<path style="fill:#FFB36E;" d="M729.181,418.386c6.369,2.798,9.442,9.824,6.864,15.693c-2.578,5.869-9.831,8.36-16.201,5.562
		c-6.369-2.798-9.442-9.824-6.864-15.693C715.559,418.078,722.812,415.588,729.181,418.386z"/>
	<path style="fill:#CE7000;" d="M799.062,399.478c33.62,9.853,53.199,46.003,38.601,79.237
		c-14.599,33.235-54.466,43.272-84.466,25.179c-25.912-15.626-35.394-47.454-24.21-72.916
		C740.171,405.516,770.025,390.968,799.062,399.478z"/>
	<g>
		<g>
			<path style="fill:none;" d="M756.652,504.488"/>
		</g>
	</g>
	<g>
		<path style="fill:#776091;" d="M644.648,639.583c-4.19,33.832-7.623,57.598-9.51,91.64c-0.773,13.87-9.06,26.033-24.099,26.861
			c-12.742,0.694-27.634-10.197-26.86-24.099c1.82-32.772,12.702-87.389,13.517-91.417c0.024-0.155,0.041-0.234,0.041-0.234
			c-0.139-0.04-2.475-0.848-5.588-1.923c-6.344-2.186-15.899-5.489-16.422-5.617c-2.872-0.68-5.486-2.984-5.713-5.935
			c-0.627-8.187-2.275-15.858,5.233-27.468c1.949-3.004,5.652-4.363,9.108-3.397l47.34,8.7
			C641.857,609.531,646.809,622.1,644.648,639.583z"/>
	</g>
	<g>
		<path style="fill:#776091;" d="M494.24,789.458c-1.984,2.27-3.652,4.576-5.148,6.732c-5.692,8.154-8.96,14.098-17.549,7.275
			c-24.64-19.538-52.33-42.386-76.96-61.927c-8.539-6.766-12.803-20.699-7.321-30.203c5.346-9.272,15.703-23.533,22.131-33.559
			c19.41-4.006,30.778,14.495,30.778,14.495c0.696,2.182-1.302,8.424-3.389,13.928c-0.613,1.633-1.231,3.184-1.799,4.562
			c-0.023,0.06-0.049,0.11-0.072,0.17c-0.085,0.195-0.167,0.399-0.245,0.582c-1.045,2.548-1.827,4.277-1.824,4.287
			c1.18,0.904,2.383,1.78,3.59,2.634c0.013,0.006,0.013,0.006,0.013,0.006c0.175,0.123,0.354,0.255,0.529,0.377
			c0.056,0.045,0.119,0.078,0.185,0.12c17.53,12.317,37.024,20.522,54.681,34.52C502.745,762.112,503.053,779.374,494.24,789.458z"
			/>
		<path style="fill:#604D7A;" d="M489.092,796.19c-5.692,8.154-8.96,14.098-17.549,7.275c-24.64-19.538-52.33-42.386-76.96-61.927
			c-8.539-6.766-12.803-20.699-7.321-30.203c-2.592,4.28,3.877,13.805,11.598,20.443c7.709,6.631,34.531,27.122,54.968,44.242
			l33.826,16.945L489.092,796.19z"/>
	</g>
	<path style="fill:#604D7A;" d="M629.763,721.78c8.674,25.912-5.3,53.949-31.212,62.623l-80.874,27.073
		c-25.912,8.674-53.949-5.3-62.623-31.212l-0.27-0.805c-6.063-18.11,3.704-37.706,21.814-43.769l109.126-36.53
		c18.11-6.063,37.706,3.704,43.769,21.814L629.763,721.78z"/>
	<path style="fill:#776091;" d="M627.02,713.585c8.674,25.912-5.3,53.949-31.212,62.623l-80.874,27.073
		c-25.912,8.674-38.897-7.013-61.106-27.261l-1.787-4.756c-6.063-18.11-11.191-32.957,6.919-39.019l134.274-44.549
		c18.11-6.063,27.453,6.973,33.516,25.084L627.02,713.585z"/>
	
		<ellipse transform="matrix(0.8985 -0.439 0.439 0.8985 -288.3155 298.7554)" style="fill:#FFB36E;" cx="501.857" cy="772.817" rx="17.83" ry="16.18"/>
	<path style="fill:#FFB36E;" d="M570.685,748.788c-2.387-8.611,3.37-17.724,12.859-20.355c9.489-2.63,19.117,2.218,21.504,10.829
		c2.387,8.611-3.37,17.724-12.86,20.355C582.7,762.247,573.073,757.399,570.685,748.788z"/>
	
		<ellipse transform="matrix(0.9483 -0.3174 0.3174 0.9483 -210.8161 211.5842)" style="fill:#FFB36E;" cx="543.872" cy="752.715" rx="52.154" ry="54.872"/>
	<path style="fill:#E04103;" d="M592.662,731.246c12.118,28.833-0.002,61.429-27.071,72.806s-58.837-2.774-70.955-31.607
		c-4.33-10.302,11.096-26.882,11.096-26.882s3.367-27.218,20.764-34.53c16.834-7.075,37.746,8.295,37.746,8.295
		S588.08,720.344,592.662,731.246z"/>
	<path style="fill:#FFB36E;" d="M531.394,704.345c-2.241,4.125-7.502,5.597-11.752,3.289c-4.25-2.309-4.1-3.804-1.859-7.929
		c2.241-4.125,7.502-5.597,11.752-3.289C533.784,698.725,533.635,700.221,531.394,704.345z"/>
	
		<ellipse transform="matrix(0.5518 -0.834 0.834 0.5518 -264.2467 370.0093)" style="opacity:0.59;fill:#A36D48;" cx="212.116" cy="430.847" rx="19.71" ry="19.71"/>
	
		<ellipse transform="matrix(0.4583 -0.8888 0.8888 0.4583 -269.493 411.6312)" style="fill:#491502;stroke:#FFFFFF;stroke-width:6.3854;stroke-miterlimit:10;" cx="202.938" cy="426.896" rx="19.71" ry="19.71"/>
	
		<ellipse transform="matrix(0.2853 -0.9584 0.9584 0.2853 -317.9093 837.6819)" style="opacity:0.59;fill:#A36D48;" cx="402.711" cy="631.999" rx="19.71" ry="19.71"/>
	
		<ellipse transform="matrix(0.2853 -0.9584 0.9584 0.2853 -320.6819 826.0612)" style="fill:#491502;stroke:#FFFFFF;stroke-width:6.3854;stroke-miterlimit:10;" cx="393.533" cy="628.048" rx="19.71" ry="19.71"/>
	
		<ellipse transform="matrix(0.9818 -0.1901 0.1901 0.9818 -26.4183 109.9555)" style="opacity:0.59;fill:#A36D48;" cx="560.009" cy="192.701" rx="19.71" ry="19.71"/>
	
		<ellipse transform="matrix(0.2853 -0.9584 0.9584 0.2853 212.7859 662.8455)" style="fill:#491502;stroke:#FFFFFF;stroke-width:6.3854;stroke-miterlimit:10;" cx="550.831" cy="188.75" rx="19.71" ry="19.71"/>
	<g>
		<g>
			<path style="fill:#FFFFFF;" d="M413.757,622.744c2.424-0.951,4.849-1.902,7.273-2.854c1.884-0.739,3.196-2.513,2.619-4.613
				c-0.494-1.796-2.717-3.363-4.613-2.619c-2.424,0.951-4.849,1.902-7.273,2.854c-1.884,0.739-3.196,2.513-2.619,4.613
				C409.638,621.921,411.861,623.488,413.757,622.744L413.757,622.744z"/>
		</g>
	</g>
	<g>
		<g>
			<path style="fill:#FFFFFF;" d="M216.46,409.339c1.482-2.141,2.965-4.282,4.447-6.424c1.153-1.666,0.308-4.164-1.345-5.131
				c-1.863-1.09-3.975-0.324-5.131,1.345c-1.482,2.141-2.965,4.282-4.447,6.424c-1.153,1.666-0.308,4.164,1.345,5.131
				C213.193,411.774,215.304,411.009,216.46,409.339L216.46,409.339z"/>
		</g>
	</g>
	<g>
		<g>
			<path style="fill:#FFFFFF;" d="M544.725,167.88c-1.121-2.351-2.241-4.702-3.362-7.053c-0.871-1.828-3.488-2.306-5.131-1.345
				c-1.87,1.094-2.22,3.296-1.345,5.131c1.121,2.351,2.241,4.702,3.362,7.053c0.871,1.828,3.488,2.306,5.131,1.345
				C545.25,171.916,545.6,169.714,544.725,167.88L544.725,167.88z"/>
		</g>
	</g>
	<polygon style="opacity:0.59;fill:#A36D48;" points="249.773,299.553 246.883,299.772 246.883,299.772 241.477,300.182 
		193.132,326.215 194.734,329.19 193.972,330.029 194.085,332.127 196.336,332.165 244.681,306.133 249.773,299.553 
		249.773,299.553 	"/>
	<polygon style="opacity:0.59;fill:#A36D48;" points="256.315,292.371 253.666,291.194 253.666,291.194 248.711,288.995 
		193.803,289.016 193.804,292.395 192.874,293.405 191.306,294.944 193.806,295.774 248.714,295.753 256.315,292.371 
		256.315,292.371 	"/>
	<g>
		
			<rect x="214.481" y="263.173" transform="matrix(0.0018 -1 1 0.0018 -73.1633 507.9572)" style="fill:#EA2F2F;" width="6.758" height="54.908"/>
	</g>
	<g>
		
			<rect x="216.381" y="263.173" transform="matrix(0.0018 -1 1 0.0018 -73.1573 507.9652)" style="fill:#FF4848;" width="2.957" height="54.908"/>
	</g>
	<polygon style="fill:#FFD3B6;" points="245.307,294.056 245.32,287.298 252.916,290.69 	"/>
	<polygon style="fill:#D3004C;" points="250.265,291.863 250.27,289.508 252.916,290.69 	"/>
	<g>
		
			<rect x="188.296" y="311.769" transform="matrix(0.8805 -0.4741 0.4741 0.8805 -123.6232 139.9561)" style="fill:#0058D8;" width="54.908" height="6.758"/>
	</g>
	<g>
		
			<rect x="188.296" y="313.669" transform="matrix(0.8805 -0.4741 0.4741 0.8805 -123.622 139.9538)" style="fill:#008BEA;" width="54.908" height="2.957"/>
	</g>
	<polygon style="fill:#FFD3B6;" points="241.524,305.107 238.32,299.156 246.616,298.527 	"/>
	<polygon style="fill:#0058D8;" points="244.842,300.819 243.725,298.746 246.616,298.527 	"/>
	<g>
		<path style="fill:#0078C1;" d="M286.642,181.047c0.669-4.275,9.84-6.487,20.485-4.941c10.645,1.546,18.733,6.265,18.064,10.54
			c-0.668,4.275-9.84,6.487-20.485,4.941C294.061,190.041,285.973,185.322,286.642,181.047z"/>
		<path style="fill:#0078C1;" d="M287.524,448.298l-3.347-0.113c-10.631-0.36-21.7-1.967-31.968-4.643l-3.233-0.842l37.67-261.668
			l3.347,0.113c10.631,0.36,21.7,1.967,31.969,4.643l3.233,0.842L287.524,448.298z"/>
		<path style="fill:#0092DB;" d="M289.388,181.07l-3.344-0.106l-36.474,261.84l3.239,0.837c5.143,1.329,10.482,2.39,15.863,3.161
			l36.83-264.311C300.121,181.72,294.698,181.239,289.388,181.07z"/>
		
			<ellipse transform="matrix(0.1417 -0.9899 0.9899 0.1417 -210.4789 647.7628)" style="fill:#005EA5;" cx="268.288" cy="445.252" rx="7.834" ry="19.477"/>
		<path style="fill:#0092DB;" d="M286.642,181.047c0.668-4.275,9.84-6.487,20.485-4.941l-2.421,15.481
			C294.061,190.041,285.973,185.322,286.642,181.047z"/>
	</g>
</g>
<path style="fill:#604D7A;" d="M436.974,718.817c0.056,0.045,0.119,0.078,0.185,0.12c-0.626,0.011-1.284-0.21-1.888-0.721
	c-3.722-3.148-8.588-3.99-13.178-2.453c-3.666,1.242-5.479-4.477-1.823-5.716c4.92-1.653,10.109-1.281,14.641,0.884
	c-0.085,0.195-0.167,0.399-0.245,0.582c-1.045,2.548-1.827,4.277-1.824,4.287c1.18,0.904,2.383,1.78,3.59,2.634
	c0.013,0.006,0.013,0.006,0.013,0.006C436.62,718.563,436.798,718.694,436.974,718.817z"/>
<path style="fill:#604D7A;" d="M609.984,631.302c-5.398,2.131-9.764,6.147-12.288,11.266c0.024-0.155,0.041-0.234,0.041-0.234
	c-0.139-0.04-2.475-0.848-5.588-1.923c3.248-6.798,8.778-11.972,16.013-14.825C611.76,624.165,613.554,629.891,609.984,631.302z"/>
<path style="fill:#618900;" d="M671.107,504.417l2.423-0.07c-5.101,1.186-9.549,3.958-13.089,8.162
	c-0.723,0.86-1.596,1.118-2.429,1.005c-2.263,0.606-5.052-1.591-3.548-4.148c3.758-6.352,9.794-10.827,16.74-12.412
	C671.196,499.298,671.166,501.774,671.107,504.417z"/>
<path style="fill:#618900;" d="M744.483,328.502c-3.461,3.958-2.405,9.016,0.033,13.172c-0.47-0.553-0.71-0.844-0.71-0.844
	s-1.575,1.709-4.135,4.446c-4.023-6.526-5.017-14.648,0.361-20.792C742.578,321.573,747.023,325.603,744.483,328.502z"/>
</svg>
